<svg width="595" height="331" viewBox="0 0 595 331" fill="none" xmlns="http://www.w3.org/2000/svg">
<path d="M594.584 263.081C594.584 278.665 594.201 289.715 593.435 296.23C592.732 302.681 590.433 308.589 586.537 313.954C582.704 319.319 577.499 323.438 570.92 326.313C564.342 329.187 556.677 330.624 547.927 330.624C539.624 330.624 532.151 329.283 525.509 326.6C518.93 323.854 513.629 319.766 509.605 314.337C505.581 308.908 503.186 303 502.419 296.613C501.653 290.226 501.27 279.049 501.27 263.081V236.543C501.27 220.959 501.621 209.941 502.324 203.49C503.09 196.975 505.389 191.035 509.222 185.67C513.118 180.305 518.355 176.185 524.934 173.311C531.512 170.437 539.177 169 547.927 169C556.23 169 563.671 170.373 570.25 173.12C576.892 175.802 582.225 179.858 586.249 185.287C590.273 190.716 592.668 196.624 593.435 203.011C594.201 209.398 594.584 220.575 594.584 236.543V263.081ZM554.25 212.112C554.25 204.895 553.835 200.296 553.005 198.316C552.238 196.273 550.61 195.251 548.119 195.251C546.011 195.251 544.382 196.081 543.233 197.742C542.147 199.338 541.604 204.129 541.604 212.112V284.541C541.604 293.547 541.955 299.104 542.658 301.212C543.424 303.319 545.149 304.373 547.831 304.373C550.578 304.373 552.334 303.16 553.101 300.733C553.867 298.306 554.25 292.525 554.25 283.392V212.112Z" fill="white" fill-opacity="0.14"/>
<path d="M420.793 172H488.049V203.041H461.127V232.453H486.324V261.961H461.127V296.068H490.731V327.109H420.793V172Z" fill="white" fill-opacity="0.14"/>
<path d="M406.326 239.896H365.992V212.879C365.992 205.023 365.545 200.137 364.651 198.221C363.821 196.241 361.937 195.251 358.999 195.251C355.677 195.251 353.57 196.432 352.675 198.796C351.781 201.159 351.334 206.268 351.334 214.124V286.17C351.334 293.707 351.781 298.625 352.675 300.924C353.57 303.224 355.582 304.373 358.711 304.373C361.713 304.373 363.661 303.224 364.555 300.924C365.513 298.625 365.992 293.228 365.992 284.733V265.285H406.326V271.32C406.326 287.352 405.177 298.721 402.877 305.427C400.642 312.133 395.628 318.01 387.836 323.055C380.108 328.101 370.559 330.624 359.19 330.624C347.374 330.624 337.634 328.484 329.969 324.205C322.305 319.926 317.227 314.018 314.736 306.481C312.245 298.88 311 287.479 311 272.278V226.962C311 215.785 311.383 207.418 312.15 201.861C312.916 196.241 315.184 190.844 318.952 185.67C322.784 180.497 328.053 176.441 334.76 173.503C341.53 170.501 349.29 169 358.041 169C369.92 169 379.724 171.299 387.453 175.898C395.181 180.497 400.259 186.245 402.686 193.143C405.113 199.977 406.326 210.643 406.326 225.142V239.896Z" fill="white" fill-opacity="0.14"/>
<path d="M206.365 169H273.621V200.041H246.699V229.453H271.896V258.961H246.699V293.068H276.303V324.109H206.365V169Z" fill="white" fill-opacity="0.14"/>
<path d="M190.078 169V324.109H149.744V258.961H137.673V324.109H97.3384V169H137.673V224.471H149.744V169H190.078Z" fill="white" fill-opacity="0.14"/>
<path d="M88.1411 169V200.041H64.1897V324.109H23.8556V200.041H0V169H88.1411Z" fill="white" fill-opacity="0.14"/>
<path d="M415.85 3.25732V158.366H380.593V53.651L366.51 158.366H341.505L326.655 56.0462V158.366H291.398V3.25732H343.613C345.145 12.5824 346.774 23.5681 348.499 36.2144L354.055 75.6863L363.253 3.25732H415.85Z" fill="white" fill-opacity="0.14"/>
<path d="M276.261 94.081C276.261 109.665 275.878 120.715 275.111 127.23C274.409 133.681 272.11 139.589 268.213 144.954C264.381 150.319 259.176 154.438 252.597 157.313C246.019 160.187 238.354 161.624 229.604 161.624C221.301 161.624 213.828 160.283 207.185 157.6C200.607 154.854 195.305 150.766 191.282 145.337C187.258 139.908 184.863 134 184.096 127.613C183.33 121.226 182.947 110.049 182.947 94.081V67.5429C182.947 51.9585 183.298 40.9409 184 34.49C184.767 27.9752 187.066 22.0353 190.898 16.6702C194.794 11.3051 200.032 7.18541 206.61 4.31125C213.189 1.43708 220.854 0 229.604 0C237.907 0 245.348 1.37321 251.927 4.11964C258.569 6.80219 263.902 10.858 267.926 16.2869C271.95 21.7159 274.345 27.6239 275.111 34.011C275.878 40.398 276.261 51.5753 276.261 67.5429V94.081ZM235.927 43.1125C235.927 35.8951 235.512 31.2965 234.682 29.3165C233.915 27.2726 232.286 26.2507 229.795 26.2507C227.688 26.2507 226.059 27.081 224.909 28.7417C223.824 30.3384 223.281 35.1287 223.281 43.1125V115.541C223.281 124.547 223.632 130.104 224.335 132.212C225.101 134.319 226.825 135.373 229.508 135.373C232.254 135.373 234.011 134.16 234.777 131.733C235.544 129.306 235.927 123.525 235.927 114.392V43.1125Z" fill="white" fill-opacity="0.14"/>
<path d="M78.327 3.25732H106.877C125.91 3.25732 138.78 3.99183 145.487 5.46085C152.257 6.92987 157.75 10.6982 161.965 16.7659C166.245 22.7697 168.384 32.3822 168.384 45.6034C168.384 57.6749 166.883 65.7864 163.881 69.938C160.879 74.0896 154.971 76.5805 146.157 77.4108C154.141 79.3908 159.506 82.0414 162.253 85.3627C164.999 88.6839 166.692 91.7497 167.33 94.56C168.033 97.3064 168.384 104.939 168.384 117.458V158.366H130.924V106.823C130.924 98.52 130.254 93.3784 128.912 91.3984C127.635 89.4184 124.218 88.4284 118.661 88.4284V158.366H78.327V3.25732ZM118.661 29.7955V64.2854C123.196 64.2854 126.358 63.6787 128.146 62.4651C129.998 61.1877 130.924 57.132 130.924 50.2978V41.7711C130.924 36.8531 130.03 33.6277 128.242 32.0948C126.517 30.5619 123.324 29.7955 118.661 29.7955Z" fill="white" fill-opacity="0.14"/>
<path d="M0.149719 3.25732H68.4591V34.2983H40.4838V63.7106H65.3933V93.2187H40.4838V158.366H0.149719V3.25732Z" fill="white" fill-opacity="0.14"/>
</svg>
