<svg width="693" height="164" viewBox="0 0 693 164" fill="none" xmlns="http://www.w3.org/2000/svg">
<g clip-path="url(#clip0_351_3)">
<path d="M94.9 3V161.1H53.8V94.7H41.5V161.1H0.400024V3H41.5V59.5H53.8V3H94.9Z" fill="#DCE6FF"/>
<path d="M156.5 3V161.1H115.4V3H156.5Z" fill="#DCE6FF"/>
<path d="M264.1 50.9H225.9V39.1999C225.9 33.6999 225.4 30.2 224.4 28.8C223.4 27.3 221.8 26.5999 219.5 26.5999C217.2 26.5999 215.2 27.5999 213.9 29.5999C212.6 31.5999 212 34.7 212 38.8C212 42.9 212.7 48.0999 214.1 50.6999C215.5 53.3999 219.3 56.6 225.7 60.4C244 71.3 255.5 80.2 260.3 87.1C265.1 94.1 267.4 105.3 267.4 120.8C267.4 136.3 266.1 140.4 263.4 145.7C260.8 151 255.7 155.5 248.1 159.1C240.5 162.7 231.8 164.5 221.7 164.5C211.6 164.5 201.3 162.4 193.5 158.3C185.7 154.1 180.6 148.8 178.2 142.4C175.8 136 174.6 126.8 174.6 115V104.6H212.8V123.8C212.8 129.7 213.3 133.5 214.4 135.2C215.5 136.9 217.4 137.7 220.1 137.7C222.8 137.7 224.9 136.6 226.2 134.5C227.5 132.4 228.2 129.2 228.2 124.9C228.2 115.6 226.9 109.5 224.4 106.6C221.8 103.7 215.4 99 205.2 92.2C195 85.4 188.2 80.5 184.9 77.5C181.6 74.4 178.8 70.2 176.6 64.8C174.4 59.4 173.3 52.4999 173.3 44.0999C173.3 31.9999 174.8 23.1 177.9 17.5C181 11.9 186 7.49995 192.9 4.39995C199.8 1.19995 208.1 -0.300049 217.9 -0.300049C227.7 -0.300049 237.7 1.39995 245.2 4.89995C252.7 8.39995 257.7 12.7 260.1 17.9C262.5 23.1 263.8 31.9999 263.8 44.5999V50.8L264.1 50.9Z" fill="#DCE6FF"/>
<path d="M367.3 3V34.6H342.9V161.1H301.8V34.6H277.5V3H367.3Z" fill="#DCE6FF"/>
<path d="M474.6 95.6C474.6 111.5 474.2 122.7 473.5 129.3C472.8 135.9 470.4 141.9 466.5 147.4C462.6 152.9 457.2 157.1 450.5 160C443.8 162.9 436 164.4 427.1 164.4C418.2 164.4 411 163 404.3 160.2C397.6 157.4 392.1 153.3 388 147.7C383.9 142.2 381.5 136.1 380.7 129.6C379.9 123.1 379.5 111.7 379.5 95.4V68.3C379.5 52.4 379.9 41.2 380.6 34.6C381.3 28 383.7 22 387.6 16.5C391.5 11 396.9 6.8 403.6 3.9C410.3 1 418.1 -0.5 427 -0.5C435.9 -0.5 443.1 0.900001 449.8 3.7C456.5 6.5 462 10.6 466.1 16.2C470.2 21.7 472.6 27.8 473.4 34.3C474.2 40.8 474.6 52.2 474.6 68.5V95.6ZM433.5 43.6C433.5 36.2 433.1 31.5 432.3 29.5C431.5 27.4 429.8 26.4 427.3 26.4C424.8 26.4 423.5 27.2 422.4 28.9C421.3 30.6 420.7 35.5 420.7 43.6V117.4C420.7 126.6 421.1 132.2 421.8 134.4C422.5 136.5 424.3 137.6 427 137.6C429.7 137.6 431.6 136.4 432.4 133.9C433.2 131.4 433.6 125.5 433.6 116.2V43.5L433.5 43.6Z" fill="#DCE6FF"/>
<path d="M493.9 3H523C542.4 3 555.5 3.7 562.4 5.2C569.3 6.7 574.9 10.5 579.2 16.7C583.5 22.9 585.7 32.7 585.7 46.1C585.7 59.5 584.2 66.7 581.1 70.9C578 75.1 572 77.7 563 78.5C571.1 80.5 576.6 83.2 579.4 86.6C582.2 90 583.9 93.1 584.6 95.9C585.3 98.7 585.6 106.5 585.6 119.3V161H547.4V108.5C547.4 100 546.7 94.8 545.4 92.8C544.1 90.8 540.6 89.8 534.9 89.8V161.1H493.8V3H493.9ZM535 30.1V65.3C539.6 65.3 542.9 64.7 544.7 63.4C546.5 62.1 547.5 58 547.5 51V42.3C547.5 37.3 546.6 34 544.8 32.4C543 30.8 539.7 30.1 535 30.1Z" fill="#DCE6FF"/>
<path d="M693.2 3L663.2 103.9V161.1H625.1V103.9L596.2 3H634C639.9 33.9 643.2 54.6 644 65.3C646.3 48.4 650.1 27.7 655.5 3H693.3H693.2Z" fill="#DCE6FF"/>
</g>
<defs>
<clipPath id="clip0_351_3">
<rect width="693" height="164" fill="white"/>
</clipPath>
</defs>
</svg>
