<svg width="705" height="162" viewBox="0 0 705 162" fill="none" xmlns="http://www.w3.org/2000/svg">
<path d="M634.748 3.26497H702.16V34.3782H675.176V63.8589H700.432V93.4357H675.176V127.622H704.849V158.735H634.748V3.26497Z" fill="#FFEFE7"/>
<path d="M618.999 60.4979H578.571V46.3817C578.571 37.4831 578.187 31.9135 577.419 29.6728C576.651 27.4321 574.826 26.3118 571.945 26.3118C569.449 26.3118 567.752 27.2721 566.856 29.1926C565.96 31.1132 565.512 36.0427 565.512 43.981V118.595C565.512 125.573 565.96 130.183 566.856 132.423C567.752 134.6 569.545 135.688 572.234 135.688C575.178 135.688 577.163 134.44 578.187 131.943C579.276 129.446 579.82 124.581 579.82 117.347V98.9093H571.657V75.2863H618.999V158.735H593.552L589.807 147.596C587.054 152.397 583.565 156.014 579.34 158.447C575.178 160.816 570.249 162 564.551 162C557.765 162 551.395 160.368 545.442 157.103C539.552 153.774 535.071 149.676 531.998 144.811C528.925 139.945 527.004 134.856 526.236 129.542C525.468 124.165 525.084 116.13 525.084 105.439V59.2496C525.084 44.3972 525.884 33.61 527.484 26.888C529.085 20.166 533.662 14.0202 541.216 8.4505C548.835 2.81683 558.662 0 570.697 0C582.541 0 592.368 2.43272 600.178 7.29816C607.988 12.1636 613.078 17.9573 615.446 24.6793C617.815 31.3373 618.999 41.0362 618.999 53.7759V60.4979Z" fill="#FFEFE7"/>
<path d="M496.179 3.26497L519.322 158.735H477.934L475.917 130.791H461.417L459.016 158.735H417.148L437.698 3.26497H496.179ZM474.765 103.231C472.716 85.6254 470.667 63.8909 468.619 38.0273C464.522 67.7321 461.961 89.4665 460.937 103.231H474.765Z" fill="#FFEFE7"/>
<path d="M410.234 50.3189H372.686V38.7955C372.686 33.4179 372.206 29.9929 371.246 28.5205C370.286 27.048 368.685 26.3118 366.445 26.3118C364.012 26.3118 362.155 27.3041 360.875 29.2887C359.659 31.2733 359.05 34.2822 359.05 38.3154C359.05 43.5009 359.755 47.406 361.163 50.0308C362.507 52.6556 366.317 55.8245 372.59 59.5376C390.58 70.2288 401.911 78.9994 406.584 85.8494C411.258 92.6995 413.595 103.743 413.595 118.979C413.595 130.055 412.282 138.217 409.657 143.467C407.097 148.716 402.103 153.133 394.677 156.718C387.251 160.239 378.608 162 368.749 162C357.93 162 348.679 159.951 340.997 155.854C333.379 151.757 328.385 146.539 326.017 140.202C323.648 133.864 322.464 124.869 322.464 113.218V103.039H360.011V121.956C360.011 127.782 360.523 131.527 361.547 133.191C362.635 134.856 364.524 135.688 367.213 135.688C369.902 135.688 371.886 134.632 373.167 132.519C374.511 130.407 375.183 127.27 375.183 123.108C375.183 113.954 373.935 107.968 371.438 105.151C368.877 102.334 362.571 97.6289 352.52 91.035C342.469 84.377 335.811 79.5436 332.547 76.5347C329.282 73.5258 326.561 69.3646 324.384 64.051C322.271 58.7374 321.215 51.9514 321.215 43.6929C321.215 31.7854 322.72 23.0788 325.728 17.5732C328.801 12.0676 333.731 7.7783 340.517 4.70539C347.303 1.56846 355.497 0 365.1 0C375.599 0 384.53 1.6965 391.892 5.08951C399.318 8.48251 404.216 12.7718 406.584 17.9573C409.017 23.0788 410.234 31.8174 410.234 44.1731V50.3189Z" fill="#FFEFE7"/>
<path d="M308.443 50.3189H270.896V38.7955C270.896 33.4179 270.416 29.9929 269.456 28.5205C268.496 27.048 266.895 26.3118 264.654 26.3118C262.222 26.3118 260.365 27.3041 259.085 29.2887C257.868 31.2733 257.26 34.2822 257.26 38.3154C257.26 43.5009 257.964 47.406 259.373 50.0308C260.717 52.6556 264.526 55.8245 270.8 59.5376C288.79 70.2288 300.121 78.9994 304.794 85.8494C309.468 92.6995 311.804 103.743 311.804 118.979C311.804 130.055 310.492 138.217 307.867 143.467C305.306 148.716 300.313 153.133 292.887 156.718C285.461 160.239 276.818 162 266.959 162C256.14 162 246.889 159.951 239.207 155.854C231.589 151.757 226.595 146.539 224.226 140.202C221.858 133.864 220.673 124.869 220.673 113.218V103.039H258.221V121.956C258.221 127.782 258.733 131.527 259.757 133.191C260.845 134.856 262.734 135.688 265.423 135.688C268.111 135.688 270.096 134.632 271.376 132.519C272.721 130.407 273.393 127.27 273.393 123.108C273.393 113.954 272.145 107.968 269.648 105.151C267.087 102.334 260.781 97.6289 250.73 91.035C240.679 84.377 234.021 79.5436 230.756 76.5347C227.491 73.5258 224.771 69.3646 222.594 64.051C220.481 58.7374 219.425 51.9514 219.425 43.6929C219.425 31.7854 220.929 23.0788 223.938 17.5732C227.011 12.0676 231.941 7.7783 238.727 4.70539C245.513 1.56846 253.707 0 263.31 0C273.809 0 282.74 1.6965 290.102 5.08951C297.528 8.48251 302.426 12.7718 304.794 17.9573C307.227 23.0788 308.443 31.8174 308.443 44.1731V50.3189Z" fill="#FFEFE7"/>
<path d="M140.97 3.26497H208.382V34.3782H181.398V63.8589H206.653V93.4357H181.398V127.622H211.071V158.735H140.97V3.26497Z" fill="#FFEFE7"/>
<path d="M124.741 3.26497V158.735H89.4025V53.7759L75.2863 158.735H50.2229L35.3385 56.1766V158.735H0V3.26497H52.3355C53.872 12.6117 55.5044 23.623 57.233 36.2988L62.8026 75.8625L72.0213 3.26497H124.741Z" fill="#FFEFE7"/>
</svg>
