<svg width="609" height="155" viewBox="0 0 609 155" fill="none" xmlns="http://www.w3.org/2000/svg">
<path d="M518.326 0H546.856C565.876 0 578.737 0.733992 585.439 2.20198C592.204 3.66996 597.693 7.43566 601.905 13.4991C606.182 19.4987 608.32 29.1044 608.32 42.3162C608.32 54.3792 606.82 62.4851 603.82 66.6337C600.82 70.7824 594.917 73.2716 586.109 74.1013C594.087 76.0799 599.448 78.7286 602.193 82.0476C604.937 85.3665 606.629 88.4301 607.267 91.2384C607.969 93.9829 608.32 101.61 608.32 114.12V155H570.886V103.493C570.886 95.1956 570.216 90.0576 568.876 88.0791C567.599 86.1005 564.185 85.1112 558.632 85.1112V155H518.326V0ZM558.632 26.5195V60.9852C563.163 60.9852 566.323 60.3788 568.11 59.1662C569.961 57.8896 570.886 53.8367 570.886 47.0074V38.4867C570.886 33.5722 569.993 30.349 568.206 28.8172C566.482 27.2854 563.291 26.5195 558.632 26.5195Z" fill="#DCE6FF"/>
<path d="M436.757 0H503.965V31.0191H477.063V60.4107H502.242V89.8981H477.063V123.981H506.646V155H436.757V0Z" fill="#DCE6FF"/>
<path d="M328.382 0H368.592C381.293 0 390.899 0.989294 397.409 2.96788C403.983 4.94647 409.28 8.96747 413.301 15.0309C417.322 21.0305 419.333 30.7319 419.333 44.1353C419.333 53.1985 417.897 59.5172 415.025 63.0914C412.216 66.6656 406.632 69.4101 398.271 71.3249C407.589 73.4311 413.908 76.9415 417.227 81.8561C420.546 86.7068 422.205 94.1744 422.205 104.259V118.62C422.205 129.087 420.992 136.842 418.567 141.884C416.205 146.926 412.408 150.373 407.174 152.224C401.94 154.075 391.218 155 375.006 155H328.382V0ZM368.687 26.5195V60.9852C370.411 60.9213 371.751 60.8894 372.708 60.8894C376.666 60.8894 379.187 59.9321 380.272 58.0173C381.357 56.0387 381.899 50.454 381.899 41.2631C381.899 36.4124 381.453 33.0296 380.559 31.1149C379.665 29.1363 378.485 27.8917 377.017 27.3811C375.613 26.8705 372.836 26.5833 368.687 26.5195ZM368.687 85.1112V128.481C374.368 128.289 377.974 127.396 379.506 125.8C381.101 124.204 381.899 120.279 381.899 114.024V99.5676C381.899 92.9298 381.197 88.9088 379.793 87.5046C378.389 86.1005 374.687 85.3027 368.687 85.1112Z" fill="#DCE6FF"/>
<path d="M312.202 0V155H276.97V50.3582L262.897 155H237.909L223.07 52.7517V155H187.838V0H240.015C241.547 9.31851 243.175 20.2965 244.898 32.9339L250.451 72.378L259.642 0H312.202Z" fill="#DCE6FF"/>
<path d="M106.269 0H173.477V31.0191H146.575V60.4107H171.754V89.8981H146.575V123.981H176.158V155H106.269V0Z" fill="#DCE6FF"/>
<path d="M89.9938 0V155H54.6665L33.6998 84.5368V155H0V0H33.6998L56.294 69.7931V0H89.9938Z" fill="#DCE6FF"/>
</svg>
