<svg width="608" height="152" viewBox="0 0 608 152" fill="none" xmlns="http://www.w3.org/2000/svg">
<path d="M86.3063 0V148.874H52.4265L32.3189 81.1954V148.874H0V0H32.3189L53.9873 67.0345V0H86.3063Z" fill="#DCE6FF"/>
<path d="M189.782 0V99.4943C189.782 110.774 189.415 118.713 188.68 123.31C187.946 127.847 185.773 132.536 182.161 137.379C178.55 142.161 173.775 145.808 167.838 148.322C161.962 150.774 155.015 152 146.996 152C138.121 152 130.286 150.529 123.491 147.586C116.697 144.644 111.617 140.812 108.25 136.092C104.884 131.372 102.894 126.406 102.282 121.195C101.67 115.923 101.364 104.889 101.364 88.092V0H140.018V111.632C140.018 118.13 140.355 122.299 141.028 124.138C141.763 125.916 143.201 126.805 145.343 126.805C147.792 126.805 149.353 125.824 150.026 123.862C150.76 121.839 151.128 117.119 151.128 109.701V0H189.782Z" fill="#DCE6FF"/>
<path d="M324.016 0V148.874H290.228V48.3678L276.731 148.874H252.767L238.536 50.6667V148.874H204.748V0H254.787C256.256 8.95019 257.817 19.4943 259.47 31.6322L264.795 69.5172L273.609 0H324.016Z" fill="#DCE6FF"/>
<path d="M339.532 0H378.095C390.276 0 399.488 0.950192 405.731 2.85057C412.036 4.75096 417.116 8.61303 420.973 14.4368C424.829 20.1992 426.757 29.5172 426.757 42.3908C426.757 51.0958 425.38 57.1648 422.625 60.5977C419.932 64.0307 414.576 66.6667 406.558 68.5057C415.494 70.5287 421.554 73.9004 424.737 78.6207C427.92 83.2797 429.511 90.4521 429.511 100.138V113.931C429.511 123.985 428.348 131.433 426.022 136.276C423.758 141.119 420.116 144.429 415.096 146.207C410.077 147.985 399.794 148.874 384.246 148.874H339.532V0ZM378.187 25.4713V58.5747C379.839 58.5134 381.125 58.4828 382.043 58.4828C385.838 58.4828 388.256 57.5632 389.296 55.7241C390.337 53.8238 390.857 48.4598 390.857 39.6322C390.857 34.9732 390.429 31.7241 389.572 29.8851C388.715 27.9847 387.582 26.7893 386.175 26.2989C384.828 25.8084 382.165 25.5326 378.187 25.4713ZM378.187 81.7471V123.402C383.634 123.218 387.093 122.36 388.562 120.828C390.092 119.295 390.857 115.525 390.857 109.517V95.6322C390.857 89.2567 390.184 85.3946 388.837 84.046C387.491 82.6973 383.94 81.931 378.187 81.7471Z" fill="#DCE6FF"/>
<path d="M443.467 0H507.921V29.7931H482.121V58.023H506.269V86.3448H482.121V119.08H510.492V148.874H443.467V0Z" fill="#DCE6FF"/>
<path d="M521.694 0H549.055C567.295 0 579.629 0.704981 586.056 2.11494C592.544 3.5249 597.809 7.14176 601.848 12.9655C605.949 18.728 608 27.954 608 40.6437C608 52.2299 606.562 60.0153 603.685 64C600.808 67.9847 595.146 70.3755 586.699 71.1724C594.35 73.0728 599.492 75.6169 602.124 78.8046C604.756 81.9923 606.378 84.9349 606.99 87.6322C607.663 90.2682 608 97.5939 608 109.609V148.874H572.1V99.4023C572.1 91.433 571.458 86.4981 570.172 84.5977C568.948 82.6973 565.673 81.7471 560.348 81.7471V148.874H521.694V0ZM560.348 25.4713V58.5747C564.694 58.5747 567.724 57.9923 569.438 56.8276C571.213 55.6015 572.1 51.7088 572.1 45.1494V36.9655C572.1 32.2452 571.243 29.1494 569.529 27.6782C567.877 26.2069 564.816 25.4713 560.348 25.4713Z" fill="#DCE6FF"/>
</svg>
