<svg width="780" height="158" viewBox="0 0 780 158" fill="none" xmlns="http://www.w3.org/2000/svg">
<path d="M776.42 49.0765H739.8V37.8376C739.8 32.5928 739.331 29.2523 738.395 27.8162C737.458 26.3802 735.897 25.6621 733.712 25.6621C731.339 25.6621 729.529 26.6299 728.28 28.5655C727.094 30.5011 726.5 33.4357 726.5 37.3693C726.5 42.4268 727.187 46.2355 728.561 48.7955C729.872 51.3555 733.587 54.4462 739.706 58.0676C757.251 68.4948 768.303 77.0488 772.861 83.7297C777.419 90.4106 779.698 101.181 779.698 116.041C779.698 126.843 778.418 134.804 775.858 139.924C773.36 145.044 768.49 149.352 761.247 152.849C754.004 156.283 745.575 158 735.96 158C725.408 158 716.385 156.002 708.893 152.006C701.463 148.01 696.593 142.921 694.282 136.74C691.972 130.558 690.817 121.786 690.817 110.422V100.494H727.437V118.945C727.437 124.627 727.937 128.279 728.936 129.903C729.997 131.526 731.839 132.338 734.461 132.338C737.084 132.338 739.019 131.308 740.268 129.247C741.579 127.187 742.235 124.127 742.235 120.069C742.235 111.14 741.017 105.302 738.582 102.555C736.085 99.8075 729.935 95.2183 720.132 88.7872C710.329 82.2936 703.835 77.5795 700.651 74.6449C697.467 71.7103 694.813 67.6518 692.69 62.4695C690.63 57.2871 689.599 50.6686 689.599 42.6141C689.599 31.0006 691.067 22.509 694.001 17.1393C696.998 11.7696 701.806 7.58625 708.425 4.58921C715.043 1.52974 723.035 0 732.401 0C742.641 0 751.351 1.65461 758.531 4.96384C765.774 8.27307 770.551 12.4564 772.861 17.5139C775.233 22.509 776.42 31.0318 776.42 43.0824V49.0765Z" fill="#FFEFE7"/>
<path d="M677.143 49.0765H640.523V37.8376C640.523 32.5928 640.055 29.2523 639.118 27.8162C638.181 26.3802 636.62 25.6621 634.435 25.6621C632.062 25.6621 630.252 26.6299 629.003 28.5655C627.817 30.5011 627.224 33.4357 627.224 37.3693C627.224 42.4268 627.91 46.2355 629.284 48.7955C630.595 51.3555 634.31 54.4462 640.429 58.0676C657.974 68.4948 669.026 77.0488 673.584 83.7297C678.142 90.4106 680.421 101.181 680.421 116.041C680.421 126.843 679.141 134.804 676.581 139.924C674.083 145.044 669.213 149.352 661.97 152.849C654.728 156.283 646.298 158 636.683 158C626.131 158 617.109 156.002 609.616 152.006C602.186 148.01 597.316 142.921 595.005 136.74C592.695 130.558 591.54 121.786 591.54 110.422V100.494H628.16V118.945C628.16 124.627 628.66 128.279 629.659 129.903C630.72 131.526 632.562 132.338 635.184 132.338C637.807 132.338 639.742 131.308 640.991 129.247C642.302 127.187 642.958 124.127 642.958 120.069C642.958 111.14 641.74 105.302 639.305 102.555C636.808 99.8075 630.658 95.2183 620.855 88.7872C611.052 82.2936 604.558 77.5795 601.374 74.6449C598.19 71.7103 595.536 67.6518 593.413 62.4695C591.353 57.2871 590.323 50.6686 590.323 42.6141C590.323 31.0006 591.79 22.509 594.724 17.1393C597.721 11.7696 602.529 7.58625 609.148 4.58921C615.766 1.52974 623.758 0 633.124 0C643.364 0 652.074 1.65461 659.254 4.96384C666.497 8.27307 671.274 12.4564 673.584 17.5139C675.957 22.509 677.143 31.0318 677.143 43.0824V49.0765Z" fill="#FFEFE7"/>
<path d="M513.804 3.18457H579.552V33.5296H553.234V62.2824H577.866V91.1289H553.234V124.471H582.174V154.816H513.804V3.18457Z" fill="#FFEFE7"/>
<path d="M410.407 3.18457H438.316C456.923 3.18457 469.504 3.90261 476.06 5.33869C482.679 6.77477 488.049 10.4586 492.169 16.3903C496.353 22.2595 498.444 31.6564 498.444 44.5811C498.444 56.382 496.977 64.3116 494.043 68.3701C491.108 72.4286 485.332 74.8637 476.716 75.6754C484.521 77.611 489.766 80.2022 492.45 83.4489C495.135 86.6957 496.79 89.6928 497.414 92.4401C498.101 95.1249 498.444 102.586 498.444 114.824V154.816H461.824V104.428C461.824 96.3112 461.169 91.2849 459.858 89.3494C458.609 87.4138 455.268 86.446 449.836 86.446V154.816H410.407V3.18457ZM449.836 29.1277V62.8443C454.269 62.8443 457.36 62.2512 459.108 61.0648C460.919 59.8161 461.824 55.8512 461.824 49.1703V40.8348C461.824 36.0271 460.95 32.874 459.202 31.3754C457.516 29.8769 454.394 29.1277 449.836 29.1277Z" fill="#FFEFE7"/>
<path d="M395.047 59.0041H355.617V45.2365C355.617 36.5576 355.242 31.1255 354.493 28.9401C353.744 26.7548 351.964 25.6621 349.155 25.6621C346.72 25.6621 345.065 26.5987 344.191 28.4718C343.317 30.345 342.88 35.1527 342.88 42.8951V115.667C342.88 122.473 343.317 126.968 344.191 129.154C345.065 131.276 346.813 132.338 349.436 132.338C352.308 132.338 354.243 131.12 355.242 128.685C356.304 126.25 356.835 121.505 356.835 114.449V96.4671H348.874V73.4274H395.047V154.816H370.228L366.575 143.951C363.89 148.634 360.487 152.162 356.366 154.535C352.308 156.845 347.5 158 341.943 158C335.325 158 329.112 156.408 323.305 153.223C317.561 149.977 313.19 145.981 310.193 141.235C307.196 136.49 305.323 131.526 304.574 126.344C303.824 121.099 303.45 113.263 303.45 102.836V57.7866C303.45 43.3009 304.23 32.7801 305.791 26.2241C307.352 19.668 311.817 13.674 319.184 8.24185C326.614 2.74728 336.199 0 347.937 0C359.488 0 369.072 2.37265 376.69 7.11796C384.307 11.8633 389.271 17.5139 391.581 24.0699C393.892 30.5635 395.047 40.0229 395.047 52.4481V59.0041Z" fill="#FFEFE7"/>
<path d="M289.776 91.9715C289.776 107.206 289.401 118.008 288.652 124.377C287.965 130.683 285.718 136.459 281.909 141.704C278.163 146.948 273.074 150.976 266.643 153.785C260.212 156.595 252.719 158 244.165 158C236.048 158 228.743 156.689 222.249 154.066C215.818 151.382 210.636 147.385 206.702 142.078C202.768 136.771 200.427 130.995 199.678 124.752C198.928 118.508 198.554 107.581 198.554 91.9715V66.0285C198.554 50.7935 198.897 40.0229 199.584 33.7167C200.333 27.348 202.581 21.5412 206.327 16.2964C210.136 11.0516 215.256 7.0243 221.687 4.21458C228.118 1.40486 235.611 0 244.165 0C252.282 0 259.556 1.34242 265.987 4.02727C272.481 6.64967 277.694 10.6145 281.628 15.9218C285.561 21.229 287.903 27.0045 288.652 33.2484C289.401 39.4922 289.776 50.4189 289.776 66.0285V91.9715ZM250.346 42.1458C250.346 35.0903 249.94 30.5947 249.129 28.6592C248.38 26.6611 246.787 25.6621 244.352 25.6621C242.292 25.6621 240.7 26.4738 239.576 28.0972C238.514 29.6582 237.984 34.341 237.984 42.1458V112.951C237.984 121.755 238.327 127.187 239.014 129.247C239.763 131.308 241.449 132.338 244.071 132.338C246.756 132.338 248.473 131.152 249.222 128.779C249.972 126.406 250.346 120.756 250.346 111.827V42.1458Z" fill="#FFEFE7"/>
<path d="M96.2797 3.18457H124.19C142.796 3.18457 155.377 3.90261 161.933 5.33869C168.552 6.77477 173.922 10.4586 178.043 16.3903C182.226 22.2595 184.318 31.6564 184.318 44.5811C184.318 56.382 182.85 64.3116 179.916 68.3701C176.981 72.4286 171.206 74.8637 162.589 75.6754C170.394 77.611 175.639 80.2022 178.324 83.4489C181.008 86.6957 182.663 89.6928 183.287 92.4401C183.974 95.1249 184.318 102.586 184.318 114.824V154.816H147.698V104.428C147.698 96.3112 147.042 91.2849 145.731 89.3494C144.482 87.4138 141.142 86.446 135.709 86.446V154.816H96.2797V3.18457ZM135.709 29.1277V62.8443C140.143 62.8443 143.233 62.2512 144.981 61.0648C146.792 59.8161 147.698 55.8512 147.698 49.1703V40.8348C147.698 36.0271 146.823 32.874 145.075 31.3754C143.389 29.8769 140.267 29.1277 135.709 29.1277Z" fill="#FFEFE7"/>
<path d="M0 3.18457H39.7107C50.4501 3.18457 58.692 4.02749 64.4363 5.71332C70.243 7.39915 74.5825 9.83424 77.4547 13.0186C80.3892 16.2029 82.3561 20.0741 83.3551 24.6321C84.4165 29.1277 84.9472 36.1208 84.9472 45.6114V58.8171C84.9472 68.495 83.9482 75.5505 81.9502 79.9836C79.9522 84.4167 76.2683 87.8196 70.8986 90.1923C65.5914 92.5649 58.6295 93.7513 50.013 93.7513H39.4298V154.816H0V3.18457ZM39.4298 29.1277V67.7145C40.5536 67.7769 41.5214 67.8082 42.3331 67.8082C45.9546 67.8082 48.4521 66.934 49.8257 65.1858C51.2618 63.375 51.9798 59.66 51.9798 54.0405V41.5841C51.9798 36.4017 51.1681 33.0301 49.5448 31.4691C47.9214 29.9081 44.5497 29.1277 39.4298 29.1277Z" fill="#FFEFE7"/>
</svg>
