<?xml version="1.0" encoding="UTF-8"?>
<svg id="_레이어_1" data-name="레이어_1" xmlns="http://www.w3.org/2000/svg" version="1.1" viewBox="0 0 227 80">
  <!-- Generator: Adobe Illustrator 29.2.1, SVG Export Plug-In . SVG Version: 2.1.0 Build 116)  -->
  <defs>
    <style>
      .st0 {
        fill: #fff;
      }
    </style>
  </defs>
  <path class="st0" d="M221.7,74.7c-.6,0-1.2-.1-1.8-.4-.5-.3-1-.6-1.4-1v6.6h-2.1v-19.2h2v1.2c.7-1,1.7-1.5,3-1.5s1.3.1,1.9.3c.6.2,1.1.5,1.5.9.4.4.8.8,1.1,1.3.3.5.5,1,.7,1.6.3.9.4,1.9.4,2.9,0,1.6-.3,3-.9,4.1-.6,1.1-1.4,2-2.4,2.4-.6.3-1.3.5-2.1.5ZM218.5,69c0,.8.2,1.5.5,2.1.3.6.8,1,1.4,1.3.4.2.7.2,1,.2,1.5,0,2.6-.9,3.1-2.8.2-.6.3-1.3.3-2.2s-.2-2.1-.5-2.9c-.4-.8-.9-1.4-1.5-1.8-.4-.2-.8-.3-1.3-.3s-.4,0-.6,0c-.2,0-.4.1-.6.2-.2,0-.3.2-.5.3-.1.1-.3.3-.4.4-.1.1-.2.3-.3.5,0,.2-.2.3-.2.5-.2.4-.2,1-.2,1.5v2.9Z"/>
  <path class="st0" d="M209.7,73.2c-.8,1-1.9,1.6-3.4,1.6s-2.1-.3-2.9-.8c-.8-.5-1.4-1.3-1.7-2.2-.3-.7-.4-1.6-.4-2.6v-8.1h2.1v8c0,1.1.3,2,.8,2.6.6.7,1.3,1,2.3,1s1.3-.2,1.8-.5c.5-.4.8-.9,1.1-1.5.2-.5.3-1,.3-1.6v-8h2.1v13.5h-2v-1.3Z"/>
  <path class="st0" d="M197.3,67.6c0,1.6-.3,2.9-.9,4.1-.6,1.1-1.4,2-2.4,2.5-.7.3-1.4.5-2.2.5s-1.3-.1-1.9-.3c-.6-.2-1.1-.5-1.5-.9-.4-.4-.8-.8-1.1-1.3-.3-.5-.5-1-.7-1.6-.3-.9-.4-1.8-.4-2.9,0-1.6.3-3,.9-4.1.6-1.1,1.4-2,2.4-2.5.7-.3,1.4-.5,2.2-.5s1.3.1,1.9.3c.6.2,1.1.5,1.5.9.4.4.8.8,1.1,1.3.3.5.5,1,.7,1.6.3.9.4,1.9.4,3ZM195.1,67.6c0-1.1-.2-2.1-.5-2.9-.3-.8-.8-1.4-1.5-1.8-.4-.2-.9-.3-1.4-.3s-.7,0-1,.2c-.3.1-.6.2-.8.4-.2.2-.4.4-.6.6-.2.2-.3.5-.4.8-.1.3-.2.6-.3.9-.2.6-.2,1.3-.2,2.1s.2,2,.5,2.9c.3.8.8,1.4,1.5,1.8.4.2.9.4,1.4.4s.8,0,1.2-.2c.4-.2.7-.4.9-.7.3-.3.5-.6.6-.9.2-.3.3-.7.4-1.1.2-.6.2-1.3.2-2.1Z"/>
  <path class="st0" d="M183.4,63.5c-.5-.4-1-.6-1.6-.6-.9,0-1.5.3-1.9,1-.4.7-.6,1.5-.6,2.6v7.9h-2.1v-13.5h2v1.3c.3-.3.6-.6.8-.8.3-.2.6-.4,1-.6.4-.1.8-.2,1.2-.2.8,0,1.6.3,2.4.9l-1.2,2.1Z"/>
  <path class="st0" d="M161.6,65.2c0,.9,0,1.6.1,2.3,0,.7.2,1.4.4,2,.2.7.5,1.2.8,1.6.3.4.8.8,1.3,1.1.6.3,1.2.4,1.9.4s1.7-.2,2.3-.6c.6-.4,1.1-.9,1.5-1.6.2-.5.3-1,.3-1.6v-2.2h-4.1v-2h6.3v9.8h-1.8l-.2-1.7c-.4.6-1.1,1.1-1.8,1.5-.8.4-1.6.5-2.5.5-2.2,0-3.8-.9-5.1-2.6-1.2-1.7-1.8-4-1.8-6.9s.3-4,1-5.6,1.7-2.7,3-3.4c.9-.5,1.9-.7,3-.7,2.2,0,4,.9,5.2,2.8.4.6.7,1.2,1,2l-2.1.6c-.3-1.1-.8-1.9-1.5-2.5-.6-.6-1.5-.9-2.7-.9s-2.7.7-3.5,2.2c-.8,1.3-1.1,3.2-1.1,5.6Z"/>
  <path class="st0" d="M81.3,25.2c2.7-1.8,4.5-5,4.5-8.5,0-5.6-4.5-10.2-10-10.4h-18v41.7h18c6.4-.3,11.5-5.6,11.5-12v-.4c0-4.4-2.3-8.2-5.8-10.3ZM65.8,14h7.9c2.2,0,3.9,1.7,3.9,3.9s-1.7,3.9-3.9,3.9h-7.9v-7.8ZM79.2,34.8c0,3.1-2.5,5.6-5.6,5.6h-7.9v-11.2h7.9c3.1,0,5.6,2.5,5.6,5.6Z"/>
  <path class="st0" d="M99.8,15c2.6,0,4.6-2.1,4.6-4.6s-2.1-4.6-4.6-4.6-4.6,2.1-4.6,4.6,2.1,4.6,4.6,4.6Z"/>
  <path class="st0" d="M103.7,45.1l-3.9,3.9-3.9-3.9v-24.6h7.8v24.6Z"/>
  <path class="st0" d="M133.4,20.4h-20.6v6.6h10.5l-10.5,14.4h0c0,0,0,0,0,0v6.5h20.4v-6.5h-11.5l11.7-16.1v-4.9Z"/>
  <path class="st0" d="M148.8,48h-4.7V9.7l4.7-3.6v41.9Z"/>
  <path class="st0" d="M161.5,14.1c1.9,0,3.3-1.5,3.3-3.3s-1.5-3.3-3.3-3.3-3.3,1.5-3.3,3.3,1.5,3.3,3.3,3.3Z"/>
  <path class="st0" d="M163.5,20.4h-4.3v27.6h4.3v-27.6Z"/>
  <path class="st0" d="M195.1,29.4c-.2-5.3-1.9-9.4-9.2-9.4-2.9,0-5.5,1.5-7.2,3.8v-3.4h-4.3v27.6h4.3v-17.1c.5-3.9,2.5-6.7,6.1-6.7s5.8,2.8,6,6.7v17.1h4.4v-18.6Z"/>
  <path class="st0" d="M220.9,48h5.9l-13.4-14.8,12.7-12.8h-6.2c0,0-10.5,10.6-10.5,10.6V6.1l-4.6,3.6v38.2h4.6v-10.8l.9-.9,10.6,11.7Z"/>
  <path class="st0" d="M28.2,11.3H8.7C3.9,11.3,0,15.2,0,20v26.8c0,.4,0,.8.1,1.3H.1c0,0,5.4-6.7,5.4-6.7v-21.4c0-1.7,1.4-3.2,3.2-3.2h16.5c0,0,4.4-5.3,4.4-5.3-.5,0-.9-.1-1.4-.1Z"/>
  <path class="st0" d="M36.6,17.7l-5.2,6.2v22.8c0,1.7-1.4,3.2-3.2,3.2H10.8l-4.4,5.3c.7.2,1.5.3,2.2.3h19.5c4.7,0,8.7-3.9,8.6-8.6v-26.8c0-.8-.1-1.5-.3-2.2Z"/>
  <path class="st0" d="M36.5,5.2L40.6.1c-.4,0-.9-.1-1.3-.1h-18.7c-4.6,0-8.3,3.7-8.3,8.3v25.7c0,.4,0,.7,0,1.1h0l5.1-6.4h0c0,0,0-20.4,0-20.4,0-1.7,1.4-3,3.1-3h15.9Z"/>
  <path class="st0" d="M22.4,37l-4,4.9c.7.2,1.4.3,2.2.3h10.8v-5.2h-9Z"/>
  <path class="st0" d="M47.3,6.1l-5,6.1v21.6c0,1.7-1.4,3-3.1,3h-2.4v5.2h2.4c4.6,0,8.3-3.7,8.3-8.3V8.3c0-.7-.1-1.4-.3-2.1Z"/>
</svg>