<svg width="143" height="48" viewBox="0 0 143 48" fill="none" xmlns="http://www.w3.org/2000/svg">
<mask id="mask0_364_11" style="mask-type:luminance" maskUnits="userSpaceOnUse" x="1" y="0" width="33" height="46">
<path d="M2.09998 40.3C8.29998 34.6 13 29.8 16.1 25.9C19.2 22 20.8 18.5 20.8 15.4C20.8 12.3 20.3 11.8 19.3 10.7C18.3 9.6 16.8 9 15 9C13.2 9 12.3 9.40001 11.1 10.1C9.89998 10.9 8.69998 11.9 7.39998 13.3L1.59998 7.5C3.89998 5.1 6.19998 3.3 8.39998 2.2C10.7 1.1 13.4 0.5 16.4 0.5C19.4 0.5 21.8 1.1 24.1 2.2C26.3 3.4 28 5.00001 29.3 7.10001C30.5 9.20001 31.2 11.7 31.2 14.5C31.2 20.8 26.7 28.6 17.7 37.6C20.7 37.2 23.1 37 25.1 37H33.3V46H2.19997V39.9L2.09998 40.3Z" fill="white"/>
</mask>
<g mask="url(#mask0_364_11)">
<path d="M-53.8 54.5999L35 -34.1001" stroke="#DDDDDD" stroke-width="0.2"/>
<path d="M-34.8 54.5999L53.8999 -34.1001" stroke="#DDDDDD" stroke-width="0.2"/>
<path d="M-47.4 54.5999L41.3 -34.1001" stroke="#DDDDDD" stroke-width="0.2"/>
<path d="M-44.3 54.5999L44.3999 -34.1001" stroke="#DDDDDD" stroke-width="0.2"/>
<path d="M-41.1 54.5999L47.6 -34.1001" stroke="#DDDDDD" stroke-width="0.2"/>
<path d="M-38.0001 54.5999L50.6999 -34.1001" stroke="#DDDDDD" stroke-width="0.2"/>
<path d="M-50.6 54.5999L38.1 -34.1001" stroke="#DDDDDD" stroke-width="0.2"/>
<path d="M-31.7001 54.5999L56.9999 -34.1001" stroke="#DDDDDD" stroke-width="0.2"/>
<path d="M-28.5001 54.5999L60.1999 -34.1001" stroke="#DDDDDD" stroke-width="0.2"/>
<path d="M-25.4 54.5999L63.4 -34.1001" stroke="#DDDDDD" stroke-width="0.2"/>
<path d="M-22.2001 54.5999L66.4999 -34.1001" stroke="#DDDDDD" stroke-width="0.2"/>
<path d="M-19.0001 54.5999L69.6999 -34.1001" stroke="#DDDDDD" stroke-width="0.2"/>
<path d="M-0.100037 54.5999L88.6 -34.1001" stroke="#DDDDDD" stroke-width="0.2"/>
<path d="M-12.7001 54.5999L75.9999 -34.1001" stroke="#DDDDDD" stroke-width="0.2"/>
<path d="M-9.60004 54.5999L79.1 -34.1001" stroke="#DDDDDD" stroke-width="0.2"/>
<path d="M-6.40002 54.5999L82.3 -34.1001" stroke="#DDDDDD" stroke-width="0.2"/>
<path d="M-3.30005 54.5999L85.3999 -34.1001" stroke="#DDDDDD" stroke-width="0.2"/>
<path d="M-15.9 54.5999L72.8 -34.1001" stroke="#DDDDDD" stroke-width="0.2"/>
<path d="M2.99994 54.5999L91.7999 -34.1001" stroke="#DDDDDD" stroke-width="0.2"/>
<path d="M6.19995 54.5999L94.8999 -34.1001" stroke="#DDDDDD" stroke-width="0.2"/>
<path d="M9.39996 54.5999L98.1 -34.1001" stroke="#DDDDDD" stroke-width="0.2"/>
<path d="M12.4999 54.5999L101.2 -34.1001" stroke="#DDDDDD" stroke-width="0.2"/>
<path d="M15.7 54.5999L104.4 -34.1001" stroke="#DDDDDD" stroke-width="0.2"/>
<path d="M21.9999 54.5999L110.7 -34.1001" stroke="#DDDDDD" stroke-width="0.2"/>
<path d="M25.1 54.5999L113.8 -34.1001" stroke="#DDDDDD" stroke-width="0.2"/>
<path d="M28.2999 54.5999L117 -34.1001" stroke="#DDDDDD" stroke-width="0.2"/>
<path d="M31.4 54.5999L120.2 -34.1001" stroke="#DDDDDD" stroke-width="0.2"/>
<path d="M18.7999 54.5999L107.5 -34.1001" stroke="#DDDDDD" stroke-width="0.2"/>
</g>
<path d="M2.09998 40.3C8.29998 34.6 13 29.8 16.1 25.9C19.2 22 20.8 18.5 20.8 15.4C20.8 12.3 20.3 11.8 19.3 10.7C18.3 9.6 16.8 9 15 9C13.2 9 12.3 9.40001 11.1 10.1C9.89998 10.9 8.69998 11.9 7.39998 13.3L1.59998 7.5C3.89998 5.1 6.19998 3.3 8.39998 2.2C10.7 1.1 13.4 0.5 16.4 0.5C19.4 0.5 21.8 1.1 24.1 2.2C26.3 3.4 28 5.00001 29.3 7.10001C30.5 9.20001 31.2 11.7 31.2 14.5C31.2 20.8 26.7 28.6 17.7 37.6C20.7 37.2 23.1 37 25.1 37H33.3V46H2.19997V39.9L2.09998 40.3Z" stroke="#BBBABA" stroke-width="0.3" stroke-miterlimit="10"/>
<mask id="mask1_364_11" style="mask-type:luminance" maskUnits="userSpaceOnUse" x="37" y="0" width="33" height="48">
<path d="M45.4 44.5998C43 42.7998 41.2 40.0998 39.8 36.5998C38.5 33.0998 37.8 28.7998 37.8 23.7998C37.8 18.7998 38.5 14.4998 39.8 11.0998C41.1 7.59981 43 5.0998 45.3 3.3998C47.7 1.6998 50.5 0.799805 53.7 0.799805C56.9 0.799805 59.7 1.6998 62.1 3.3998C64.5 5.0998 66.3 7.69981 67.6 11.0998C68.9 14.4998 69.6 18.7998 69.6 23.7998C69.6 28.7998 68.9 33.0998 67.6 36.5998C66.3 40.0998 64.4 42.7998 62.1 44.5998C59.8 46.3998 56.9 47.2998 53.8 47.2998C50.7 47.2998 47.8 46.3998 45.5 44.5998H45.4ZM57.9 35.6998C58.9 33.4998 59.4 29.4998 59.4 23.7998C59.4 18.0998 58.9 14.1998 57.9 12.0998C56.9 9.99981 55.5 8.8998 53.7 8.8998C51.9 8.8998 50.5 9.99981 49.5 12.0998C48.5 14.1998 48 18.0998 48 23.7998C48 29.4998 48.5 33.4998 49.5 35.6998C50.5 37.8998 51.9 38.9998 53.7 38.9998C55.5 38.9998 56.9 37.8998 57.9 35.6998Z" fill="white"/>
</mask>
<g mask="url(#mask1_364_11)">
<path d="M-49.1 62.0999L39.6 -26.6001" stroke="#DDDDDD" stroke-width="0.2"/>
<path d="M-46 62.0999L42.7 -26.6001" stroke="#DDDDDD" stroke-width="0.2"/>
<path d="M-42.8 62.0999L45.9 -26.6001" stroke="#DDDDDD" stroke-width="0.2"/>
<path d="M-23.9 62.0999L64.8 -26.6001" stroke="#DDDDDD" stroke-width="0.2"/>
<path d="M-36.5 62.0999L52.2 -26.6001" stroke="#DDDDDD" stroke-width="0.2"/>
<path d="M-33.3 62.0999L55.4 -26.6001" stroke="#DDDDDD" stroke-width="0.2"/>
<path d="M-30.2 62.0999L58.5 -26.6001" stroke="#DDDDDD" stroke-width="0.2"/>
<path d="M-27 62.0999L61.7 -26.6001" stroke="#DDDDDD" stroke-width="0.2"/>
<path d="M-39.7 62.0999L49.1 -26.6001" stroke="#DDDDDD" stroke-width="0.2"/>
<path d="M-20.7 62.0999L68 -26.6001" stroke="#DDDDDD" stroke-width="0.2"/>
<path d="M-17.6 62.0999L71.1 -26.6001" stroke="#DDDDDD" stroke-width="0.2"/>
<path d="M-14.4 62.0999L74.3 -26.6001" stroke="#DDDDDD" stroke-width="0.2"/>
<path d="M-11.3 62.0999L77.5 -26.6001" stroke="#DDDDDD" stroke-width="0.2"/>
<path d="M-8.09998 62.0999L80.6 -26.6001" stroke="#DDDDDD" stroke-width="0.2"/>
<path d="M10.8 62.0999L99.5 -26.6001" stroke="#DDDDDD" stroke-width="0.2"/>
<path d="M-1.79999 62.0999L86.9 -26.6001" stroke="#DDDDDD" stroke-width="0.2"/>
<path d="M1.40002 62.0999L90.1 -26.6001" stroke="#DDDDDD" stroke-width="0.2"/>
<path d="M4.5 62.0999L93.2 -26.6001" stroke="#DDDDDD" stroke-width="0.2"/>
<path d="M7.70001 62.0999L96.4 -26.6001" stroke="#DDDDDD" stroke-width="0.2"/>
<path d="M-4.90002 62.0999L83.8 -26.6001" stroke="#DDDDDD" stroke-width="0.2"/>
<path d="M14 62.0999L102.7 -26.6001" stroke="#DDDDDD" stroke-width="0.2"/>
<path d="M17.1 62.0999L105.9 -26.6001" stroke="#DDDDDD" stroke-width="0.2"/>
<path d="M20.3 62.0999L109 -26.6001" stroke="#DDDDDD" stroke-width="0.2"/>
<path d="M23.5 62.0999L112.2 -26.6001" stroke="#DDDDDD" stroke-width="0.2"/>
<path d="M26.6 62.0999L115.3 -26.6001" stroke="#DDDDDD" stroke-width="0.2"/>
<path d="M45.5 62.0999L134.3 -26.6001" stroke="#DDDDDD" stroke-width="0.2"/>
<path d="M32.9 62.0999L121.6 -26.6001" stroke="#DDDDDD" stroke-width="0.2"/>
<path d="M36.1 62.0999L124.8 -26.6001" stroke="#DDDDDD" stroke-width="0.2"/>
<path d="M39.2 62.0999L127.9 -26.6001" stroke="#DDDDDD" stroke-width="0.2"/>
<path d="M42.4 62.0999L131.1 -26.6001" stroke="#DDDDDD" stroke-width="0.2"/>
<path d="M29.8 62.0999L118.5 -26.6001" stroke="#DDDDDD" stroke-width="0.2"/>
<path d="M48.7 62.0999L137.4 -26.6001" stroke="#DDDDDD" stroke-width="0.2"/>
<path d="M51.9 62.0999L140.6 -26.6001" stroke="#DDDDDD" stroke-width="0.2"/>
<path d="M55 62.0999L143.7 -26.6001" stroke="#DDDDDD" stroke-width="0.2"/>
<path d="M58.2 62.0999L146.9 -26.6001" stroke="#DDDDDD" stroke-width="0.2"/>
<path d="M61.3 62.0999L150 -26.6001" stroke="#DDDDDD" stroke-width="0.2"/>
<path d="M64.5 62.0999L153.2 -26.6001" stroke="#DDDDDD" stroke-width="0.2"/>
<path d="M67.6 62.0999L156.3 -26.6001" stroke="#DDDDDD" stroke-width="0.2"/>
</g>
<path d="M45.4 44.5998C43 42.7998 41.2 40.0998 39.8 36.5998C38.5 33.0998 37.8 28.7998 37.8 23.7998C37.8 18.7998 38.5 14.4998 39.8 11.0998C41.1 7.59981 43 5.0998 45.3 3.3998C47.7 1.6998 50.5 0.799805 53.7 0.799805C56.9 0.799805 59.7 1.6998 62.1 3.3998C64.5 5.0998 66.3 7.69981 67.6 11.0998C68.9 14.4998 69.6 18.7998 69.6 23.7998C69.6 28.7998 68.9 33.0998 67.6 36.5998C66.3 40.0998 64.4 42.7998 62.1 44.5998C59.8 46.3998 56.9 47.2998 53.8 47.2998C50.7 47.2998 47.8 46.3998 45.5 44.5998H45.4ZM57.9 35.6998C58.9 33.4998 59.4 29.4998 59.4 23.7998C59.4 18.0998 58.9 14.1998 57.9 12.0998C56.9 9.99981 55.5 8.8998 53.7 8.8998C51.9 8.8998 50.5 9.99981 49.5 12.0998C48.5 14.1998 48 18.0998 48 23.7998C48 29.4998 48.5 33.4998 49.5 35.6998C50.5 37.8998 51.9 38.9998 53.7 38.9998C55.5 38.9998 56.9 37.8998 57.9 35.6998Z" stroke="#BBBABA" stroke-width="0.3" stroke-miterlimit="10"/>
<mask id="mask2_364_11" style="mask-type:luminance" maskUnits="userSpaceOnUse" x="76" y="1" width="29" height="46">
<path d="M76.7 37.8001H86.2V12.3001H77.9V5.70009C80.3 5.30009 82.3 4.7001 84 4.1001C85.7 3.5001 87.4 2.6001 89 1.6001H96.9V37.8001H105V46.5001H76.7V37.8001Z" fill="white"/>
</mask>
<g mask="url(#mask2_364_11)">
<path d="M-5.99994 64.5999L82.8001 -24.1001" stroke="#DDDDDD" stroke-width="0.2"/>
<path d="M-9.09998 64.5999L79.6 -24.1001" stroke="#DDDDDD" stroke-width="0.2"/>
<path d="M-2.79999 64.5999L85.9 -24.1001" stroke="#DDDDDD" stroke-width="0.2"/>
<path d="M0.400024 64.5999L89.1 -24.1001" stroke="#DDDDDD" stroke-width="0.2"/>
<path d="M3.50006 64.5999L92.2001 -24.1001" stroke="#DDDDDD" stroke-width="0.2"/>
<path d="M6.70001 64.5999L95.4 -24.1001" stroke="#DDDDDD" stroke-width="0.2"/>
<path d="M9.80005 64.5999L98.5 -24.1001" stroke="#DDDDDD" stroke-width="0.2"/>
<path d="M28.8 64.5999L117.5 -24.1001" stroke="#DDDDDD" stroke-width="0.2"/>
<path d="M16.1 64.5999L104.8 -24.1001" stroke="#DDDDDD" stroke-width="0.2"/>
<path d="M19.3 64.5999L108 -24.1001" stroke="#DDDDDD" stroke-width="0.2"/>
<path d="M22.4 64.5999L111.2 -24.1001" stroke="#DDDDDD" stroke-width="0.2"/>
<path d="M25.6 64.5999L114.3 -24.1001" stroke="#DDDDDD" stroke-width="0.2"/>
<path d="M13.0001 64.5999L101.7 -24.1001" stroke="#DDDDDD" stroke-width="0.2"/>
<path d="M31.9 64.5999L120.6 -24.1001" stroke="#DDDDDD" stroke-width="0.2"/>
<path d="M35.1 64.5999L123.8 -24.1001" stroke="#DDDDDD" stroke-width="0.2"/>
<path d="M38.2 64.5999L126.9 -24.1001" stroke="#DDDDDD" stroke-width="0.2"/>
<path d="M41.4 64.5999L130.1 -24.1001" stroke="#DDDDDD" stroke-width="0.2"/>
<path d="M44.5001 64.5999L133.2 -24.1001" stroke="#DDDDDD" stroke-width="0.2"/>
<path d="M63.5001 64.5999L152.2 -24.1001" stroke="#DDDDDD" stroke-width="0.2"/>
<path d="M50.8 64.5999L139.6 -24.1001" stroke="#DDDDDD" stroke-width="0.2"/>
<path d="M54.0001 64.5999L142.7 -24.1001" stroke="#DDDDDD" stroke-width="0.2"/>
<path d="M57.2 64.5999L145.9 -24.1001" stroke="#DDDDDD" stroke-width="0.2"/>
<path d="M60.3 64.5999L149 -24.1001" stroke="#DDDDDD" stroke-width="0.2"/>
<path d="M47.7 64.5999L136.4 -24.1001" stroke="#DDDDDD" stroke-width="0.2"/>
<path d="M66.6 64.5999L155.3 -24.1001" stroke="#DDDDDD" stroke-width="0.2"/>
<path d="M69.8 64.5999L158.5 -24.1001" stroke="#DDDDDD" stroke-width="0.2"/>
<path d="M72.9 64.5999L161.6 -24.1001" stroke="#DDDDDD" stroke-width="0.2"/>
<path d="M76.1 64.5999L164.8 -24.1001" stroke="#DDDDDD" stroke-width="0.2"/>
<path d="M79.2 64.5999L168 -24.1001" stroke="#DDDDDD" stroke-width="0.2"/>
<path d="M98.2 64.5999L186.9 -24.1001" stroke="#DDDDDD" stroke-width="0.2"/>
<path d="M85.6 64.5999L174.3 -24.1001" stroke="#DDDDDD" stroke-width="0.2"/>
<path d="M88.7 64.5999L177.4 -24.1001" stroke="#DDDDDD" stroke-width="0.2"/>
<path d="M91.9 64.5999L180.6 -24.1001" stroke="#DDDDDD" stroke-width="0.2"/>
<path d="M95.0001 64.5999L183.7 -24.1001" stroke="#DDDDDD" stroke-width="0.2"/>
<path d="M82.4 64.5999L171.1 -24.1001" stroke="#DDDDDD" stroke-width="0.2"/>
<path d="M101.3 64.5999L190 -24.1001" stroke="#DDDDDD" stroke-width="0.2"/>
<path d="M104.5 64.5999L193.2 -24.1001" stroke="#DDDDDD" stroke-width="0.2"/>
</g>
<path d="M76.7 37.8001H86.2V12.3001H77.9V5.70009C80.3 5.30009 82.3 4.7001 84 4.1001C85.7 3.5001 87.4 2.6001 89 1.6001H96.9V37.8001H105V46.5001H76.7V37.8001Z" stroke="#BBBABA" stroke-width="0.3" stroke-miterlimit="10"/>
<mask id="mask3_364_11" style="mask-type:luminance" maskUnits="userSpaceOnUse" x="110" y="1" width="32" height="47">
<path d="M110.2 41.1L115.1 34.3C118.1 37.2 121.2 38.6 124.3 38.6C127.4 38.6 128.2 38 129.5 36.8C130.7 35.6 131.4 33.9 131.4 31.6C131.4 29.3 130.8 27.7 129.6 26.5C128.4 25.3 126.8 24.7 124.8 24.7C122.8 24.7 122.6 24.8 121.8 25.1C121 25.4 119.9 26 118.5 26.8L113.8 23.7L114.9 1.5H140.1V10.5H124.1L123.4 18.1C124.9 17.5 126.4 17.2 128 17.2C130.6 17.2 133 17.7 135.1 18.8C137.2 19.8 138.9 21.4 140.1 23.5C141.3 25.6 142 28.2 142 31.4C142 34.6 141.3 37.5 139.8 39.9C138.3 42.3 136.4 44.1 133.9 45.4C131.4 46.7 128.7 47.3 125.8 47.3C119.6 47.3 114.3 45.2 110.1 41.1H110.2Z" fill="white"/>
</mask>
<g mask="url(#mask3_364_11)">
<path d="M21.9 65.5999L110.6 -23.1001" stroke="#DDDDDD" stroke-width="0.2"/>
<path d="M25.1 65.5999L113.8 -23.1001" stroke="#DDDDDD" stroke-width="0.2"/>
<path d="M28.2 65.5999L116.9 -23.1001" stroke="#DDDDDD" stroke-width="0.2"/>
<path d="M31.4 65.5999L120.1 -23.1001" stroke="#DDDDDD" stroke-width="0.2"/>
<path d="M50.2999 65.5999L139 -23.1001" stroke="#DDDDDD" stroke-width="0.2"/>
<path d="M37.7 65.5999L126.4 -23.1001" stroke="#DDDDDD" stroke-width="0.2"/>
<path d="M40.7999 65.5999L129.6 -23.1001" stroke="#DDDDDD" stroke-width="0.2"/>
<path d="M43.9999 65.5999L132.7 -23.1001" stroke="#DDDDDD" stroke-width="0.2"/>
<path d="M47.2 65.5999L135.9 -23.1001" stroke="#DDDDDD" stroke-width="0.2"/>
<path d="M34.4999 65.5999L123.2 -23.1001" stroke="#DDDDDD" stroke-width="0.2"/>
<path d="M53.4999 65.5999L142.2 -23.1001" stroke="#DDDDDD" stroke-width="0.2"/>
<path d="M56.6 65.5999L145.3 -23.1001" stroke="#DDDDDD" stroke-width="0.2"/>
<path d="M59.7999 65.5999L148.5 -23.1001" stroke="#DDDDDD" stroke-width="0.2"/>
<path d="M62.9 65.5999L151.6 -23.1001" stroke="#DDDDDD" stroke-width="0.2"/>
<path d="M66.1 65.5999L154.8 -23.1001" stroke="#DDDDDD" stroke-width="0.2"/>
<path d="M84.9999 65.5999L173.7 -23.1001" stroke="#DDDDDD" stroke-width="0.2"/>
<path d="M72.4 65.5999L161.1 -23.1001" stroke="#DDDDDD" stroke-width="0.2"/>
<path d="M75.6 65.5999L164.3 -23.1001" stroke="#DDDDDD" stroke-width="0.2"/>
<path d="M78.7 65.5999L167.4 -23.1001" stroke="#DDDDDD" stroke-width="0.2"/>
<path d="M81.9 65.5999L170.6 -23.1001" stroke="#DDDDDD" stroke-width="0.2"/>
<path d="M69.2 65.5999L158 -23.1001" stroke="#DDDDDD" stroke-width="0.2"/>
<path d="M88.2 65.5999L176.9 -23.1001" stroke="#DDDDDD" stroke-width="0.2"/>
<path d="M91.2999 65.5999L180 -23.1001" stroke="#DDDDDD" stroke-width="0.2"/>
<path d="M94.4999 65.5999L183.2 -23.1001" stroke="#DDDDDD" stroke-width="0.2"/>
<path d="M97.6 65.5999L186.4 -23.1001" stroke="#DDDDDD" stroke-width="0.2"/>
<path d="M100.8 65.5999L189.5 -23.1001" stroke="#DDDDDD" stroke-width="0.2"/>
<path d="M119.7 65.5999L208.4 -23.1001" stroke="#DDDDDD" stroke-width="0.2"/>
<path d="M107.1 65.5999L195.8 -23.1001" stroke="#DDDDDD" stroke-width="0.2"/>
<path d="M110.3 65.5999L199 -23.1001" stroke="#DDDDDD" stroke-width="0.2"/>
<path d="M113.4 65.5999L202.1 -23.1001" stroke="#DDDDDD" stroke-width="0.2"/>
<path d="M116.6 65.5999L205.3 -23.1001" stroke="#DDDDDD" stroke-width="0.2"/>
<path d="M104 65.5999L192.7 -23.1001" stroke="#DDDDDD" stroke-width="0.2"/>
<path d="M122.9 65.5999L211.6 -23.1001" stroke="#DDDDDD" stroke-width="0.2"/>
<path d="M126 65.5999L214.8 -23.1001" stroke="#DDDDDD" stroke-width="0.2"/>
<path d="M129.2 65.5999L217.9 -23.1001" stroke="#DDDDDD" stroke-width="0.2"/>
<path d="M132.4 65.5999L221.1 -23.1001" stroke="#DDDDDD" stroke-width="0.2"/>
<path d="M135.5 65.5999L224.2 -23.1001" stroke="#DDDDDD" stroke-width="0.2"/>
<path d="M138.7 65.5999L227.4 -23.1001" stroke="#DDDDDD" stroke-width="0.2"/>
<path d="M141.8 65.5999L230.5 -23.1001" stroke="#DDDDDD" stroke-width="0.2"/>
</g>
<path d="M110.2 41.1L115.1 34.3C118.1 37.2 121.2 38.6 124.3 38.6C127.4 38.6 128.2 38 129.5 36.8C130.7 35.6 131.4 33.9 131.4 31.6C131.4 29.3 130.8 27.7 129.6 26.5C128.4 25.3 126.8 24.7 124.8 24.7C122.8 24.7 122.6 24.8 121.8 25.1C121 25.4 119.9 26 118.5 26.8L113.8 23.7L114.9 1.5H140.1V10.5H124.1L123.4 18.1C124.9 17.5 126.4 17.2 128 17.2C130.6 17.2 133 17.7 135.1 18.8C137.2 19.8 138.9 21.4 140.1 23.5C141.3 25.6 142 28.2 142 31.4C142 34.6 141.3 37.5 139.8 39.9C138.3 42.3 136.4 44.1 133.9 45.4C131.4 46.7 128.7 47.3 125.8 47.3C119.6 47.3 114.3 45.2 110.1 41.1H110.2Z" stroke="#BBBABA" stroke-width="0.3" stroke-miterlimit="10"/>
</svg>
