<svg width="142" height="48" viewBox="0 0 142 48" fill="none" xmlns="http://www.w3.org/2000/svg">
<g clip-path="url(#clip0_374_773)">
<mask id="mask0_374_773" style="mask-type:luminance" maskUnits="userSpaceOnUse" x="0" y="0" width="33" height="47">
<path d="M1.09998 40.4001C7.29998 34.7001 12 29.9001 15.1 26.0001C18.2 22.1001 19.8 18.6001 19.8 15.5001C19.8 12.4001 19.3 11.9001 18.3 10.8001C17.3 9.7001 15.8 9.10011 14 9.10011C12.2 9.10011 11.3 9.5001 10.1 10.2001C8.89998 11.0001 7.69998 12.0001 6.39998 13.4001L0.599976 7.60011C2.89998 5.20011 5.19998 3.4001 7.39998 2.3001C9.69998 1.2001 12.4 0.600098 15.4 0.600098C18.4 0.600098 20.8 1.2001 23.1 2.3001C25.3 3.5001 27 5.1001 28.3 7.2001C29.5 9.3001 30.2 11.8001 30.2 14.6001C30.2 20.9001 25.7 28.7001 16.7 37.7001C19.7 37.3001 22.1 37.1001 24.1 37.1001H32.3V46.1001H1.19997V40.0001L1.09998 40.4001Z" fill="white"/>
</mask>
<g mask="url(#mask0_374_773)">
<path d="M-54.8 54.7L33.8999 -34" stroke="#DDDDDD" stroke-width="0.2"/>
<path d="M-35.9 54.7L52.8 -34" stroke="#DDDDDD" stroke-width="0.2"/>
<path d="M-48.5001 54.7L40.1999 -34" stroke="#DDDDDD" stroke-width="0.2"/>
<path d="M-45.3 54.7L43.3999 -34" stroke="#DDDDDD" stroke-width="0.2"/>
<path d="M-42.2001 54.7L46.4999 -34" stroke="#DDDDDD" stroke-width="0.2"/>
<path d="M-39.0001 54.7L49.6999 -34" stroke="#DDDDDD" stroke-width="0.2"/>
<path d="M-51.7001 54.7L37.0999 -34" stroke="#DDDDDD" stroke-width="0.2"/>
<path d="M-32.7001 54.7L55.9999 -34" stroke="#DDDDDD" stroke-width="0.2"/>
<path d="M-29.6 54.7L59.1 -34" stroke="#DDDDDD" stroke-width="0.2"/>
<path d="M-26.4 54.7L62.3 -34" stroke="#DDDDDD" stroke-width="0.2"/>
<path d="M-23.3 54.7L65.5 -34" stroke="#DDDDDD" stroke-width="0.2"/>
<path d="M-20.1 54.7L68.6 -34" stroke="#DDDDDD" stroke-width="0.2"/>
<path d="M-1.20007 54.7L87.5999 -34" stroke="#DDDDDD" stroke-width="0.2"/>
<path d="M-13.8 54.7L74.8999 -34" stroke="#DDDDDD" stroke-width="0.2"/>
<path d="M-10.6 54.7L78.1 -34" stroke="#DDDDDD" stroke-width="0.2"/>
<path d="M-7.50006 54.7L81.1999 -34" stroke="#DDDDDD" stroke-width="0.2"/>
<path d="M-4.30005 54.7L84.3999 -34" stroke="#DDDDDD" stroke-width="0.2"/>
<path d="M-16.9 54.7L71.8 -34" stroke="#DDDDDD" stroke-width="0.2"/>
<path d="M1.99994 54.7L90.6999 -34" stroke="#DDDDDD" stroke-width="0.2"/>
<path d="M5.09998 54.7L93.9 -34" stroke="#DDDDDD" stroke-width="0.2"/>
<path d="M8.29993 54.7L96.9999 -34" stroke="#DDDDDD" stroke-width="0.2"/>
<path d="M11.4999 54.7L100.2 -34" stroke="#DDDDDD" stroke-width="0.2"/>
<path d="M14.6 54.7L103.3 -34" stroke="#DDDDDD" stroke-width="0.2"/>
<path d="M20.9 54.7L109.6 -34" stroke="#DDDDDD" stroke-width="0.2"/>
<path d="M24.1 54.7L112.8 -34" stroke="#DDDDDD" stroke-width="0.2"/>
<path d="M27.2 54.7L116 -34" stroke="#DDDDDD" stroke-width="0.2"/>
<path d="M30.4 54.7L119.1 -34" stroke="#DDDDDD" stroke-width="0.2"/>
<path d="M17.7999 54.7L106.5 -34" stroke="#DDDDDD" stroke-width="0.2"/>
</g>
<path d="M1.09998 40.4001C7.29998 34.7001 12 29.9001 15.1 26.0001C18.2 22.1001 19.8 18.6001 19.8 15.5001C19.8 12.4001 19.3 11.9001 18.3 10.8001C17.3 9.7001 15.8 9.10011 14 9.10011C12.2 9.10011 11.3 9.5001 10.1 10.2001C8.89998 11.0001 7.69998 12.0001 6.39998 13.4001L0.599976 7.60011C2.89998 5.20011 5.19998 3.4001 7.39998 2.3001C9.69998 1.2001 12.4 0.600098 15.4 0.600098C18.4 0.600098 20.8 1.2001 23.1 2.3001C25.3 3.5001 27 5.1001 28.3 7.2001C29.5 9.3001 30.2 11.8001 30.2 14.6001C30.2 20.9001 25.7 28.7001 16.7 37.7001C19.7 37.3001 22.1 37.1001 24.1 37.1001H32.3V46.1001H1.19997V40.0001L1.09998 40.4001Z" stroke="#BBBABA" stroke-width="0.3" stroke-miterlimit="10"/>
<mask id="mask1_374_773" style="mask-type:luminance" maskUnits="userSpaceOnUse" x="36" y="0" width="33" height="48">
<path d="M44.3 44.6999C41.9 42.8999 40.1 40.1999 38.7 36.6999C37.4 33.1999 36.7 28.8999 36.7 23.8999C36.7 18.8999 37.4 14.5999 38.7 11.1999C40 7.6999 41.9 5.1999 44.2 3.4999C46.6 1.7999 49.4 0.899902 52.6 0.899902C55.8 0.899902 58.6 1.7999 61 3.4999C63.4 5.1999 65.2 7.7999 66.5 11.1999C67.8 14.5999 68.5 18.8999 68.5 23.8999C68.5 28.8999 67.8 33.1999 66.5 36.6999C65.2 40.1999 63.3 42.8999 61 44.6999C58.7 46.4999 55.8 47.3999 52.7 47.3999C49.6 47.3999 46.7 46.4999 44.4 44.6999H44.3ZM56.9 35.6999C57.9 33.4999 58.4 29.4999 58.4 23.7999C58.4 18.0999 57.9 14.1999 56.9 12.0999C55.9 9.99991 54.5 8.89989 52.7 8.89989C50.9 8.89989 49.5 9.99991 48.5 12.0999C47.5 14.1999 47 18.0999 47 23.7999C47 29.4999 47.5 33.4999 48.5 35.6999C49.5 37.8999 50.9 38.9999 52.7 38.9999C54.5 38.9999 55.9 37.8999 56.9 35.6999Z" fill="white"/>
</mask>
<g mask="url(#mask1_374_773)">
<path d="M-50.2 62.2L38.5 -26.5" stroke="#DDDDDD" stroke-width="0.2"/>
<path d="M-47 62.2L41.7 -26.5" stroke="#DDDDDD" stroke-width="0.2"/>
<path d="M-43.9 62.2L44.9 -26.5" stroke="#DDDDDD" stroke-width="0.2"/>
<path d="M-24.9 62.2L63.8 -26.5" stroke="#DDDDDD" stroke-width="0.2"/>
<path d="M-37.6 62.2L51.2 -26.5" stroke="#DDDDDD" stroke-width="0.2"/>
<path d="M-34.4 62.2L54.3 -26.5" stroke="#DDDDDD" stroke-width="0.2"/>
<path d="M-31.2 62.2L57.5 -26.5" stroke="#DDDDDD" stroke-width="0.2"/>
<path d="M-28.1 62.2L60.6 -26.5" stroke="#DDDDDD" stroke-width="0.2"/>
<path d="M-40.7 62.2L48 -26.5" stroke="#DDDDDD" stroke-width="0.2"/>
<path d="M-21.8 62.2L66.9 -26.5" stroke="#DDDDDD" stroke-width="0.2"/>
<path d="M-18.6 62.2L70.1 -26.5" stroke="#DDDDDD" stroke-width="0.2"/>
<path d="M-15.5 62.2L73.3 -26.5" stroke="#DDDDDD" stroke-width="0.2"/>
<path d="M-12.3 62.2L76.4 -26.5" stroke="#DDDDDD" stroke-width="0.2"/>
<path d="M-9.19995 62.2L79.6001 -26.5" stroke="#DDDDDD" stroke-width="0.2"/>
<path d="M9.80005 62.2L98.5 -26.5" stroke="#DDDDDD" stroke-width="0.2"/>
<path d="M-2.79999 62.2L85.9 -26.5" stroke="#DDDDDD" stroke-width="0.2"/>
<path d="M0.300049 62.2L89 -26.5" stroke="#DDDDDD" stroke-width="0.2"/>
<path d="M3.5 62.2L92.2 -26.5" stroke="#DDDDDD" stroke-width="0.2"/>
<path d="M6.60004 62.2L95.3 -26.5" stroke="#DDDDDD" stroke-width="0.2"/>
<path d="M-6 62.2L82.7 -26.5" stroke="#DDDDDD" stroke-width="0.2"/>
<path d="M12.9 62.2L101.7 -26.5" stroke="#DDDDDD" stroke-width="0.2"/>
<path d="M16.1 62.2L104.8 -26.5" stroke="#DDDDDD" stroke-width="0.2"/>
<path d="M19.3 62.2L108 -26.5" stroke="#DDDDDD" stroke-width="0.2"/>
<path d="M22.4 62.2L111.1 -26.5" stroke="#DDDDDD" stroke-width="0.2"/>
<path d="M25.6 62.2L114.3 -26.5" stroke="#DDDDDD" stroke-width="0.2"/>
<path d="M44.5 62.2L133.2 -26.5" stroke="#DDDDDD" stroke-width="0.2"/>
<path d="M31.9 62.2L120.6 -26.5" stroke="#DDDDDD" stroke-width="0.2"/>
<path d="M35 62.2L123.7 -26.5" stroke="#DDDDDD" stroke-width="0.2"/>
<path d="M38.2 62.2L126.9 -26.5" stroke="#DDDDDD" stroke-width="0.2"/>
<path d="M41.3 62.2L130.1 -26.5" stroke="#DDDDDD" stroke-width="0.2"/>
<path d="M28.7 62.2L117.4 -26.5" stroke="#DDDDDD" stroke-width="0.2"/>
<path d="M47.7 62.2L136.4 -26.5" stroke="#DDDDDD" stroke-width="0.2"/>
<path d="M50.8 62.2L139.5 -26.5" stroke="#DDDDDD" stroke-width="0.2"/>
<path d="M54 62.2L142.7 -26.5" stroke="#DDDDDD" stroke-width="0.2"/>
<path d="M57.1 62.2L145.8 -26.5" stroke="#DDDDDD" stroke-width="0.2"/>
<path d="M60.3 62.2L149 -26.5" stroke="#DDDDDD" stroke-width="0.2"/>
<path d="M63.4 62.2L152.1 -26.5" stroke="#DDDDDD" stroke-width="0.2"/>
<path d="M66.6 62.2L155.3 -26.5" stroke="#DDDDDD" stroke-width="0.2"/>
</g>
<path d="M44.3 44.6999C41.9 42.8999 40.1 40.1999 38.7 36.6999C37.4 33.1999 36.7 28.8999 36.7 23.8999C36.7 18.8999 37.4 14.5999 38.7 11.1999C40 7.6999 41.9 5.1999 44.2 3.4999C46.6 1.7999 49.4 0.899902 52.6 0.899902C55.8 0.899902 58.6 1.7999 61 3.4999C63.4 5.1999 65.2 7.7999 66.5 11.1999C67.8 14.5999 68.5 18.8999 68.5 23.8999C68.5 28.8999 67.8 33.1999 66.5 36.6999C65.2 40.1999 63.3 42.8999 61 44.6999C58.7 46.4999 55.8 47.3999 52.7 47.3999C49.6 47.3999 46.7 46.4999 44.4 44.6999H44.3ZM56.9 35.6999C57.9 33.4999 58.4 29.4999 58.4 23.7999C58.4 18.0999 57.9 14.1999 56.9 12.0999C55.9 9.99991 54.5 8.89989 52.7 8.89989C50.9 8.89989 49.5 9.99991 48.5 12.0999C47.5 14.1999 47 18.0999 47 23.7999C47 29.4999 47.5 33.4999 48.5 35.6999C49.5 37.8999 50.9 38.9999 52.7 38.9999C54.5 38.9999 55.9 37.8999 56.9 35.6999Z" stroke="#BBBABA" stroke-width="0.3" stroke-miterlimit="10"/>
<mask id="mask2_374_773" style="mask-type:luminance" maskUnits="userSpaceOnUse" x="75" y="1" width="29" height="46">
<path d="M75.7 37.9002H85.2V12.4002H76.9V5.8002C79.3 5.4002 81.3 4.8002 83 4.2002C84.7 3.6002 86.4 2.7002 88 1.7002H95.9V37.9002H104V46.6002H75.7V37.9002Z" fill="white"/>
</mask>
<g mask="url(#mask2_374_773)">
<path d="M-6.99994 64.7L81.7001 -24" stroke="#DDDDDD" stroke-width="0.2"/>
<path d="M-10.2 64.7L78.6001 -24" stroke="#DDDDDD" stroke-width="0.2"/>
<path d="M-3.89996 64.7L84.9 -24" stroke="#DDDDDD" stroke-width="0.2"/>
<path d="M-0.699951 64.7L88 -24" stroke="#DDDDDD" stroke-width="0.2"/>
<path d="M2.50006 64.7L91.2001 -24" stroke="#DDDDDD" stroke-width="0.2"/>
<path d="M5.60004 64.7L94.3 -24" stroke="#DDDDDD" stroke-width="0.2"/>
<path d="M8.80005 64.7L97.5 -24" stroke="#DDDDDD" stroke-width="0.2"/>
<path d="M27.7 64.7L116.4 -24" stroke="#DDDDDD" stroke-width="0.2"/>
<path d="M15.1 64.7L103.8 -24" stroke="#DDDDDD" stroke-width="0.2"/>
<path d="M18.2 64.7L107 -24" stroke="#DDDDDD" stroke-width="0.2"/>
<path d="M21.4 64.7L110.1 -24" stroke="#DDDDDD" stroke-width="0.2"/>
<path d="M24.5001 64.7L113.3 -24" stroke="#DDDDDD" stroke-width="0.2"/>
<path d="M11.9 64.7L100.6 -24" stroke="#DDDDDD" stroke-width="0.2"/>
<path d="M30.9 64.7L119.6 -24" stroke="#DDDDDD" stroke-width="0.2"/>
<path d="M34.0001 64.7L122.7 -24" stroke="#DDDDDD" stroke-width="0.2"/>
<path d="M37.2 64.7L125.9 -24" stroke="#DDDDDD" stroke-width="0.2"/>
<path d="M40.3 64.7L129 -24" stroke="#DDDDDD" stroke-width="0.2"/>
<path d="M43.5001 64.7L132.2 -24" stroke="#DDDDDD" stroke-width="0.2"/>
<path d="M62.4 64.7L151.1 -24" stroke="#DDDDDD" stroke-width="0.2"/>
<path d="M49.8 64.7L138.5 -24" stroke="#DDDDDD" stroke-width="0.2"/>
<path d="M53.0001 64.7L141.7 -24" stroke="#DDDDDD" stroke-width="0.2"/>
<path d="M56.1 64.7L144.8 -24" stroke="#DDDDDD" stroke-width="0.2"/>
<path d="M59.3 64.7L148 -24" stroke="#DDDDDD" stroke-width="0.2"/>
<path d="M46.6 64.7L135.4 -24" stroke="#DDDDDD" stroke-width="0.2"/>
<path d="M65.6 64.7L154.3 -24" stroke="#DDDDDD" stroke-width="0.2"/>
<path d="M68.7 64.7L157.4 -24" stroke="#DDDDDD" stroke-width="0.2"/>
<path d="M71.9 64.7L160.6 -24" stroke="#DDDDDD" stroke-width="0.2"/>
<path d="M75.0001 64.7L163.8 -24" stroke="#DDDDDD" stroke-width="0.2"/>
<path d="M78.2 64.7L166.9 -24" stroke="#DDDDDD" stroke-width="0.2"/>
<path d="M97.1 64.7L185.8 -24" stroke="#DDDDDD" stroke-width="0.2"/>
<path d="M84.5001 64.7L173.2 -24" stroke="#DDDDDD" stroke-width="0.2"/>
<path d="M87.7 64.7L176.4 -24" stroke="#DDDDDD" stroke-width="0.2"/>
<path d="M90.8 64.7L179.5 -24" stroke="#DDDDDD" stroke-width="0.2"/>
<path d="M94.0001 64.7L182.7 -24" stroke="#DDDDDD" stroke-width="0.2"/>
<path d="M81.4 64.7L170.1 -24" stroke="#DDDDDD" stroke-width="0.2"/>
<path d="M100.3 64.7L189 -24" stroke="#DDDDDD" stroke-width="0.2"/>
<path d="M103.4 64.7L192.2 -24" stroke="#DDDDDD" stroke-width="0.2"/>
</g>
<path d="M75.7 37.9002H85.2V12.4002H76.9V5.8002C79.3 5.4002 81.3 4.8002 83 4.2002C84.7 3.6002 86.4 2.7002 88 1.7002H95.9V37.9002H104V46.6002H75.7V37.9002Z" stroke="#BBBABA" stroke-width="0.3" stroke-miterlimit="10"/>
<mask id="mask3_374_773" style="mask-type:luminance" maskUnits="userSpaceOnUse" x="109" y="1" width="32" height="47">
<path d="M118 45.3998C115.5 43.7998 113.4 41.2998 111.9 37.7998C110.4 34.2998 109.5 30.0998 109.5 24.8998C109.5 19.6998 110.3 15.3998 111.9 11.7998C113.5 8.2998 115.7 5.5998 118.4 3.8998C121.1 2.1998 124.1 1.2998 127.3 1.2998C130.5 1.2998 132.6 1.7998 134.7 2.7998C136.9 3.7998 138.8 5.0998 140.3 6.6998L134.6 12.9998C133.8 12.1998 132.8 11.3998 131.6 10.7998C130.3 10.1998 129.1 9.8998 128 9.8998C125.5 9.8998 123.4 10.8998 121.9 12.9998C120.4 14.9998 119.5 18.3998 119.3 22.9998C120.3 21.6998 121.7 20.5998 123.3 19.7998C124.9 18.9998 126.5 18.5998 127.8 18.5998C131.7 18.5998 134.9 19.7998 137.3 22.0998C139.7 24.3998 140.9 27.9998 140.9 32.5998C140.9 37.1998 140.2 38.3998 138.9 40.6998C137.6 42.9998 135.8 44.7998 133.5 45.9998C131.2 47.1998 128.8 47.7998 126.1 47.7998C123.4 47.7998 120.4 46.9998 117.8 45.3998H118ZM122.3 26.9998C121.2 27.6998 120.2 28.6998 119.5 29.9998C119.9 33.4998 120.7 35.8998 121.9 37.3998C123.1 38.8998 124.5 39.6998 126.1 39.6998C127.7 39.6998 128.9 39.0998 129.9 37.8998C130.9 36.6998 131.4 34.8998 131.4 32.4998C131.4 30.0998 130.9 28.5998 129.9 27.4998C128.9 26.4998 127.6 25.9998 126 25.9998C124.4 25.9998 123.6 26.2998 122.5 26.9998H122.3Z" fill="white"/>
</mask>
<g mask="url(#mask3_374_773)">
<path d="M27.1 69.2996L115.8 -19.4004" stroke="#DDDDDD" stroke-width="0.2"/>
<path d="M20.8 69.2996L109.5 -19.4004" stroke="#DDDDDD" stroke-width="0.2"/>
<path d="M24 69.2996L112.7 -19.4004" stroke="#DDDDDD" stroke-width="0.2"/>
<path d="M30.3 69.2996L119 -19.4004" stroke="#DDDDDD" stroke-width="0.2"/>
<path d="M33.4 69.2996L122.1 -19.4004" stroke="#DDDDDD" stroke-width="0.2"/>
<path d="M36.6 69.2996L125.3 -19.4004" stroke="#DDDDDD" stroke-width="0.2"/>
<path d="M39.7 69.2996L128.5 -19.4004" stroke="#DDDDDD" stroke-width="0.2"/>
<path d="M42.9 69.2996L131.6 -19.4004" stroke="#DDDDDD" stroke-width="0.2"/>
<path d="M61.8 69.2996L150.5 -19.4004" stroke="#DDDDDD" stroke-width="0.2"/>
<path d="M49.2 69.2996L137.9 -19.4004" stroke="#DDDDDD" stroke-width="0.2"/>
<path d="M52.4 69.2996L141.1 -19.4004" stroke="#DDDDDD" stroke-width="0.2"/>
<path d="M55.5 69.2996L144.2 -19.4004" stroke="#DDDDDD" stroke-width="0.2"/>
<path d="M58.7 69.2996L147.4 -19.4004" stroke="#DDDDDD" stroke-width="0.2"/>
<path d="M46.1 69.2996L134.8 -19.4004" stroke="#DDDDDD" stroke-width="0.2"/>
<path d="M65 69.2996L153.7 -19.4004" stroke="#DDDDDD" stroke-width="0.2"/>
<path d="M68.1 69.2996L156.9 -19.4004" stroke="#DDDDDD" stroke-width="0.2"/>
<path d="M71.3 69.2996L160 -19.4004" stroke="#DDDDDD" stroke-width="0.2"/>
<path d="M74.5 69.2996L163.2 -19.4004" stroke="#DDDDDD" stroke-width="0.2"/>
<path d="M77.6 69.2996L166.3 -19.4004" stroke="#DDDDDD" stroke-width="0.2"/>
<path d="M80.8 69.2996L169.5 -19.4004" stroke="#DDDDDD" stroke-width="0.2"/>
<path d="M83.9 69.2996L172.6 -19.4004" stroke="#DDDDDD" stroke-width="0.2"/>
<path d="M102.9 69.2996L191.6 -19.4004" stroke="#DDDDDD" stroke-width="0.2"/>
<path d="M90.2 69.2996L178.9 -19.4004" stroke="#DDDDDD" stroke-width="0.2"/>
<path d="M93.4 69.2996L182.1 -19.4004" stroke="#DDDDDD" stroke-width="0.2"/>
<path d="M96.5 69.2996L185.3 -19.4004" stroke="#DDDDDD" stroke-width="0.2"/>
<path d="M99.7 69.2996L188.4 -19.4004" stroke="#DDDDDD" stroke-width="0.2"/>
<path d="M87.1 69.2996L175.8 -19.4004" stroke="#DDDDDD" stroke-width="0.2"/>
<path d="M106 69.2996L194.7 -19.4004" stroke="#DDDDDD" stroke-width="0.2"/>
<path d="M109.2 69.2996L197.9 -19.4004" stroke="#DDDDDD" stroke-width="0.2"/>
<path d="M112.3 69.2996L201 -19.4004" stroke="#DDDDDD" stroke-width="0.2"/>
<path d="M115.5 69.2996L204.2 -19.4004" stroke="#DDDDDD" stroke-width="0.2"/>
</g>
<path d="M118 45.3998C115.5 43.7998 113.4 41.2998 111.9 37.7998C110.4 34.2998 109.5 30.0998 109.5 24.8998C109.5 19.6998 110.3 15.3998 111.9 11.7998C113.5 8.2998 115.7 5.5998 118.4 3.8998C121.1 2.1998 124.1 1.2998 127.3 1.2998C130.5 1.2998 132.6 1.7998 134.7 2.7998C136.9 3.7998 138.8 5.0998 140.3 6.6998L134.6 12.9998C133.8 12.1998 132.8 11.3998 131.6 10.7998C130.3 10.1998 129.1 9.8998 128 9.8998C125.5 9.8998 123.4 10.8998 121.9 12.9998C120.4 14.9998 119.5 18.3998 119.3 22.9998C120.3 21.6998 121.7 20.5998 123.3 19.7998C124.9 18.9998 126.5 18.5998 127.8 18.5998C131.7 18.5998 134.9 19.7998 137.3 22.0998C139.7 24.3998 140.9 27.9998 140.9 32.5998C140.9 37.1998 140.2 38.3998 138.9 40.6998C137.6 42.9998 135.8 44.7998 133.5 45.9998C131.2 47.1998 128.8 47.7998 126.1 47.7998C123.4 47.7998 120.4 46.9998 117.8 45.3998H118ZM122.3 26.9998C121.2 27.6998 120.2 28.6998 119.5 29.9998C119.9 33.4998 120.7 35.8998 121.9 37.3998C123.1 38.8998 124.5 39.6998 126.1 39.6998C127.7 39.6998 128.9 39.0998 129.9 37.8998C130.9 36.6998 131.4 34.8998 131.4 32.4998C131.4 30.0998 130.9 28.5998 129.9 27.4998C128.9 26.4998 127.6 25.9998 126 25.9998C124.4 25.9998 123.6 26.2998 122.5 26.9998H122.3Z" stroke="#BBBABA" stroke-width="0.3" stroke-miterlimit="10"/>
</g>
<defs>
<clipPath id="clip0_374_773">
<rect width="142" height="48" fill="white"/>
</clipPath>
</defs>
</svg>
