<svg width="142" height="48" viewBox="0 0 142 48" fill="none" xmlns="http://www.w3.org/2000/svg">
<g clip-path="url(#clip0_374_2)">
<mask id="mask0_374_2" style="mask-type:luminance" maskUnits="userSpaceOnUse" x="0" y="1" width="33" height="47">
<path d="M1.09998 41.4001C7.29998 35.7001 12 30.9001 15.1 27.0001C18.2 23.1001 19.8 19.6001 19.8 16.5001C19.8 13.4001 19.3 12.9001 18.3 11.8001C17.3 10.7001 15.8 10.1001 14 10.1001C12.2 10.1001 11.3 10.5001 10.1 11.2001C8.89998 12.0001 7.69998 13.0001 6.39998 14.4001L0.599976 8.60011C2.89998 6.20011 5.19998 4.4001 7.39998 3.3001C9.69998 2.2001 12.4 1.6001 15.4 1.6001C18.4 1.6001 20.8 2.2001 23.1 3.3001C25.3 4.5001 27 6.1001 28.3 8.2001C29.5 10.3001 30.2 12.8001 30.2 15.6001C30.2 21.9001 25.7 29.7001 16.7 38.7001C19.7 38.3001 22.1 38.1001 24.1 38.1001H32.3V47.1001H1.19997V41.0001L1.09998 41.4001Z" fill="white"/>
</mask>
<g mask="url(#mask0_374_2)">
<path d="M-54.8 55.7L33.8999 -33" stroke="#DDDDDD" stroke-width="0.2"/>
<path d="M-35.9 55.7L52.8 -33" stroke="#DDDDDD" stroke-width="0.2"/>
<path d="M-48.5001 55.7L40.1999 -33" stroke="#DDDDDD" stroke-width="0.2"/>
<path d="M-45.3 55.7L43.3999 -33" stroke="#DDDDDD" stroke-width="0.2"/>
<path d="M-42.2001 55.7L46.4999 -33" stroke="#DDDDDD" stroke-width="0.2"/>
<path d="M-39.0001 55.7L49.6999 -33" stroke="#DDDDDD" stroke-width="0.2"/>
<path d="M-51.7001 55.7L37.0999 -33" stroke="#DDDDDD" stroke-width="0.2"/>
<path d="M-32.7001 55.7L55.9999 -33" stroke="#DDDDDD" stroke-width="0.2"/>
<path d="M-29.6 55.7L59.1 -33" stroke="#DDDDDD" stroke-width="0.2"/>
<path d="M-26.4 55.7L62.3 -33" stroke="#DDDDDD" stroke-width="0.2"/>
<path d="M-23.3 55.7L65.5 -33" stroke="#DDDDDD" stroke-width="0.2"/>
<path d="M-20.1 55.7L68.6 -33" stroke="#DDDDDD" stroke-width="0.2"/>
<path d="M-1.20007 55.7L87.5999 -33" stroke="#DDDDDD" stroke-width="0.2"/>
<path d="M-13.8 55.7L74.8999 -33" stroke="#DDDDDD" stroke-width="0.2"/>
<path d="M-10.6 55.7L78.1 -33" stroke="#DDDDDD" stroke-width="0.2"/>
<path d="M-7.50006 55.7L81.1999 -33" stroke="#DDDDDD" stroke-width="0.2"/>
<path d="M-4.30005 55.7L84.3999 -33" stroke="#DDDDDD" stroke-width="0.2"/>
<path d="M-16.9 55.7L71.8 -33" stroke="#DDDDDD" stroke-width="0.2"/>
<path d="M1.99994 55.7L90.6999 -33" stroke="#DDDDDD" stroke-width="0.2"/>
<path d="M5.09998 55.7L93.9 -33" stroke="#DDDDDD" stroke-width="0.2"/>
<path d="M8.29993 55.7L96.9999 -33" stroke="#DDDDDD" stroke-width="0.2"/>
<path d="M11.4999 55.7L100.2 -33" stroke="#DDDDDD" stroke-width="0.2"/>
<path d="M14.6 55.7L103.3 -33" stroke="#DDDDDD" stroke-width="0.2"/>
<path d="M20.9 55.7L109.6 -33" stroke="#DDDDDD" stroke-width="0.2"/>
<path d="M24.1 55.7L112.8 -33" stroke="#DDDDDD" stroke-width="0.2"/>
<path d="M27.2 55.7L116 -33" stroke="#DDDDDD" stroke-width="0.2"/>
<path d="M30.4 55.7L119.1 -33" stroke="#DDDDDD" stroke-width="0.2"/>
<path d="M17.7999 55.7L106.5 -33" stroke="#DDDDDD" stroke-width="0.2"/>
</g>
<path d="M1.09998 41.4001C7.29998 35.7001 12 30.9001 15.1 27.0001C18.2 23.1001 19.8 19.6001 19.8 16.5001C19.8 13.4001 19.3 12.9001 18.3 11.8001C17.3 10.7001 15.8 10.1001 14 10.1001C12.2 10.1001 11.3 10.5001 10.1 11.2001C8.89998 12.0001 7.69998 13.0001 6.39998 14.4001L0.599976 8.60011C2.89998 6.20011 5.19998 4.4001 7.39998 3.3001C9.69998 2.2001 12.4 1.6001 15.4 1.6001C18.4 1.6001 20.8 2.2001 23.1 3.3001C25.3 4.5001 27 6.1001 28.3 8.2001C29.5 10.3001 30.2 12.8001 30.2 15.6001C30.2 21.9001 25.7 29.7001 16.7 38.7001C19.7 38.3001 22.1 38.1001 24.1 38.1001H32.3V47.1001H1.19997V41.0001L1.09998 41.4001Z" stroke="#BBBABA" stroke-width="0.3" stroke-miterlimit="10"/>
<mask id="mask1_374_2" style="mask-type:luminance" maskUnits="userSpaceOnUse" x="36" y="1" width="33" height="48">
<path d="M44.3 45.6999C41.9 43.8999 40.1 41.1999 38.7 37.6999C37.4 34.1999 36.7 29.8999 36.7 24.8999C36.7 19.8999 37.4 15.5999 38.7 12.1999C40 8.6999 41.9 6.1999 44.2 4.4999C46.6 2.7999 49.4 1.8999 52.6 1.8999C55.8 1.8999 58.6 2.7999 61 4.4999C63.4 6.1999 65.2 8.7999 66.5 12.1999C67.8 15.5999 68.5 19.8999 68.5 24.8999C68.5 29.8999 67.8 34.1999 66.5 37.6999C65.2 41.1999 63.3 43.8999 61 45.6999C58.7 47.4999 55.8 48.3999 52.7 48.3999C49.6 48.3999 46.7 47.4999 44.4 45.6999H44.3ZM56.9 36.6999C57.9 34.4999 58.4 30.4999 58.4 24.7999C58.4 19.0999 57.9 15.1999 56.9 13.0999C55.9 10.9999 54.5 9.89989 52.7 9.89989C50.9 9.89989 49.5 10.9999 48.5 13.0999C47.5 15.1999 47 19.0999 47 24.7999C47 30.4999 47.5 34.4999 48.5 36.6999C49.5 38.8999 50.9 39.9999 52.7 39.9999C54.5 39.9999 55.9 38.8999 56.9 36.6999Z" fill="white"/>
</mask>
<g mask="url(#mask1_374_2)">
<path d="M-50.2 63.2L38.5 -25.5" stroke="#DDDDDD" stroke-width="0.2"/>
<path d="M-47 63.2L41.7 -25.5" stroke="#DDDDDD" stroke-width="0.2"/>
<path d="M-43.9 63.2L44.9 -25.5" stroke="#DDDDDD" stroke-width="0.2"/>
<path d="M-24.9 63.2L63.8 -25.5" stroke="#DDDDDD" stroke-width="0.2"/>
<path d="M-37.6 63.2L51.2 -25.5" stroke="#DDDDDD" stroke-width="0.2"/>
<path d="M-34.4 63.2L54.3 -25.5" stroke="#DDDDDD" stroke-width="0.2"/>
<path d="M-31.2 63.2L57.5 -25.5" stroke="#DDDDDD" stroke-width="0.2"/>
<path d="M-28.1 63.2L60.6 -25.5" stroke="#DDDDDD" stroke-width="0.2"/>
<path d="M-40.7 63.2L48 -25.5" stroke="#DDDDDD" stroke-width="0.2"/>
<path d="M-21.8 63.2L66.9 -25.5" stroke="#DDDDDD" stroke-width="0.2"/>
<path d="M-18.6 63.2L70.1 -25.5" stroke="#DDDDDD" stroke-width="0.2"/>
<path d="M-15.5 63.2L73.3 -25.5" stroke="#DDDDDD" stroke-width="0.2"/>
<path d="M-12.3 63.2L76.4 -25.5" stroke="#DDDDDD" stroke-width="0.2"/>
<path d="M-9.19995 63.2L79.6001 -25.5" stroke="#DDDDDD" stroke-width="0.2"/>
<path d="M9.80005 63.2L98.5 -25.5" stroke="#DDDDDD" stroke-width="0.2"/>
<path d="M-2.79999 63.2L85.9 -25.5" stroke="#DDDDDD" stroke-width="0.2"/>
<path d="M0.300049 63.2L89 -25.5" stroke="#DDDDDD" stroke-width="0.2"/>
<path d="M3.5 63.2L92.2 -25.5" stroke="#DDDDDD" stroke-width="0.2"/>
<path d="M6.60004 63.2L95.3 -25.5" stroke="#DDDDDD" stroke-width="0.2"/>
<path d="M-6 63.2L82.7 -25.5" stroke="#DDDDDD" stroke-width="0.2"/>
<path d="M12.9 63.2L101.7 -25.5" stroke="#DDDDDD" stroke-width="0.2"/>
<path d="M16.1 63.2L104.8 -25.5" stroke="#DDDDDD" stroke-width="0.2"/>
<path d="M19.3 63.2L108 -25.5" stroke="#DDDDDD" stroke-width="0.2"/>
<path d="M22.4 63.2L111.1 -25.5" stroke="#DDDDDD" stroke-width="0.2"/>
<path d="M25.6 63.2L114.3 -25.5" stroke="#DDDDDD" stroke-width="0.2"/>
<path d="M44.5 63.2L133.2 -25.5" stroke="#DDDDDD" stroke-width="0.2"/>
<path d="M31.9 63.2L120.6 -25.5" stroke="#DDDDDD" stroke-width="0.2"/>
<path d="M35 63.2L123.7 -25.5" stroke="#DDDDDD" stroke-width="0.2"/>
<path d="M38.2 63.2L126.9 -25.5" stroke="#DDDDDD" stroke-width="0.2"/>
<path d="M41.3 63.2L130.1 -25.5" stroke="#DDDDDD" stroke-width="0.2"/>
<path d="M28.7 63.2L117.4 -25.5" stroke="#DDDDDD" stroke-width="0.2"/>
<path d="M47.7 63.2L136.4 -25.5" stroke="#DDDDDD" stroke-width="0.2"/>
<path d="M50.8 63.2L139.5 -25.5" stroke="#DDDDDD" stroke-width="0.2"/>
<path d="M54 63.2L142.7 -25.5" stroke="#DDDDDD" stroke-width="0.2"/>
<path d="M57.1 63.2L145.8 -25.5" stroke="#DDDDDD" stroke-width="0.2"/>
<path d="M60.3 63.2L149 -25.5" stroke="#DDDDDD" stroke-width="0.2"/>
<path d="M63.4 63.2L152.1 -25.5" stroke="#DDDDDD" stroke-width="0.2"/>
<path d="M66.6 63.2L155.3 -25.5" stroke="#DDDDDD" stroke-width="0.2"/>
</g>
<path d="M44.3 45.6999C41.9 43.8999 40.1 41.1999 38.7 37.6999C37.4 34.1999 36.7 29.8999 36.7 24.8999C36.7 19.8999 37.4 15.5999 38.7 12.1999C40 8.6999 41.9 6.1999 44.2 4.4999C46.6 2.7999 49.4 1.8999 52.6 1.8999C55.8 1.8999 58.6 2.7999 61 4.4999C63.4 6.1999 65.2 8.7999 66.5 12.1999C67.8 15.5999 68.5 19.8999 68.5 24.8999C68.5 29.8999 67.8 34.1999 66.5 37.6999C65.2 41.1999 63.3 43.8999 61 45.6999C58.7 47.4999 55.8 48.3999 52.7 48.3999C49.6 48.3999 46.7 47.4999 44.4 45.6999H44.3ZM56.9 36.6999C57.9 34.4999 58.4 30.4999 58.4 24.7999C58.4 19.0999 57.9 15.1999 56.9 13.0999C55.9 10.9999 54.5 9.89989 52.7 9.89989C50.9 9.89989 49.5 10.9999 48.5 13.0999C47.5 15.1999 47 19.0999 47 24.7999C47 30.4999 47.5 34.4999 48.5 36.6999C49.5 38.8999 50.9 39.9999 52.7 39.9999C54.5 39.9999 55.9 38.8999 56.9 36.6999Z" stroke="#BBBABA" stroke-width="0.3" stroke-miterlimit="10"/>
<mask id="mask2_374_2" style="mask-type:luminance" maskUnits="userSpaceOnUse" x="75" y="2" width="29" height="46">
<path d="M75.7 38.9002H85.2V13.4002H76.9V6.8002C79.3 6.4002 81.3 5.8002 83 5.2002C84.7 4.6002 86.4 3.7002 88 2.7002H95.9V38.9002H104V47.6002H75.7V38.9002Z" fill="white"/>
</mask>
<g mask="url(#mask2_374_2)">
<path d="M-6.99994 65.7L81.7001 -23" stroke="#DDDDDD" stroke-width="0.2"/>
<path d="M-10.2 65.7L78.6001 -23" stroke="#DDDDDD" stroke-width="0.2"/>
<path d="M-3.89996 65.7L84.9 -23" stroke="#DDDDDD" stroke-width="0.2"/>
<path d="M-0.699951 65.7L88 -23" stroke="#DDDDDD" stroke-width="0.2"/>
<path d="M2.50006 65.7L91.2001 -23" stroke="#DDDDDD" stroke-width="0.2"/>
<path d="M5.60004 65.7L94.3 -23" stroke="#DDDDDD" stroke-width="0.2"/>
<path d="M8.80005 65.7L97.5 -23" stroke="#DDDDDD" stroke-width="0.2"/>
<path d="M27.7 65.7L116.4 -23" stroke="#DDDDDD" stroke-width="0.2"/>
<path d="M15.1 65.7L103.8 -23" stroke="#DDDDDD" stroke-width="0.2"/>
<path d="M18.2 65.7L107 -23" stroke="#DDDDDD" stroke-width="0.2"/>
<path d="M21.4 65.7L110.1 -23" stroke="#DDDDDD" stroke-width="0.2"/>
<path d="M24.5001 65.7L113.3 -23" stroke="#DDDDDD" stroke-width="0.2"/>
<path d="M11.9 65.7L100.6 -23" stroke="#DDDDDD" stroke-width="0.2"/>
<path d="M30.9 65.7L119.6 -23" stroke="#DDDDDD" stroke-width="0.2"/>
<path d="M34.0001 65.7L122.7 -23" stroke="#DDDDDD" stroke-width="0.2"/>
<path d="M37.2 65.7L125.9 -23" stroke="#DDDDDD" stroke-width="0.2"/>
<path d="M40.3 65.7L129 -23" stroke="#DDDDDD" stroke-width="0.2"/>
<path d="M43.5001 65.7L132.2 -23" stroke="#DDDDDD" stroke-width="0.2"/>
<path d="M62.4 65.7L151.1 -23" stroke="#DDDDDD" stroke-width="0.2"/>
<path d="M49.8 65.7L138.5 -23" stroke="#DDDDDD" stroke-width="0.2"/>
<path d="M53.0001 65.7L141.7 -23" stroke="#DDDDDD" stroke-width="0.2"/>
<path d="M56.1 65.7L144.8 -23" stroke="#DDDDDD" stroke-width="0.2"/>
<path d="M59.3 65.7L148 -23" stroke="#DDDDDD" stroke-width="0.2"/>
<path d="M46.6 65.7L135.4 -23" stroke="#DDDDDD" stroke-width="0.2"/>
<path d="M65.6 65.7L154.3 -23" stroke="#DDDDDD" stroke-width="0.2"/>
<path d="M68.7 65.7L157.4 -23" stroke="#DDDDDD" stroke-width="0.2"/>
<path d="M71.9 65.7L160.6 -23" stroke="#DDDDDD" stroke-width="0.2"/>
<path d="M75.0001 65.7L163.8 -23" stroke="#DDDDDD" stroke-width="0.2"/>
<path d="M78.2 65.7L166.9 -23" stroke="#DDDDDD" stroke-width="0.2"/>
<path d="M97.1 65.7L185.8 -23" stroke="#DDDDDD" stroke-width="0.2"/>
<path d="M84.5001 65.7L173.2 -23" stroke="#DDDDDD" stroke-width="0.2"/>
<path d="M87.7 65.7L176.4 -23" stroke="#DDDDDD" stroke-width="0.2"/>
<path d="M90.8 65.7L179.5 -23" stroke="#DDDDDD" stroke-width="0.2"/>
<path d="M94.0001 65.7L182.7 -23" stroke="#DDDDDD" stroke-width="0.2"/>
<path d="M81.4 65.7L170.1 -23" stroke="#DDDDDD" stroke-width="0.2"/>
<path d="M100.3 65.7L189 -23" stroke="#DDDDDD" stroke-width="0.2"/>
<path d="M103.4 65.7L192.2 -23" stroke="#DDDDDD" stroke-width="0.2"/>
</g>
<path d="M75.7 38.9002H85.2V13.4002H76.9V6.8002C79.3 6.4002 81.3 5.8002 83 5.2002C84.7 4.6002 86.4 3.7002 88 2.7002H95.9V38.9002H104V47.6002H75.7V38.9002Z" stroke="#BBBABA" stroke-width="0.3" stroke-miterlimit="10"/>
<mask id="mask3_374_2" style="mask-type:luminance" maskUnits="userSpaceOnUse" x="110" y="3" width="32" height="46">
<path d="M118.2 48.0001C118.5 42.8001 119 38.2001 119.8 34.4001C120.6 30.5001 121.7 26.8001 123.3 23.2001C124.9 19.6001 127 15.9001 129.8 12.1001H110.5V3.1001H141.2V9.7001C137.8 13.7001 135.3 17.5001 133.7 21.1001C132.1 24.7001 130.9 28.4001 130.3 32.3001C129.7 36.2001 129.3 41.5001 129 48.1001H118.2V48.0001Z" fill="white"/>
</mask>
<g mask="url(#mask3_374_2)">
<path d="M27.1 70.3001L115.8 -18.3999" stroke="#DDDDDD" stroke-width="0.2"/>
<path d="M24 70.3001L112.7 -18.3999" stroke="#DDDDDD" stroke-width="0.2"/>
<path d="M30.3 70.3001L119 -18.3999" stroke="#DDDDDD" stroke-width="0.2"/>
<path d="M33.4 70.3001L122.1 -18.3999" stroke="#DDDDDD" stroke-width="0.2"/>
<path d="M36.6 70.3001L125.3 -18.3999" stroke="#DDDDDD" stroke-width="0.2"/>
<path d="M39.7 70.3001L128.5 -18.3999" stroke="#DDDDDD" stroke-width="0.2"/>
<path d="M42.9 70.3001L131.6 -18.3999" stroke="#DDDDDD" stroke-width="0.2"/>
<path d="M61.8 70.3001L150.5 -18.3999" stroke="#DDDDDD" stroke-width="0.2"/>
<path d="M49.2 70.3001L137.9 -18.3999" stroke="#DDDDDD" stroke-width="0.2"/>
<path d="M52.4 70.3001L141.1 -18.3999" stroke="#DDDDDD" stroke-width="0.2"/>
<path d="M55.5 70.3001L144.2 -18.3999" stroke="#DDDDDD" stroke-width="0.2"/>
<path d="M58.7 70.3001L147.4 -18.3999" stroke="#DDDDDD" stroke-width="0.2"/>
<path d="M46.1 70.3001L134.8 -18.3999" stroke="#DDDDDD" stroke-width="0.2"/>
<path d="M65 70.3001L153.7 -18.3999" stroke="#DDDDDD" stroke-width="0.2"/>
<path d="M68.1 70.3001L156.9 -18.3999" stroke="#DDDDDD" stroke-width="0.2"/>
<path d="M71.3 70.3001L160 -18.3999" stroke="#DDDDDD" stroke-width="0.2"/>
<path d="M74.5 70.3001L163.2 -18.3999" stroke="#DDDDDD" stroke-width="0.2"/>
<path d="M77.6 70.3001L166.3 -18.3999" stroke="#DDDDDD" stroke-width="0.2"/>
<path d="M80.8 70.3001L169.5 -18.3999" stroke="#DDDDDD" stroke-width="0.2"/>
<path d="M83.9 70.3001L172.6 -18.3999" stroke="#DDDDDD" stroke-width="0.2"/>
<path d="M102.9 70.3001L191.6 -18.3999" stroke="#DDDDDD" stroke-width="0.2"/>
<path d="M90.2 70.3001L178.9 -18.3999" stroke="#DDDDDD" stroke-width="0.2"/>
<path d="M93.4 70.3001L182.1 -18.3999" stroke="#DDDDDD" stroke-width="0.2"/>
<path d="M96.5 70.3001L185.3 -18.3999" stroke="#DDDDDD" stroke-width="0.2"/>
<path d="M99.7 70.3001L188.4 -18.3999" stroke="#DDDDDD" stroke-width="0.2"/>
<path d="M87.1 70.3001L175.8 -18.3999" stroke="#DDDDDD" stroke-width="0.2"/>
<path d="M106 70.3001L194.7 -18.3999" stroke="#DDDDDD" stroke-width="0.2"/>
<path d="M109.2 70.3001L197.9 -18.3999" stroke="#DDDDDD" stroke-width="0.2"/>
<path d="M112.3 70.3001L201 -18.3999" stroke="#DDDDDD" stroke-width="0.2"/>
<path d="M115.5 70.3001L204.2 -18.3999" stroke="#DDDDDD" stroke-width="0.2"/>
</g>
<path d="M118.2 48.0001C118.5 42.8001 119 38.2001 119.8 34.4001C120.6 30.5001 121.7 26.8001 123.3 23.2001C124.9 19.6001 127 15.9001 129.8 12.1001H110.5V3.1001H141.2V9.7001C137.8 13.7001 135.3 17.5001 133.7 21.1001C132.1 24.7001 130.9 28.4001 130.3 32.3001C129.7 36.2001 129.3 41.5001 129 48.1001H118.2V48.0001Z" stroke="#BBBABA" stroke-width="0.3"/>
</g>
<defs>
<clipPath id="clip0_374_2">
<rect width="142" height="48" fill="white"/>
</clipPath>
</defs>
</svg>
