<svg width="143" height="49" viewBox="0 0 143 49" fill="none" xmlns="http://www.w3.org/2000/svg">
<g clip-path="url(#clip0_374_259)">
<mask id="mask0_374_259" style="mask-type:luminance" maskUnits="userSpaceOnUse" x="1" y="2" width="33" height="47">
<path d="M2.09998 42.4001C8.29998 36.7001 13 31.9001 16.1 28.0001C19.2 24.1001 20.8 20.6001 20.8 17.5001C20.8 14.4001 20.3 13.9001 19.3 12.8001C18.3 11.7001 16.8 11.1001 15 11.1001C13.2 11.1001 12.3 11.5001 11.1 12.2001C9.89998 13.0001 8.69998 14.0001 7.39998 15.4001L1.59998 9.60011C3.89998 7.20011 6.19998 5.4001 8.39998 4.3001C10.7 3.2001 13.4 2.6001 16.4 2.6001C19.4 2.6001 21.8 3.2001 24.1 4.3001C26.3 5.5001 28 7.1001 29.3 9.2001C30.5 11.3001 31.2 13.8001 31.2 16.6001C31.2 22.9001 26.7 30.7001 17.7 39.7001C20.7 39.3001 23.1 39.1001 25.1 39.1001H33.3V48.1001H2.19997V42.0001L2.09998 42.4001Z" fill="white"/>
</mask>
<g mask="url(#mask0_374_259)">
<path d="M-53.8 56.7L34.8999 -32" stroke="#DDDDDD" stroke-width="0.2"/>
<path d="M-34.9 56.7L53.8 -32" stroke="#DDDDDD" stroke-width="0.2"/>
<path d="M-47.5001 56.7L41.1999 -32" stroke="#DDDDDD" stroke-width="0.2"/>
<path d="M-44.3 56.7L44.3999 -32" stroke="#DDDDDD" stroke-width="0.2"/>
<path d="M-41.2001 56.7L47.4999 -32" stroke="#DDDDDD" stroke-width="0.2"/>
<path d="M-38.0001 56.7L50.6999 -32" stroke="#DDDDDD" stroke-width="0.2"/>
<path d="M-50.7001 56.7L38.0999 -32" stroke="#DDDDDD" stroke-width="0.2"/>
<path d="M-31.7001 56.7L56.9999 -32" stroke="#DDDDDD" stroke-width="0.2"/>
<path d="M-28.6 56.7L60.1 -32" stroke="#DDDDDD" stroke-width="0.2"/>
<path d="M-25.4 56.7L63.3 -32" stroke="#DDDDDD" stroke-width="0.2"/>
<path d="M-22.3 56.7L66.5 -32" stroke="#DDDDDD" stroke-width="0.2"/>
<path d="M-19.1 56.7L69.6 -32" stroke="#DDDDDD" stroke-width="0.2"/>
<path d="M-0.200073 56.7L88.5999 -32" stroke="#DDDDDD" stroke-width="0.2"/>
<path d="M-12.8 56.7L75.8999 -32" stroke="#DDDDDD" stroke-width="0.2"/>
<path d="M-9.60004 56.7L79.1 -32" stroke="#DDDDDD" stroke-width="0.2"/>
<path d="M-6.50006 56.7L82.1999 -32" stroke="#DDDDDD" stroke-width="0.2"/>
<path d="M-3.30005 56.7L85.3999 -32" stroke="#DDDDDD" stroke-width="0.2"/>
<path d="M-15.9 56.7L72.8 -32" stroke="#DDDDDD" stroke-width="0.2"/>
<path d="M2.99994 56.7L91.6999 -32" stroke="#DDDDDD" stroke-width="0.2"/>
<path d="M6.09998 56.7L94.9 -32" stroke="#DDDDDD" stroke-width="0.2"/>
<path d="M9.29993 56.7L97.9999 -32" stroke="#DDDDDD" stroke-width="0.2"/>
<path d="M12.4999 56.7L101.2 -32" stroke="#DDDDDD" stroke-width="0.2"/>
<path d="M15.6 56.7L104.3 -32" stroke="#DDDDDD" stroke-width="0.2"/>
<path d="M21.9 56.7L110.6 -32" stroke="#DDDDDD" stroke-width="0.2"/>
<path d="M25.1 56.7L113.8 -32" stroke="#DDDDDD" stroke-width="0.2"/>
<path d="M28.2 56.7L117 -32" stroke="#DDDDDD" stroke-width="0.2"/>
<path d="M31.4 56.7L120.1 -32" stroke="#DDDDDD" stroke-width="0.2"/>
<path d="M18.7999 56.7L107.5 -32" stroke="#DDDDDD" stroke-width="0.2"/>
</g>
<path d="M2.09998 42.4001C8.29998 36.7001 13 31.9001 16.1 28.0001C19.2 24.1001 20.8 20.6001 20.8 17.5001C20.8 14.4001 20.3 13.9001 19.3 12.8001C18.3 11.7001 16.8 11.1001 15 11.1001C13.2 11.1001 12.3 11.5001 11.1 12.2001C9.89998 13.0001 8.69998 14.0001 7.39998 15.4001L1.59998 9.60011C3.89998 7.20011 6.19998 5.4001 8.39998 4.3001C10.7 3.2001 13.4 2.6001 16.4 2.6001C19.4 2.6001 21.8 3.2001 24.1 4.3001C26.3 5.5001 28 7.1001 29.3 9.2001C30.5 11.3001 31.2 13.8001 31.2 16.6001C31.2 22.9001 26.7 30.7001 17.7 39.7001C20.7 39.3001 23.1 39.1001 25.1 39.1001H33.3V48.1001H2.19997V42.0001L2.09998 42.4001Z" stroke="#BBBABA" stroke-width="0.3" stroke-miterlimit="10"/>
<mask id="mask1_374_259" style="mask-type:luminance" maskUnits="userSpaceOnUse" x="37" y="2" width="33" height="48">
<path d="M45.3 46.6999C42.9 44.8999 41.1 42.1999 39.7 38.6999C38.4 35.1999 37.7 30.8999 37.7 25.8999C37.7 20.8999 38.4 16.5999 39.7 13.1999C41 9.6999 42.9 7.1999 45.2 5.4999C47.6 3.7999 50.4 2.8999 53.6 2.8999C56.8 2.8999 59.6 3.7999 62 5.4999C64.4 7.1999 66.2 9.7999 67.5 13.1999C68.8 16.5999 69.5 20.8999 69.5 25.8999C69.5 30.8999 68.8 35.1999 67.5 38.6999C66.2 42.1999 64.3 44.8999 62 46.6999C59.7 48.4999 56.8 49.3999 53.7 49.3999C50.6 49.3999 47.7 48.4999 45.4 46.6999H45.3ZM57.9 37.6999C58.9 35.4999 59.4 31.4999 59.4 25.7999C59.4 20.0999 58.9 16.1999 57.9 14.0999C56.9 11.9999 55.5 10.8999 53.7 10.8999C51.9 10.8999 50.5 11.9999 49.5 14.0999C48.5 16.1999 48 20.0999 48 25.7999C48 31.4999 48.5 35.4999 49.5 37.6999C50.5 39.8999 51.9 40.9999 53.7 40.9999C55.5 40.9999 56.9 39.8999 57.9 37.6999Z" fill="white"/>
</mask>
<g mask="url(#mask1_374_259)">
<path d="M-49.2 64.2L39.5 -24.5" stroke="#DDDDDD" stroke-width="0.2"/>
<path d="M-46 64.2L42.7 -24.5" stroke="#DDDDDD" stroke-width="0.2"/>
<path d="M-42.9 64.2L45.9 -24.5" stroke="#DDDDDD" stroke-width="0.2"/>
<path d="M-23.9 64.2L64.8 -24.5" stroke="#DDDDDD" stroke-width="0.2"/>
<path d="M-36.6 64.2L52.2 -24.5" stroke="#DDDDDD" stroke-width="0.2"/>
<path d="M-33.4 64.2L55.3 -24.5" stroke="#DDDDDD" stroke-width="0.2"/>
<path d="M-30.2 64.2L58.5 -24.5" stroke="#DDDDDD" stroke-width="0.2"/>
<path d="M-27.1 64.2L61.6 -24.5" stroke="#DDDDDD" stroke-width="0.2"/>
<path d="M-39.7 64.2L49 -24.5" stroke="#DDDDDD" stroke-width="0.2"/>
<path d="M-20.8 64.2L67.9 -24.5" stroke="#DDDDDD" stroke-width="0.2"/>
<path d="M-17.6 64.2L71.1 -24.5" stroke="#DDDDDD" stroke-width="0.2"/>
<path d="M-14.5 64.2L74.3 -24.5" stroke="#DDDDDD" stroke-width="0.2"/>
<path d="M-11.3 64.2L77.4 -24.5" stroke="#DDDDDD" stroke-width="0.2"/>
<path d="M-8.19995 64.2L80.6001 -24.5" stroke="#DDDDDD" stroke-width="0.2"/>
<path d="M10.8 64.2L99.5 -24.5" stroke="#DDDDDD" stroke-width="0.2"/>
<path d="M-1.79999 64.2L86.9 -24.5" stroke="#DDDDDD" stroke-width="0.2"/>
<path d="M1.30005 64.2L90 -24.5" stroke="#DDDDDD" stroke-width="0.2"/>
<path d="M4.5 64.2L93.2 -24.5" stroke="#DDDDDD" stroke-width="0.2"/>
<path d="M7.60004 64.2L96.3 -24.5" stroke="#DDDDDD" stroke-width="0.2"/>
<path d="M-5 64.2L83.7 -24.5" stroke="#DDDDDD" stroke-width="0.2"/>
<path d="M13.9 64.2L102.7 -24.5" stroke="#DDDDDD" stroke-width="0.2"/>
<path d="M17.1 64.2L105.8 -24.5" stroke="#DDDDDD" stroke-width="0.2"/>
<path d="M20.3 64.2L109 -24.5" stroke="#DDDDDD" stroke-width="0.2"/>
<path d="M23.4 64.2L112.1 -24.5" stroke="#DDDDDD" stroke-width="0.2"/>
<path d="M26.6 64.2L115.3 -24.5" stroke="#DDDDDD" stroke-width="0.2"/>
<path d="M45.5 64.2L134.2 -24.5" stroke="#DDDDDD" stroke-width="0.2"/>
<path d="M32.9 64.2L121.6 -24.5" stroke="#DDDDDD" stroke-width="0.2"/>
<path d="M36 64.2L124.7 -24.5" stroke="#DDDDDD" stroke-width="0.2"/>
<path d="M39.2 64.2L127.9 -24.5" stroke="#DDDDDD" stroke-width="0.2"/>
<path d="M42.3 64.2L131.1 -24.5" stroke="#DDDDDD" stroke-width="0.2"/>
<path d="M29.7 64.2L118.4 -24.5" stroke="#DDDDDD" stroke-width="0.2"/>
<path d="M48.7 64.2L137.4 -24.5" stroke="#DDDDDD" stroke-width="0.2"/>
<path d="M51.8 64.2L140.5 -24.5" stroke="#DDDDDD" stroke-width="0.2"/>
<path d="M55 64.2L143.7 -24.5" stroke="#DDDDDD" stroke-width="0.2"/>
<path d="M58.1 64.2L146.8 -24.5" stroke="#DDDDDD" stroke-width="0.2"/>
<path d="M61.3 64.2L150 -24.5" stroke="#DDDDDD" stroke-width="0.2"/>
<path d="M64.4 64.2L153.1 -24.5" stroke="#DDDDDD" stroke-width="0.2"/>
<path d="M67.6 64.2L156.3 -24.5" stroke="#DDDDDD" stroke-width="0.2"/>
</g>
<path d="M45.3 46.6999C42.9 44.8999 41.1 42.1999 39.7 38.6999C38.4 35.1999 37.7 30.8999 37.7 25.8999C37.7 20.8999 38.4 16.5999 39.7 13.1999C41 9.6999 42.9 7.1999 45.2 5.4999C47.6 3.7999 50.4 2.8999 53.6 2.8999C56.8 2.8999 59.6 3.7999 62 5.4999C64.4 7.1999 66.2 9.7999 67.5 13.1999C68.8 16.5999 69.5 20.8999 69.5 25.8999C69.5 30.8999 68.8 35.1999 67.5 38.6999C66.2 42.1999 64.3 44.8999 62 46.6999C59.7 48.4999 56.8 49.3999 53.7 49.3999C50.6 49.3999 47.7 48.4999 45.4 46.6999H45.3ZM57.9 37.6999C58.9 35.4999 59.4 31.4999 59.4 25.7999C59.4 20.0999 58.9 16.1999 57.9 14.0999C56.9 11.9999 55.5 10.8999 53.7 10.8999C51.9 10.8999 50.5 11.9999 49.5 14.0999C48.5 16.1999 48 20.0999 48 25.7999C48 31.4999 48.5 35.4999 49.5 37.6999C50.5 39.8999 51.9 40.9999 53.7 40.9999C55.5 40.9999 56.9 39.8999 57.9 37.6999Z" stroke="#BBBABA" stroke-width="0.3" stroke-miterlimit="10"/>
<mask id="mask2_374_259" style="mask-type:luminance" maskUnits="userSpaceOnUse" x="76" y="3" width="29" height="46">
<path d="M76.7 39.9002H86.2V14.4002H77.9V7.8002C80.3 7.4002 82.3 6.8002 84 6.2002C85.7 5.6002 87.4 4.7002 89 3.7002H96.9V39.9002H105V48.6002H76.7V39.9002Z" fill="white"/>
</mask>
<g mask="url(#mask2_374_259)">
<path d="M-5.99994 66.7L82.7001 -22" stroke="#DDDDDD" stroke-width="0.2"/>
<path d="M-9.19995 66.7L79.6001 -22" stroke="#DDDDDD" stroke-width="0.2"/>
<path d="M-2.89996 66.7L85.9 -22" stroke="#DDDDDD" stroke-width="0.2"/>
<path d="M0.300049 66.7L89 -22" stroke="#DDDDDD" stroke-width="0.2"/>
<path d="M3.50006 66.7L92.2001 -22" stroke="#DDDDDD" stroke-width="0.2"/>
<path d="M6.60004 66.7L95.3 -22" stroke="#DDDDDD" stroke-width="0.2"/>
<path d="M9.80005 66.7L98.5 -22" stroke="#DDDDDD" stroke-width="0.2"/>
<path d="M28.7 66.7L117.4 -22" stroke="#DDDDDD" stroke-width="0.2"/>
<path d="M16.1 66.7L104.8 -22" stroke="#DDDDDD" stroke-width="0.2"/>
<path d="M19.2 66.7L108 -22" stroke="#DDDDDD" stroke-width="0.2"/>
<path d="M22.4 66.7L111.1 -22" stroke="#DDDDDD" stroke-width="0.2"/>
<path d="M25.5001 66.7L114.3 -22" stroke="#DDDDDD" stroke-width="0.2"/>
<path d="M12.9 66.7L101.6 -22" stroke="#DDDDDD" stroke-width="0.2"/>
<path d="M31.9 66.7L120.6 -22" stroke="#DDDDDD" stroke-width="0.2"/>
<path d="M35.0001 66.7L123.7 -22" stroke="#DDDDDD" stroke-width="0.2"/>
<path d="M38.2 66.7L126.9 -22" stroke="#DDDDDD" stroke-width="0.2"/>
<path d="M41.3 66.7L130 -22" stroke="#DDDDDD" stroke-width="0.2"/>
<path d="M44.5001 66.7L133.2 -22" stroke="#DDDDDD" stroke-width="0.2"/>
<path d="M63.4 66.7L152.1 -22" stroke="#DDDDDD" stroke-width="0.2"/>
<path d="M50.8 66.7L139.5 -22" stroke="#DDDDDD" stroke-width="0.2"/>
<path d="M54.0001 66.7L142.7 -22" stroke="#DDDDDD" stroke-width="0.2"/>
<path d="M57.1 66.7L145.8 -22" stroke="#DDDDDD" stroke-width="0.2"/>
<path d="M60.3 66.7L149 -22" stroke="#DDDDDD" stroke-width="0.2"/>
<path d="M47.6 66.7L136.4 -22" stroke="#DDDDDD" stroke-width="0.2"/>
<path d="M66.6 66.7L155.3 -22" stroke="#DDDDDD" stroke-width="0.2"/>
<path d="M69.7 66.7L158.4 -22" stroke="#DDDDDD" stroke-width="0.2"/>
<path d="M72.9 66.7L161.6 -22" stroke="#DDDDDD" stroke-width="0.2"/>
<path d="M76.0001 66.7L164.8 -22" stroke="#DDDDDD" stroke-width="0.2"/>
<path d="M79.2 66.7L167.9 -22" stroke="#DDDDDD" stroke-width="0.2"/>
<path d="M98.1 66.7L186.8 -22" stroke="#DDDDDD" stroke-width="0.2"/>
<path d="M85.5001 66.7L174.2 -22" stroke="#DDDDDD" stroke-width="0.2"/>
<path d="M88.7 66.7L177.4 -22" stroke="#DDDDDD" stroke-width="0.2"/>
<path d="M91.8 66.7L180.5 -22" stroke="#DDDDDD" stroke-width="0.2"/>
<path d="M95.0001 66.7L183.7 -22" stroke="#DDDDDD" stroke-width="0.2"/>
<path d="M82.4 66.7L171.1 -22" stroke="#DDDDDD" stroke-width="0.2"/>
<path d="M101.3 66.7L190 -22" stroke="#DDDDDD" stroke-width="0.2"/>
<path d="M104.4 66.7L193.2 -22" stroke="#DDDDDD" stroke-width="0.2"/>
</g>
<path d="M76.7 39.9002H86.2V14.4002H77.9V7.8002C80.3 7.4002 82.3 6.8002 84 6.2002C85.7 5.6002 87.4 4.7002 89 3.7002H96.9V39.9002H105V48.6002H76.7V39.9002Z" stroke="#BBBABA" stroke-width="0.3" stroke-miterlimit="10"/>
<mask id="mask3_374_259" style="mask-type:luminance" maskUnits="userSpaceOnUse" x="111" y="2" width="32" height="48">
<path d="M118.9 47.7999C116.5 46.7999 114.7 45.3999 113.4 43.5999C112.1 41.7999 111.4 39.6999 111.4 37.3999C111.4 32.3999 113.9 28.5999 118.8 26.0999V25.7999C114.9 22.8999 113 19.2999 113 14.9999C113 10.6999 113.6 10.3999 114.8 8.59991C116 6.79991 117.7 5.3999 119.9 4.3999C122.1 3.3999 124.5 2.8999 127.3 2.8999C130.1 2.8999 132.3 3.3999 134.4 4.3999C136.4 5.3999 138 6.79991 139.1 8.59991C140.2 10.3999 140.8 12.4999 140.8 14.8999C140.8 17.2999 140.3 18.7999 139.2 20.4999C138.1 22.1999 136.8 23.6999 135.1 24.7999V25.0999C140.1 27.6999 142.6 31.7999 142.6 37.1999C142.6 42.5999 141.9 41.5999 140.6 43.3999C139.3 45.1999 137.5 46.6999 135.1 47.7999C132.7 48.8999 130 49.3999 126.9 49.3999C123.8 49.3999 121.4 48.8999 119 47.8999L118.9 47.7999ZM131 40.5999C132 39.6999 132.5 38.4999 132.5 36.7999C132.5 35.0999 132.2 34.4999 131.5 33.5999C130.8 32.6999 129.9 31.8999 128.7 31.1999C127.5 30.4999 125.8 29.6999 123.6 28.7999C122.7 29.6999 121.9 30.7999 121.4 32.0999C120.9 33.3999 120.6 34.6999 120.6 36.0999C120.6 37.4999 121.2 39.2999 122.5 40.2999C123.7 41.2999 125.3 41.8999 127.1 41.8999C128.9 41.8999 130.1 41.4999 131.1 40.5999H131ZM131.9 15.4999C131.9 13.8999 131.5 12.5999 130.6 11.5999C129.7 10.5999 128.5 10.1999 126.9 10.1999C125.3 10.1999 124.5 10.5999 123.6 11.3999C122.7 12.1999 122.3 13.3999 122.3 14.8999C122.3 16.3999 122.9 17.9999 124.1 19.0999C125.3 20.1999 127.1 21.1999 129.5 22.1999C131.1 20.1999 131.9 17.9999 131.9 15.5999V15.4999Z" fill="white"/>
</mask>
<g mask="url(#mask3_374_259)">
<path d="M24.2001 79.6999L112.9 -9.1001" stroke="#DDDDDD" stroke-width="0.2"/>
<path d="M27.4 79.6999L116.1 -9.1001" stroke="#DDDDDD" stroke-width="0.2"/>
<path d="M30.5001 79.6999L119.3 -9.1001" stroke="#DDDDDD" stroke-width="0.2"/>
<path d="M33.7001 79.6999L122.4 -9.1001" stroke="#DDDDDD" stroke-width="0.2"/>
<path d="M52.6 79.6999L141.3 -9.1001" stroke="#DDDDDD" stroke-width="0.2"/>
<path d="M40.0001 79.6999L128.7 -9.1001" stroke="#DDDDDD" stroke-width="0.2"/>
<path d="M43.2001 79.6999L131.9 -9.1001" stroke="#DDDDDD" stroke-width="0.2"/>
<path d="M46.3 79.6999L135 -9.1001" stroke="#DDDDDD" stroke-width="0.2"/>
<path d="M49.5001 79.6999L138.2 -9.1001" stroke="#DDDDDD" stroke-width="0.2"/>
<path d="M36.9 79.6999L125.6 -9.1001" stroke="#DDDDDD" stroke-width="0.2"/>
<path d="M55.8 79.6999L144.5 -9.1001" stroke="#DDDDDD" stroke-width="0.2"/>
<path d="M58.9 79.6999L147.7 -9.1001" stroke="#DDDDDD" stroke-width="0.2"/>
<path d="M62.1 79.6999L150.8 -9.1001" stroke="#DDDDDD" stroke-width="0.2"/>
<path d="M65.3 79.6999L154 -9.1001" stroke="#DDDDDD" stroke-width="0.2"/>
<path d="M68.4 79.6999L157.1 -9.1001" stroke="#DDDDDD" stroke-width="0.2"/>
<path d="M87.3 79.6999L176.1 -9.1001" stroke="#DDDDDD" stroke-width="0.2"/>
<path d="M74.7001 79.6999L163.4 -9.1001" stroke="#DDDDDD" stroke-width="0.2"/>
<path d="M77.9 79.6999L166.6 -9.1001" stroke="#DDDDDD" stroke-width="0.2"/>
<path d="M81.0001 79.6999L169.7 -9.1001" stroke="#DDDDDD" stroke-width="0.2"/>
<path d="M84.2001 79.6999L172.9 -9.1001" stroke="#DDDDDD" stroke-width="0.2"/>
<path d="M71.6 79.6999L160.3 -9.1001" stroke="#DDDDDD" stroke-width="0.2"/>
<path d="M90.5001 79.6999L179.2 -9.1001" stroke="#DDDDDD" stroke-width="0.2"/>
<path d="M93.7001 79.6999L182.4 -9.1001" stroke="#DDDDDD" stroke-width="0.2"/>
<path d="M96.8 79.6999L185.5 -9.1001" stroke="#DDDDDD" stroke-width="0.2"/>
<path d="M100 79.6999L188.7 -9.1001" stroke="#DDDDDD" stroke-width="0.2"/>
<path d="M103.1 79.6999L191.8 -9.1001" stroke="#DDDDDD" stroke-width="0.2"/>
<path d="M106.3 79.6999L195 -9.1001" stroke="#DDDDDD" stroke-width="0.2"/>
<path d="M109.4 79.6999L198.1 -9.1001" stroke="#DDDDDD" stroke-width="0.2"/>
<path d="M128.4 79.6999L217.1 -9.1001" stroke="#DDDDDD" stroke-width="0.2"/>
<path d="M115.7 79.6999L204.5 -9.1001" stroke="#DDDDDD" stroke-width="0.2"/>
<path d="M118.9 79.6999L207.6 -9.1001" stroke="#DDDDDD" stroke-width="0.2"/>
<path d="M122.1 79.6999L210.8 -9.1001" stroke="#DDDDDD" stroke-width="0.2"/>
<path d="M125.2 79.6999L213.9 -9.1001" stroke="#DDDDDD" stroke-width="0.2"/>
<path d="M112.6 79.6999L201.3 -9.1001" stroke="#DDDDDD" stroke-width="0.2"/>
<path d="M131.5 79.6999L220.2 -9.1001" stroke="#DDDDDD" stroke-width="0.2"/>
<path d="M134.7 79.6999L223.4 -9.1001" stroke="#DDDDDD" stroke-width="0.2"/>
<path d="M137.8 79.6999L226.5 -9.1001" stroke="#DDDDDD" stroke-width="0.2"/>
<path d="M141 79.6999L229.7 -9.1001" stroke="#DDDDDD" stroke-width="0.2"/>
</g>
<path d="M118.9 47.7999C116.5 46.7999 114.7 45.3999 113.4 43.5999C112.1 41.7999 111.4 39.6999 111.4 37.3999C111.4 32.3999 113.9 28.5999 118.8 26.0999V25.7999C114.9 22.8999 113 19.2999 113 14.9999C113 10.6999 113.6 10.3999 114.8 8.59991C116 6.79991 117.7 5.3999 119.9 4.3999C122.1 3.3999 124.5 2.8999 127.3 2.8999C130.1 2.8999 132.3 3.3999 134.4 4.3999C136.4 5.3999 138 6.79991 139.1 8.59991C140.2 10.3999 140.8 12.4999 140.8 14.8999C140.8 17.2999 140.3 18.7999 139.2 20.4999C138.1 22.1999 136.8 23.6999 135.1 24.7999V25.0999C140.1 27.6999 142.6 31.7999 142.6 37.1999C142.6 42.5999 141.9 41.5999 140.6 43.3999C139.3 45.1999 137.5 46.6999 135.1 47.7999C132.7 48.8999 130 49.3999 126.9 49.3999C123.8 49.3999 121.4 48.8999 119 47.8999L118.9 47.7999ZM131 40.5999C132 39.6999 132.5 38.4999 132.5 36.7999C132.5 35.0999 132.2 34.4999 131.5 33.5999C130.8 32.6999 129.9 31.8999 128.7 31.1999C127.5 30.4999 125.8 29.6999 123.6 28.7999C122.7 29.6999 121.9 30.7999 121.4 32.0999C120.9 33.3999 120.6 34.6999 120.6 36.0999C120.6 37.4999 121.2 39.2999 122.5 40.2999C123.7 41.2999 125.3 41.8999 127.1 41.8999C128.9 41.8999 130.1 41.4999 131.1 40.5999H131ZM131.9 15.4999C131.9 13.8999 131.5 12.5999 130.6 11.5999C129.7 10.5999 128.5 10.1999 126.9 10.1999C125.3 10.1999 124.5 10.5999 123.6 11.3999C122.7 12.1999 122.3 13.3999 122.3 14.8999C122.3 16.3999 122.9 17.9999 124.1 19.0999C125.3 20.1999 127.1 21.1999 129.5 22.1999C131.1 20.1999 131.9 17.9999 131.9 15.5999V15.4999Z" stroke="#BBBABA" stroke-width="0.3"/>
</g>
<defs>
<clipPath id="clip0_374_259">
<rect width="143" height="49" fill="white"/>
</clipPath>
</defs>
</svg>
