<svg width="144" height="49" viewBox="0 0 144 49" fill="none" xmlns="http://www.w3.org/2000/svg">
<g clip-path="url(#clip0_374_516)">
<mask id="mask0_374_516" style="mask-type:luminance" maskUnits="userSpaceOnUse" x="0" y="2" width="33" height="47">
<path d="M1.09998 42.4001C7.29998 36.7001 12 31.9001 15.1 28.0001C18.2 24.1001 19.8 20.6001 19.8 17.5001C19.8 14.4001 19.3 13.9001 18.3 12.8001C17.3 11.7001 15.8 11.1001 14 11.1001C12.2 11.1001 11.3 11.5001 10.1 12.2001C8.89998 13.0001 7.69998 14.0001 6.39998 15.4001L0.599976 9.60011C2.89998 7.20011 5.19998 5.4001 7.39998 4.3001C9.69998 3.2001 12.4 2.6001 15.4 2.6001C18.4 2.6001 20.8 3.2001 23.1 4.3001C25.3 5.5001 27 7.1001 28.3 9.2001C29.5 11.3001 30.2 13.8001 30.2 16.6001C30.2 22.9001 25.7 30.7001 16.7 39.7001C19.7 39.3001 22.1 39.1001 24.1 39.1001H32.3V48.1001H1.19997V42.0001L1.09998 42.4001Z" fill="white"/>
</mask>
<g mask="url(#mask0_374_516)">
<path d="M-54.8 56.7L33.8999 -32" stroke="#DDDDDD" stroke-width="0.2"/>
<path d="M-35.9 56.7L52.8 -32" stroke="#DDDDDD" stroke-width="0.2"/>
<path d="M-48.5001 56.7L40.1999 -32" stroke="#DDDDDD" stroke-width="0.2"/>
<path d="M-45.3 56.7L43.3999 -32" stroke="#DDDDDD" stroke-width="0.2"/>
<path d="M-42.2001 56.7L46.4999 -32" stroke="#DDDDDD" stroke-width="0.2"/>
<path d="M-39.0001 56.7L49.6999 -32" stroke="#DDDDDD" stroke-width="0.2"/>
<path d="M-51.7001 56.7L37.0999 -32" stroke="#DDDDDD" stroke-width="0.2"/>
<path d="M-32.7001 56.7L55.9999 -32" stroke="#DDDDDD" stroke-width="0.2"/>
<path d="M-29.6 56.7L59.1 -32" stroke="#DDDDDD" stroke-width="0.2"/>
<path d="M-26.4 56.7L62.3 -32" stroke="#DDDDDD" stroke-width="0.2"/>
<path d="M-23.3 56.7L65.5 -32" stroke="#DDDDDD" stroke-width="0.2"/>
<path d="M-20.1 56.7L68.6 -32" stroke="#DDDDDD" stroke-width="0.2"/>
<path d="M-1.20007 56.7L87.5999 -32" stroke="#DDDDDD" stroke-width="0.2"/>
<path d="M-13.8 56.7L74.8999 -32" stroke="#DDDDDD" stroke-width="0.2"/>
<path d="M-10.6 56.7L78.1 -32" stroke="#DDDDDD" stroke-width="0.2"/>
<path d="M-7.50006 56.7L81.1999 -32" stroke="#DDDDDD" stroke-width="0.2"/>
<path d="M-4.30005 56.7L84.3999 -32" stroke="#DDDDDD" stroke-width="0.2"/>
<path d="M-16.9 56.7L71.8 -32" stroke="#DDDDDD" stroke-width="0.2"/>
<path d="M1.99994 56.7L90.6999 -32" stroke="#DDDDDD" stroke-width="0.2"/>
<path d="M5.09998 56.7L93.9 -32" stroke="#DDDDDD" stroke-width="0.2"/>
<path d="M8.29993 56.7L96.9999 -32" stroke="#DDDDDD" stroke-width="0.2"/>
<path d="M11.4999 56.7L100.2 -32" stroke="#DDDDDD" stroke-width="0.2"/>
<path d="M14.6 56.7L103.3 -32" stroke="#DDDDDD" stroke-width="0.2"/>
<path d="M20.9 56.7L109.6 -32" stroke="#DDDDDD" stroke-width="0.2"/>
<path d="M24.1 56.7L112.8 -32" stroke="#DDDDDD" stroke-width="0.2"/>
<path d="M27.2 56.7L116 -32" stroke="#DDDDDD" stroke-width="0.2"/>
<path d="M30.4 56.7L119.1 -32" stroke="#DDDDDD" stroke-width="0.2"/>
<path d="M17.7999 56.7L106.5 -32" stroke="#DDDDDD" stroke-width="0.2"/>
</g>
<path d="M1.09998 42.4001C7.29998 36.7001 12 31.9001 15.1 28.0001C18.2 24.1001 19.8 20.6001 19.8 17.5001C19.8 14.4001 19.3 13.9001 18.3 12.8001C17.3 11.7001 15.8 11.1001 14 11.1001C12.2 11.1001 11.3 11.5001 10.1 12.2001C8.89998 13.0001 7.69998 14.0001 6.39998 15.4001L0.599976 9.60011C2.89998 7.20011 5.19998 5.4001 7.39998 4.3001C9.69998 3.2001 12.4 2.6001 15.4 2.6001C18.4 2.6001 20.8 3.2001 23.1 4.3001C25.3 5.5001 27 7.1001 28.3 9.2001C29.5 11.3001 30.2 13.8001 30.2 16.6001C30.2 22.9001 25.7 30.7001 16.7 39.7001C19.7 39.3001 22.1 39.1001 24.1 39.1001H32.3V48.1001H1.19997V42.0001L1.09998 42.4001Z" stroke="#BBBABA" stroke-width="0.3" stroke-miterlimit="10"/>
<mask id="mask1_374_516" style="mask-type:luminance" maskUnits="userSpaceOnUse" x="36" y="2" width="33" height="48">
<path d="M44.3 46.6999C41.9 44.8999 40.1 42.1999 38.7 38.6999C37.4 35.1999 36.7 30.8999 36.7 25.8999C36.7 20.8999 37.4 16.5999 38.7 13.1999C40 9.6999 41.9 7.1999 44.2 5.4999C46.6 3.7999 49.4 2.8999 52.6 2.8999C55.8 2.8999 58.6 3.7999 61 5.4999C63.4 7.1999 65.2 9.7999 66.5 13.1999C67.8 16.5999 68.5 20.8999 68.5 25.8999C68.5 30.8999 67.8 35.1999 66.5 38.6999C65.2 42.1999 63.3 44.8999 61 46.6999C58.7 48.4999 55.8 49.3999 52.7 49.3999C49.6 49.3999 46.7 48.4999 44.4 46.6999H44.3ZM56.9 37.6999C57.9 35.4999 58.4 31.4999 58.4 25.7999C58.4 20.0999 57.9 16.1999 56.9 14.0999C55.9 11.9999 54.5 10.8999 52.7 10.8999C50.9 10.8999 49.5 11.9999 48.5 14.0999C47.5 16.1999 47 20.0999 47 25.7999C47 31.4999 47.5 35.4999 48.5 37.6999C49.5 39.8999 50.9 40.9999 52.7 40.9999C54.5 40.9999 55.9 39.8999 56.9 37.6999Z" fill="white"/>
</mask>
<g mask="url(#mask1_374_516)">
<path d="M-50.2 64.2L38.5 -24.5" stroke="#DDDDDD" stroke-width="0.2"/>
<path d="M-47 64.2L41.7 -24.5" stroke="#DDDDDD" stroke-width="0.2"/>
<path d="M-43.9 64.2L44.9 -24.5" stroke="#DDDDDD" stroke-width="0.2"/>
<path d="M-24.9 64.2L63.8 -24.5" stroke="#DDDDDD" stroke-width="0.2"/>
<path d="M-37.6 64.2L51.2 -24.5" stroke="#DDDDDD" stroke-width="0.2"/>
<path d="M-34.4 64.2L54.3 -24.5" stroke="#DDDDDD" stroke-width="0.2"/>
<path d="M-31.2 64.2L57.5 -24.5" stroke="#DDDDDD" stroke-width="0.2"/>
<path d="M-28.1 64.2L60.6 -24.5" stroke="#DDDDDD" stroke-width="0.2"/>
<path d="M-40.7 64.2L48 -24.5" stroke="#DDDDDD" stroke-width="0.2"/>
<path d="M-21.8 64.2L66.9 -24.5" stroke="#DDDDDD" stroke-width="0.2"/>
<path d="M-18.6 64.2L70.1 -24.5" stroke="#DDDDDD" stroke-width="0.2"/>
<path d="M-15.5 64.2L73.3 -24.5" stroke="#DDDDDD" stroke-width="0.2"/>
<path d="M-12.3 64.2L76.4 -24.5" stroke="#DDDDDD" stroke-width="0.2"/>
<path d="M-9.19995 64.2L79.6001 -24.5" stroke="#DDDDDD" stroke-width="0.2"/>
<path d="M9.80005 64.2L98.5 -24.5" stroke="#DDDDDD" stroke-width="0.2"/>
<path d="M-2.79999 64.2L85.9 -24.5" stroke="#DDDDDD" stroke-width="0.2"/>
<path d="M0.300049 64.2L89 -24.5" stroke="#DDDDDD" stroke-width="0.2"/>
<path d="M3.5 64.2L92.2 -24.5" stroke="#DDDDDD" stroke-width="0.2"/>
<path d="M6.60004 64.2L95.3 -24.5" stroke="#DDDDDD" stroke-width="0.2"/>
<path d="M-6 64.2L82.7 -24.5" stroke="#DDDDDD" stroke-width="0.2"/>
<path d="M12.9 64.2L101.7 -24.5" stroke="#DDDDDD" stroke-width="0.2"/>
<path d="M16.1 64.2L104.8 -24.5" stroke="#DDDDDD" stroke-width="0.2"/>
<path d="M19.3 64.2L108 -24.5" stroke="#DDDDDD" stroke-width="0.2"/>
<path d="M22.4 64.2L111.1 -24.5" stroke="#DDDDDD" stroke-width="0.2"/>
<path d="M25.6 64.2L114.3 -24.5" stroke="#DDDDDD" stroke-width="0.2"/>
<path d="M44.5 64.2L133.2 -24.5" stroke="#DDDDDD" stroke-width="0.2"/>
<path d="M31.9 64.2L120.6 -24.5" stroke="#DDDDDD" stroke-width="0.2"/>
<path d="M35 64.2L123.7 -24.5" stroke="#DDDDDD" stroke-width="0.2"/>
<path d="M38.2 64.2L126.9 -24.5" stroke="#DDDDDD" stroke-width="0.2"/>
<path d="M41.3 64.2L130.1 -24.5" stroke="#DDDDDD" stroke-width="0.2"/>
<path d="M28.7 64.2L117.4 -24.5" stroke="#DDDDDD" stroke-width="0.2"/>
<path d="M47.7 64.2L136.4 -24.5" stroke="#DDDDDD" stroke-width="0.2"/>
<path d="M50.8 64.2L139.5 -24.5" stroke="#DDDDDD" stroke-width="0.2"/>
<path d="M54 64.2L142.7 -24.5" stroke="#DDDDDD" stroke-width="0.2"/>
<path d="M57.1 64.2L145.8 -24.5" stroke="#DDDDDD" stroke-width="0.2"/>
<path d="M60.3 64.2L149 -24.5" stroke="#DDDDDD" stroke-width="0.2"/>
<path d="M63.4 64.2L152.1 -24.5" stroke="#DDDDDD" stroke-width="0.2"/>
<path d="M66.6 64.2L155.3 -24.5" stroke="#DDDDDD" stroke-width="0.2"/>
</g>
<path d="M44.3 46.6999C41.9 44.8999 40.1 42.1999 38.7 38.6999C37.4 35.1999 36.7 30.8999 36.7 25.8999C36.7 20.8999 37.4 16.5999 38.7 13.1999C40 9.6999 41.9 7.1999 44.2 5.4999C46.6 3.7999 49.4 2.8999 52.6 2.8999C55.8 2.8999 58.6 3.7999 61 5.4999C63.4 7.1999 65.2 9.7999 66.5 13.1999C67.8 16.5999 68.5 20.8999 68.5 25.8999C68.5 30.8999 67.8 35.1999 66.5 38.6999C65.2 42.1999 63.3 44.8999 61 46.6999C58.7 48.4999 55.8 49.3999 52.7 49.3999C49.6 49.3999 46.7 48.4999 44.4 46.6999H44.3ZM56.9 37.6999C57.9 35.4999 58.4 31.4999 58.4 25.7999C58.4 20.0999 57.9 16.1999 56.9 14.0999C55.9 11.9999 54.5 10.8999 52.7 10.8999C50.9 10.8999 49.5 11.9999 48.5 14.0999C47.5 16.1999 47 20.0999 47 25.7999C47 31.4999 47.5 35.4999 48.5 37.6999C49.5 39.8999 50.9 40.9999 52.7 40.9999C54.5 40.9999 55.9 39.8999 56.9 37.6999Z" stroke="#BBBABA" stroke-width="0.3" stroke-miterlimit="10"/>
<mask id="mask2_374_516" style="mask-type:luminance" maskUnits="userSpaceOnUse" x="75" y="3" width="29" height="46">
<path d="M75.7 39.9002H85.2V14.4002H76.9V7.8002C79.3 7.4002 81.3 6.8002 83 6.2002C84.7 5.6002 86.4 4.7002 88 3.7002H95.9V39.9002H104V48.6002H75.7V39.9002Z" fill="white"/>
</mask>
<g mask="url(#mask2_374_516)">
<path d="M-6.99994 66.7L81.7001 -22" stroke="#DDDDDD" stroke-width="0.2"/>
<path d="M-10.2 66.7L78.6001 -22" stroke="#DDDDDD" stroke-width="0.2"/>
<path d="M-3.89996 66.7L84.9 -22" stroke="#DDDDDD" stroke-width="0.2"/>
<path d="M-0.699951 66.7L88 -22" stroke="#DDDDDD" stroke-width="0.2"/>
<path d="M2.50006 66.7L91.2001 -22" stroke="#DDDDDD" stroke-width="0.2"/>
<path d="M5.60004 66.7L94.3 -22" stroke="#DDDDDD" stroke-width="0.2"/>
<path d="M8.80005 66.7L97.5 -22" stroke="#DDDDDD" stroke-width="0.2"/>
<path d="M27.7 66.7L116.4 -22" stroke="#DDDDDD" stroke-width="0.2"/>
<path d="M15.1 66.7L103.8 -22" stroke="#DDDDDD" stroke-width="0.2"/>
<path d="M18.2 66.7L107 -22" stroke="#DDDDDD" stroke-width="0.2"/>
<path d="M21.4 66.7L110.1 -22" stroke="#DDDDDD" stroke-width="0.2"/>
<path d="M24.5001 66.7L113.3 -22" stroke="#DDDDDD" stroke-width="0.2"/>
<path d="M11.9 66.7L100.6 -22" stroke="#DDDDDD" stroke-width="0.2"/>
<path d="M30.9 66.7L119.6 -22" stroke="#DDDDDD" stroke-width="0.2"/>
<path d="M34.0001 66.7L122.7 -22" stroke="#DDDDDD" stroke-width="0.2"/>
<path d="M37.2 66.7L125.9 -22" stroke="#DDDDDD" stroke-width="0.2"/>
<path d="M40.3 66.7L129 -22" stroke="#DDDDDD" stroke-width="0.2"/>
<path d="M43.5001 66.7L132.2 -22" stroke="#DDDDDD" stroke-width="0.2"/>
<path d="M62.4 66.7L151.1 -22" stroke="#DDDDDD" stroke-width="0.2"/>
<path d="M49.8 66.7L138.5 -22" stroke="#DDDDDD" stroke-width="0.2"/>
<path d="M53.0001 66.7L141.7 -22" stroke="#DDDDDD" stroke-width="0.2"/>
<path d="M56.1 66.7L144.8 -22" stroke="#DDDDDD" stroke-width="0.2"/>
<path d="M59.3 66.7L148 -22" stroke="#DDDDDD" stroke-width="0.2"/>
<path d="M46.6 66.7L135.4 -22" stroke="#DDDDDD" stroke-width="0.2"/>
<path d="M65.6 66.7L154.3 -22" stroke="#DDDDDD" stroke-width="0.2"/>
<path d="M68.7 66.7L157.4 -22" stroke="#DDDDDD" stroke-width="0.2"/>
<path d="M71.9 66.7L160.6 -22" stroke="#DDDDDD" stroke-width="0.2"/>
<path d="M75.0001 66.7L163.8 -22" stroke="#DDDDDD" stroke-width="0.2"/>
<path d="M78.2 66.7L166.9 -22" stroke="#DDDDDD" stroke-width="0.2"/>
<path d="M97.1 66.7L185.8 -22" stroke="#DDDDDD" stroke-width="0.2"/>
<path d="M84.5001 66.7L173.2 -22" stroke="#DDDDDD" stroke-width="0.2"/>
<path d="M87.7 66.7L176.4 -22" stroke="#DDDDDD" stroke-width="0.2"/>
<path d="M90.8 66.7L179.5 -22" stroke="#DDDDDD" stroke-width="0.2"/>
<path d="M94.0001 66.7L182.7 -22" stroke="#DDDDDD" stroke-width="0.2"/>
<path d="M81.4 66.7L170.1 -22" stroke="#DDDDDD" stroke-width="0.2"/>
<path d="M100.3 66.7L189 -22" stroke="#DDDDDD" stroke-width="0.2"/>
<path d="M103.4 66.7L192.2 -22" stroke="#DDDDDD" stroke-width="0.2"/>
</g>
<path d="M75.7 39.9002H85.2V14.4002H76.9V7.8002C79.3 7.4002 81.3 6.8002 83 6.2002C84.7 5.6002 86.4 4.7002 88 3.7002H95.9V39.9002H104V48.6002H75.7V39.9002Z" stroke="#BBBABA" stroke-width="0.3" stroke-miterlimit="10"/>
<mask id="mask3_374_516" style="mask-type:luminance" maskUnits="userSpaceOnUse" x="112" y="2" width="32" height="48">
<path d="M118.3 47.5C116.1 46.5 114.2 45.2 112.6 43.6L118.3 37.2C119.1 38.1 120.1 38.8 121.4 39.4C122.7 40 123.9 40.3 125.1 40.3C127.6 40.3 129.6 39.3 131.1 37.3C132.6 35.3 133.5 32 133.7 27.4C132.6 28.7 131.3 29.8 129.6 30.6C128 31.4 126.5 31.8 125.1 31.8C121.2 31.8 118 30.6 115.6 28.2C113.2 25.8 112 22.3 112 17.7C112 13.1 112.7 11.9 114 9.60001C115.3 7.30001 117.1 5.6 119.4 4.3C121.6 3.1 124.1 2.5 126.8 2.5C129.5 2.5 132.6 3.3 135.1 4.9C137.6 6.5 139.7 8.99999 141.2 12.4C142.7 15.8 143.5 20.1 143.5 25.3C143.5 30.5 142.7 34.9 141.1 38.4C139.5 42 137.3 44.6 134.6 46.4C131.9 48.2 129 49.1 125.8 49.1C122.6 49.1 120.5 48.6 118.3 47.6V47.5ZM123.3 22.6C124.3 23.6 125.6 24.2 127.2 24.2C128.8 24.2 129.6 23.8 130.7 23.1C131.8 22.4 132.7 21.3 133.5 19.9C133.1 16.5 132.3 14 131.1 12.6C129.9 11.1 128.6 10.4 127 10.4C125.4 10.4 124.2 11 123.2 12.1C122.2 13.3 121.7 15.1 121.7 17.5C121.7 19.9 122.2 21.5 123.2 22.5L123.3 22.6Z" fill="white"/>
</mask>
<g mask="url(#mask3_374_516)">
<path d="M36 71.4998L124.7 -17.2002" stroke="#DDDDDD" stroke-width="0.2"/>
<path d="M23.3 71.4998L112.1 -17.2002" stroke="#DDDDDD" stroke-width="0.2"/>
<path d="M26.5 71.4998L115.2 -17.2002" stroke="#DDDDDD" stroke-width="0.2"/>
<path d="M29.7 71.4998L118.4 -17.2002" stroke="#DDDDDD" stroke-width="0.2"/>
<path d="M32.8 71.4998L121.5 -17.2002" stroke="#DDDDDD" stroke-width="0.2"/>
<path d="M39.1 71.4998L127.8 -17.2002" stroke="#DDDDDD" stroke-width="0.2"/>
<path d="M42.3 71.4998L131 -17.2002" stroke="#DDDDDD" stroke-width="0.2"/>
<path d="M45.4 71.4998L134.2 -17.2002" stroke="#DDDDDD" stroke-width="0.2"/>
<path d="M48.6 71.4998L137.3 -17.2002" stroke="#DDDDDD" stroke-width="0.2"/>
<path d="M51.8 71.4998L140.5 -17.2002" stroke="#DDDDDD" stroke-width="0.2"/>
<path d="M70.7 71.4998L159.4 -17.2002" stroke="#DDDDDD" stroke-width="0.2"/>
<path d="M58.1 71.4998L146.8 -17.2002" stroke="#DDDDDD" stroke-width="0.2"/>
<path d="M61.2 71.4998L149.9 -17.2002" stroke="#DDDDDD" stroke-width="0.2"/>
<path d="M64.4 71.4998L153.1 -17.2002" stroke="#DDDDDD" stroke-width="0.2"/>
<path d="M67.5 71.4998L156.2 -17.2002" stroke="#DDDDDD" stroke-width="0.2"/>
<path d="M54.9 71.4998L143.6 -17.2002" stroke="#DDDDDD" stroke-width="0.2"/>
<path d="M73.8 71.4998L162.6 -17.2002" stroke="#DDDDDD" stroke-width="0.2"/>
<path d="M77 71.4998L165.7 -17.2002" stroke="#DDDDDD" stroke-width="0.2"/>
<path d="M80.2 71.4998L168.9 -17.2002" stroke="#DDDDDD" stroke-width="0.2"/>
<path d="M83.3 71.4998L172 -17.2002" stroke="#DDDDDD" stroke-width="0.2"/>
<path d="M86.5 71.4998L175.2 -17.2002" stroke="#DDDDDD" stroke-width="0.2"/>
<path d="M105.4 71.4998L194.1 -17.2002" stroke="#DDDDDD" stroke-width="0.2"/>
<path d="M92.8 71.4998L181.5 -17.2002" stroke="#DDDDDD" stroke-width="0.2"/>
<path d="M95.9 71.4998L184.6 -17.2002" stroke="#DDDDDD" stroke-width="0.2"/>
<path d="M99.1 71.4998L187.8 -17.2002" stroke="#DDDDDD" stroke-width="0.2"/>
<path d="M102.2 71.4998L191 -17.2002" stroke="#DDDDDD" stroke-width="0.2"/>
<path d="M89.6 71.4998L178.3 -17.2002" stroke="#DDDDDD" stroke-width="0.2"/>
<path d="M108.6 71.4998L197.3 -17.2002" stroke="#DDDDDD" stroke-width="0.2"/>
<path d="M111.7 71.4998L200.4 -17.2002" stroke="#DDDDDD" stroke-width="0.2"/>
<path d="M114.9 71.4998L203.6 -17.2002" stroke="#DDDDDD" stroke-width="0.2"/>
<path d="M118 71.4998L206.7 -17.2002" stroke="#DDDDDD" stroke-width="0.2"/>
<path d="M121.2 71.4998L209.9 -17.2002" stroke="#DDDDDD" stroke-width="0.2"/>
<path d="M124.3 71.4998L213 -17.2002" stroke="#DDDDDD" stroke-width="0.2"/>
<path d="M127.5 71.4998L216.2 -17.2002" stroke="#DDDDDD" stroke-width="0.2"/>
<path d="M133.8 71.4998L222.5 -17.2002" stroke="#DDDDDD" stroke-width="0.2"/>
<path d="M137 71.4998L225.7 -17.2002" stroke="#DDDDDD" stroke-width="0.2"/>
<path d="M140.1 71.4998L228.8 -17.2002" stroke="#DDDDDD" stroke-width="0.2"/>
<path d="M143.3 71.4998L232 -17.2002" stroke="#DDDDDD" stroke-width="0.2"/>
<path d="M130.6 71.4998L219.4 -17.2002" stroke="#DDDDDD" stroke-width="0.2"/>
</g>
<path d="M118.3 47.5C116.1 46.5 114.2 45.2 112.6 43.6L118.3 37.2C119.1 38.1 120.1 38.8 121.4 39.4C122.7 40 123.9 40.3 125.1 40.3C127.6 40.3 129.6 39.3 131.1 37.3C132.6 35.3 133.5 32 133.7 27.4C132.6 28.7 131.3 29.8 129.6 30.6C128 31.4 126.5 31.8 125.1 31.8C121.2 31.8 118 30.6 115.6 28.2C113.2 25.8 112 22.3 112 17.7C112 13.1 112.7 11.9 114 9.60001C115.3 7.30001 117.1 5.6 119.4 4.3C121.6 3.1 124.1 2.5 126.8 2.5C129.5 2.5 132.6 3.3 135.1 4.9C137.6 6.5 139.7 8.99999 141.2 12.4C142.7 15.8 143.5 20.1 143.5 25.3C143.5 30.5 142.7 34.9 141.1 38.4C139.5 42 137.3 44.6 134.6 46.4C131.9 48.2 129 49.1 125.8 49.1C122.6 49.1 120.5 48.6 118.3 47.6V47.5ZM123.3 22.6C124.3 23.6 125.6 24.2 127.2 24.2C128.8 24.2 129.6 23.8 130.7 23.1C131.8 22.4 132.7 21.3 133.5 19.9C133.1 16.5 132.3 14 131.1 12.6C129.9 11.1 128.6 10.4 127 10.4C125.4 10.4 124.2 11 123.2 12.1C122.2 13.3 121.7 15.1 121.7 17.5C121.7 19.9 122.2 21.5 123.2 22.5L123.3 22.6Z" stroke="#BBBABA" stroke-width="0.3"/>
</g>
<defs>
<clipPath id="clip0_374_516">
<rect width="144" height="49" fill="white"/>
</clipPath>
</defs>
</svg>
