<svg width="143" height="48" viewBox="0 0 143 48" fill="none" xmlns="http://www.w3.org/2000/svg">
<g clip-path="url(#clip0_376_1801)">
<mask id="mask0_376_1801" style="mask-type:luminance" maskUnits="userSpaceOnUse" x="0" y="0" width="32" height="46">
<path d="M0.699951 40.1999C6.89995 34.4999 11.6 29.6999 14.7 25.7999C17.8 21.8999 19.4 18.3999 19.4 15.2999C19.4 12.1999 18.9 11.6999 17.9 10.5999C16.9 9.49991 15.4 8.8999 13.6 8.8999C11.8 8.8999 10.9 9.29991 9.69995 9.99991C8.49995 10.7999 7.29995 11.7999 5.99995 13.1999L0.199951 7.3999C2.49995 4.9999 4.79995 3.19991 6.99995 2.09991C9.29995 0.999915 12 0.399902 15 0.399902C18 0.399902 20.4 0.999915 22.7 2.09991C24.9 3.29991 26.6 4.89991 27.9 6.99991C29.1 9.09991 29.8 11.5999 29.8 14.3999C29.8 20.6999 25.3 28.4999 16.3 37.4999C19.3 37.0999 21.7 36.8999 23.7 36.8999H31.9V45.8999H0.799957V39.7999L0.699951 40.1999Z" fill="white"/>
</mask>
<g mask="url(#mask0_376_1801)">
<path d="M-54.2001 54.4998L34.4999 -34.2002" stroke="#DDDDDD" stroke-width="0.2"/>
<path d="M-35.3 54.4998L53.3999 -34.2002" stroke="#DDDDDD" stroke-width="0.2"/>
<path d="M-47.9001 54.4998L40.7999 -34.2002" stroke="#DDDDDD" stroke-width="0.2"/>
<path d="M-44.8 54.4998L44 -34.2002" stroke="#DDDDDD" stroke-width="0.2"/>
<path d="M-41.6001 54.4998L47.0999 -34.2002" stroke="#DDDDDD" stroke-width="0.2"/>
<path d="M-38.4001 54.4998L50.2999 -34.2002" stroke="#DDDDDD" stroke-width="0.2"/>
<path d="M-51.1001 54.4998L37.5999 -34.2002" stroke="#DDDDDD" stroke-width="0.2"/>
<path d="M-32.1001 54.4998L56.5999 -34.2002" stroke="#DDDDDD" stroke-width="0.2"/>
<path d="M-29.0001 54.4998L59.6999 -34.2002" stroke="#DDDDDD" stroke-width="0.2"/>
<path d="M-25.8 54.4998L62.8999 -34.2002" stroke="#DDDDDD" stroke-width="0.2"/>
<path d="M-22.7001 54.4998L65.9999 -34.2002" stroke="#DDDDDD" stroke-width="0.2"/>
<path d="M-19.5001 54.4998L69.1999 -34.2002" stroke="#DDDDDD" stroke-width="0.2"/>
<path d="M-0.600098 54.4998L88.0999 -34.2002" stroke="#DDDDDD" stroke-width="0.2"/>
<path d="M-13.2001 54.4998L75.4999 -34.2002" stroke="#DDDDDD" stroke-width="0.2"/>
<path d="M-10.0001 54.4998L78.6999 -34.2002" stroke="#DDDDDD" stroke-width="0.2"/>
<path d="M-6.90009 54.4998L81.7999 -34.2002" stroke="#DDDDDD" stroke-width="0.2"/>
<path d="M-3.70007 54.4998L84.9999 -34.2002" stroke="#DDDDDD" stroke-width="0.2"/>
<path d="M-16.4001 54.4998L72.3999 -34.2002" stroke="#DDDDDD" stroke-width="0.2"/>
<path d="M2.59991 54.4998L91.2999 -34.2002" stroke="#DDDDDD" stroke-width="0.2"/>
<path d="M5.69995 54.4998L94.3999 -34.2002" stroke="#DDDDDD" stroke-width="0.2"/>
<path d="M8.8999 54.4998L97.5999 -34.2002" stroke="#DDDDDD" stroke-width="0.2"/>
<path d="M11.9999 54.4998L100.8 -34.2002" stroke="#DDDDDD" stroke-width="0.2"/>
<path d="M15.2 54.4998L103.9 -34.2002" stroke="#DDDDDD" stroke-width="0.2"/>
<path d="M21.4999 54.4998L110.2 -34.2002" stroke="#DDDDDD" stroke-width="0.2"/>
<path d="M24.7 54.4998L113.4 -34.2002" stroke="#DDDDDD" stroke-width="0.2"/>
<path d="M27.7999 54.4998L116.5 -34.2002" stroke="#DDDDDD" stroke-width="0.2"/>
<path d="M30.9999 54.4998L119.7 -34.2002" stroke="#DDDDDD" stroke-width="0.2"/>
<path d="M18.3999 54.4998L107.1 -34.2002" stroke="#DDDDDD" stroke-width="0.2"/>
</g>
<path d="M0.699951 40.1999C6.89995 34.4999 11.6 29.6999 14.7 25.7999C17.8 21.8999 19.4 18.3999 19.4 15.2999C19.4 12.1999 18.9 11.6999 17.9 10.5999C16.9 9.49991 15.4 8.8999 13.6 8.8999C11.8 8.8999 10.9 9.29991 9.69995 9.99991C8.49995 10.7999 7.29995 11.7999 5.99995 13.1999L0.199951 7.3999C2.49995 4.9999 4.79995 3.19991 6.99995 2.09991C9.29995 0.999915 12 0.399902 15 0.399902C18 0.399902 20.4 0.999915 22.7 2.09991C24.9 3.29991 26.6 4.89991 27.9 6.99991C29.1 9.09991 29.8 11.5999 29.8 14.3999C29.8 20.6999 25.3 28.4999 16.3 37.4999C19.3 37.0999 21.7 36.8999 23.7 36.8999H31.9V45.8999H0.799957V39.7999L0.699951 40.1999Z" stroke="#BBBABA" stroke-width="0.3" stroke-miterlimit="10"/>
<mask id="mask1_376_1801" style="mask-type:luminance" maskUnits="userSpaceOnUse" x="37" y="0" width="33" height="48">
<path d="M44.9 44.5002C42.5 42.7002 40.7 40.0002 39.3 36.5002C38 33.0002 37.3 28.7002 37.3 23.7002C37.3 18.7002 38 14.4002 39.3 11.0002C40.6 7.5002 42.5 5.0002 44.8 3.3002C47.2 1.6002 50 0.700195 53.2 0.700195C56.4 0.700195 59.2001 1.6002 61.6001 3.3002C64.0001 5.0002 65.8001 7.6002 67.1001 11.0002C68.4001 14.4002 69.1001 18.7002 69.1001 23.7002C69.1001 28.7002 68.4001 33.0002 67.1001 36.5002C65.8001 40.0002 63.9001 42.7002 61.6001 44.5002C59.3001 46.3002 56.4 47.2002 53.3 47.2002C50.2 47.2002 47.3 46.3002 45 44.5002H44.9ZM57.5 35.6002C58.5 33.4002 59 29.4002 59 23.7002C59 18.0002 58.5 14.1002 57.5 12.0002C56.5 9.9002 55.1 8.8002 53.3 8.8002C51.5 8.8002 50.1001 9.9002 49.1001 12.0002C48.1001 14.1002 47.6 18.0002 47.6 23.7002C47.6 29.4002 48.1001 33.4002 49.1001 35.6002C50.1001 37.8002 51.5 38.9002 53.3 38.9002C55.1 38.9002 56.5 37.8002 57.5 35.6002Z" fill="white"/>
</mask>
<g mask="url(#mask1_376_1801)">
<path d="M-49.5999 62.0003L39.1001 -26.6997" stroke="#DDDDDD" stroke-width="0.2"/>
<path d="M-46.4 62.0003L42.3 -26.6997" stroke="#DDDDDD" stroke-width="0.2"/>
<path d="M-43.2999 62.0003L45.4001 -26.6997" stroke="#DDDDDD" stroke-width="0.2"/>
<path d="M-24.2999 62.0003L64.4001 -26.6997" stroke="#DDDDDD" stroke-width="0.2"/>
<path d="M-36.9999 62.0003L51.7001 -26.6997" stroke="#DDDDDD" stroke-width="0.2"/>
<path d="M-33.7999 62.0003L54.9001 -26.6997" stroke="#DDDDDD" stroke-width="0.2"/>
<path d="M-30.7 62.0003L58.1001 -26.6997" stroke="#DDDDDD" stroke-width="0.2"/>
<path d="M-27.4999 62.0003L61.2001 -26.6997" stroke="#DDDDDD" stroke-width="0.2"/>
<path d="M-40.0999 62.0003L48.6001 -26.6997" stroke="#DDDDDD" stroke-width="0.2"/>
<path d="M-21.2 62.0003L67.5 -26.6997" stroke="#DDDDDD" stroke-width="0.2"/>
<path d="M-17.9999 62.0003L70.7001 -26.6997" stroke="#DDDDDD" stroke-width="0.2"/>
<path d="M-14.9 62.0003L73.8 -26.6997" stroke="#DDDDDD" stroke-width="0.2"/>
<path d="M-11.7 62.0003L77 -26.6997" stroke="#DDDDDD" stroke-width="0.2"/>
<path d="M-8.59991 62.0003L80.1001 -26.6997" stroke="#DDDDDD" stroke-width="0.2"/>
<path d="M10.4001 62.0003L99.1001 -26.6997" stroke="#DDDDDD" stroke-width="0.2"/>
<path d="M-2.29993 62.0003L86.5001 -26.6997" stroke="#DDDDDD" stroke-width="0.2"/>
<path d="M0.900085 62.0003L89.6001 -26.6997" stroke="#DDDDDD" stroke-width="0.2"/>
<path d="M4.10004 62.0003L92.8 -26.6997" stroke="#DDDDDD" stroke-width="0.2"/>
<path d="M7.20007 62.0003L95.9001 -26.6997" stroke="#DDDDDD" stroke-width="0.2"/>
<path d="M-5.39996 62.0003L83.3 -26.6997" stroke="#DDDDDD" stroke-width="0.2"/>
<path d="M13.5001 62.0003L102.2 -26.6997" stroke="#DDDDDD" stroke-width="0.2"/>
<path d="M16.7001 62.0003L105.4 -26.6997" stroke="#DDDDDD" stroke-width="0.2"/>
<path d="M19.8 62.0003L108.6 -26.6997" stroke="#DDDDDD" stroke-width="0.2"/>
<path d="M23.0001 62.0003L111.7 -26.6997" stroke="#DDDDDD" stroke-width="0.2"/>
<path d="M26.1 62.0003L114.9 -26.6997" stroke="#DDDDDD" stroke-width="0.2"/>
<path d="M45.1 62.0003L133.8 -26.6997" stroke="#DDDDDD" stroke-width="0.2"/>
<path d="M32.5001 62.0003L121.2 -26.6997" stroke="#DDDDDD" stroke-width="0.2"/>
<path d="M35.6 62.0003L124.3 -26.6997" stroke="#DDDDDD" stroke-width="0.2"/>
<path d="M38.8 62.0003L127.5 -26.6997" stroke="#DDDDDD" stroke-width="0.2"/>
<path d="M41.9001 62.0003L130.6 -26.6997" stroke="#DDDDDD" stroke-width="0.2"/>
<path d="M29.3 62.0003L118 -26.6997" stroke="#DDDDDD" stroke-width="0.2"/>
<path d="M48.2001 62.0003L137 -26.6997" stroke="#DDDDDD" stroke-width="0.2"/>
<path d="M51.4 62.0003L140.1 -26.6997" stroke="#DDDDDD" stroke-width="0.2"/>
<path d="M54.6001 62.0003L143.3 -26.6997" stroke="#DDDDDD" stroke-width="0.2"/>
<path d="M57.7001 62.0003L146.4 -26.6997" stroke="#DDDDDD" stroke-width="0.2"/>
<path d="M60.9 62.0003L149.6 -26.6997" stroke="#DDDDDD" stroke-width="0.2"/>
<path d="M64.0001 62.0003L152.7 -26.6997" stroke="#DDDDDD" stroke-width="0.2"/>
<path d="M67.2001 62.0003L155.9 -26.6997" stroke="#DDDDDD" stroke-width="0.2"/>
</g>
<path d="M44.9 44.5002C42.5 42.7002 40.7 40.0002 39.3 36.5002C38 33.0002 37.3 28.7002 37.3 23.7002C37.3 18.7002 38 14.4002 39.3 11.0002C40.6 7.5002 42.5 5.0002 44.8 3.3002C47.2 1.6002 50 0.700195 53.2 0.700195C56.4 0.700195 59.2001 1.6002 61.6001 3.3002C64.0001 5.0002 65.8001 7.6002 67.1001 11.0002C68.4001 14.4002 69.1001 18.7002 69.1001 23.7002C69.1001 28.7002 68.4001 33.0002 67.1001 36.5002C65.8001 40.0002 63.9001 42.7002 61.6001 44.5002C59.3001 46.3002 56.4 47.2002 53.3 47.2002C50.2 47.2002 47.3 46.3002 45 44.5002H44.9ZM57.5 35.6002C58.5 33.4002 59 29.4002 59 23.7002C59 18.0002 58.5 14.1002 57.5 12.0002C56.5 9.9002 55.1 8.8002 53.3 8.8002C51.5 8.8002 50.1001 9.9002 49.1001 12.0002C48.1001 14.1002 47.6 18.0002 47.6 23.7002C47.6 29.4002 48.1001 33.4002 49.1001 35.6002C50.1001 37.8002 51.5 38.9002 53.3 38.9002C55.1 38.9002 56.5 37.8002 57.5 35.6002Z" stroke="#BBBABA" stroke-width="0.3" stroke-miterlimit="10"/>
<mask id="mask2_376_1801" style="mask-type:luminance" maskUnits="userSpaceOnUse" x="73" y="0" width="32" height="47">
<path d="M73.8 40.5998C80 34.8998 84.7 30.0998 87.8 26.1998C90.9 22.2998 92.5 18.7998 92.5 15.6998C92.5 12.5998 92 12.0998 91 10.9998C90 9.8998 88.5 9.2998 86.7 9.2998C84.9 9.2998 84 9.6998 82.8 10.3998C81.6 11.1998 80.4001 12.1998 79.1001 13.5998L73.3 7.7998C75.6 5.3998 77.9001 3.5998 80.1001 2.4998C82.4001 1.3998 85.1001 0.799805 88.1001 0.799805C91.1001 0.799805 93.5 1.3998 95.8 2.4998C98 3.6998 99.7 5.2998 101 7.3998C102.2 9.4998 102.9 11.9998 102.9 14.7998C102.9 21.0998 98.4 28.8998 89.4 37.8998C92.4 37.4998 94.8 37.2998 96.8 37.2998H105V46.2998H73.9V40.1998L73.8 40.5998Z" fill="white"/>
</mask>
<g mask="url(#mask2_376_1801)">
<path d="M1.10004 59.7L89.8 -29" stroke="#DDDDDD" stroke-width="0.2"/>
<path d="M20.0001 59.7L108.8 -29" stroke="#DDDDDD" stroke-width="0.2"/>
<path d="M7.40002 59.7L96.1 -29" stroke="#DDDDDD" stroke-width="0.2"/>
<path d="M10.6 59.7L99.3 -29" stroke="#DDDDDD" stroke-width="0.2"/>
<path d="M13.7 59.7L102.4 -29" stroke="#DDDDDD" stroke-width="0.2"/>
<path d="M16.9 59.7L105.6 -29" stroke="#DDDDDD" stroke-width="0.2"/>
<path d="M4.30005 59.7L93 -29" stroke="#DDDDDD" stroke-width="0.2"/>
<path d="M23.2 59.7L111.9 -29" stroke="#DDDDDD" stroke-width="0.2"/>
<path d="M26.4 59.7L115.1 -29" stroke="#DDDDDD" stroke-width="0.2"/>
<path d="M29.5001 59.7L118.2 -29" stroke="#DDDDDD" stroke-width="0.2"/>
<path d="M32.7 59.7L121.4 -29" stroke="#DDDDDD" stroke-width="0.2"/>
<path d="M35.8 59.7L124.5 -29" stroke="#DDDDDD" stroke-width="0.2"/>
<path d="M54.8 59.7L143.5 -29" stroke="#DDDDDD" stroke-width="0.2"/>
<path d="M42.1 59.7L130.8 -29" stroke="#DDDDDD" stroke-width="0.2"/>
<path d="M45.3 59.7L134 -29" stroke="#DDDDDD" stroke-width="0.2"/>
<path d="M48.4 59.7L137.2 -29" stroke="#DDDDDD" stroke-width="0.2"/>
<path d="M51.6 59.7L140.3 -29" stroke="#DDDDDD" stroke-width="0.2"/>
<path d="M39.0001 59.7L127.7 -29" stroke="#DDDDDD" stroke-width="0.2"/>
<path d="M57.9 59.7L146.6 -29" stroke="#DDDDDD" stroke-width="0.2"/>
<path d="M61.1 59.7L149.8 -29" stroke="#DDDDDD" stroke-width="0.2"/>
<path d="M64.2 59.7L152.9 -29" stroke="#DDDDDD" stroke-width="0.2"/>
<path d="M67.4 59.7L156.1 -29" stroke="#DDDDDD" stroke-width="0.2"/>
<path d="M70.5001 59.7L159.2 -29" stroke="#DDDDDD" stroke-width="0.2"/>
<path d="M89.5001 59.7L178.2 -29" stroke="#DDDDDD" stroke-width="0.2"/>
<path d="M76.8 59.7L165.6 -29" stroke="#DDDDDD" stroke-width="0.2"/>
<path d="M80.0001 59.7L168.7 -29" stroke="#DDDDDD" stroke-width="0.2"/>
<path d="M83.2 59.7L171.9 -29" stroke="#DDDDDD" stroke-width="0.2"/>
<path d="M86.3 59.7L175 -29" stroke="#DDDDDD" stroke-width="0.2"/>
<path d="M73.7 59.7L162.4 -29" stroke="#DDDDDD" stroke-width="0.2"/>
<path d="M92.6 59.7L181.3 -29" stroke="#DDDDDD" stroke-width="0.2"/>
<path d="M95.8 59.7L184.5 -29" stroke="#DDDDDD" stroke-width="0.2"/>
<path d="M98.9 59.7L187.7 -29" stroke="#DDDDDD" stroke-width="0.2"/>
<path d="M102.1 59.7L190.8 -29" stroke="#DDDDDD" stroke-width="0.2"/>
</g>
<path d="M73.8 40.5998C80 34.8998 84.7 30.0998 87.8 26.1998C90.9 22.2998 92.5 18.7998 92.5 15.6998C92.5 12.5998 92 12.0998 91 10.9998C90 9.8998 88.5 9.2998 86.7 9.2998C84.9 9.2998 84 9.6998 82.8 10.3998C81.6 11.1998 80.4001 12.1998 79.1001 13.5998L73.3 7.7998C75.6 5.3998 77.9001 3.5998 80.1001 2.4998C82.4001 1.3998 85.1001 0.799805 88.1001 0.799805C91.1001 0.799805 93.5 1.3998 95.8 2.4998C98 3.6998 99.7 5.2998 101 7.3998C102.2 9.4998 102.9 11.9998 102.9 14.7998C102.9 21.0998 98.4 28.8998 89.4 37.8998C92.4 37.4998 94.8 37.2998 96.8 37.2998H105V46.2998H73.9V40.1998L73.8 40.5998Z" stroke="#BBBABA" stroke-width="0.3" stroke-miterlimit="10"/>
<mask id="mask3_376_1801" style="mask-type:luminance" maskUnits="userSpaceOnUse" x="110" y="1" width="33" height="47">
<path d="M118.1 44.9001C115.7 43.1001 113.9 40.4001 112.5 36.9001C111.1 33.4001 110.5 29.1001 110.5 24.1001C110.5 19.1001 111.2 14.8001 112.5 11.4001C113.8 7.90009 115.7 5.40009 118 3.70009C120.4 2.00009 123.2 1.1001 126.4 1.1001C129.6 1.1001 132.4 2.00009 134.8 3.70009C137.2 5.40009 139 8.00009 140.3 11.4001C141.6 14.8001 142.3 19.1001 142.3 24.1001C142.3 29.1001 141.6 33.4001 140.3 36.9001C139 40.4001 137.1 43.1001 134.8 44.9001C132.5 46.7001 129.6 47.6001 126.5 47.6001C123.4 47.6001 120.5 46.7001 118.2 44.9001H118.1ZM130.6 36.0001C131.6 33.8001 132.1 29.8001 132.1 24.1001C132.1 18.4001 131.6 14.5001 130.6 12.4001C129.6 10.3001 128.2 9.20009 126.4 9.20009C124.6 9.20009 123.2 10.3001 122.2 12.4001C121.2 14.5001 120.7 18.4001 120.7 24.1001C120.7 29.8001 121.2 33.8001 122.2 36.0001C123.2 38.2001 124.6 39.3001 126.4 39.3001C128.2 39.3001 129.6 38.2001 130.6 36.0001Z" fill="white"/>
</mask>
<g mask="url(#mask3_376_1801)">
<path d="M25.4 82.9002L114.1 -5.7998" stroke="#DDDDDD" stroke-width="0.2"/>
<path d="M44.3 82.9002L133 -5.7998" stroke="#DDDDDD" stroke-width="0.2"/>
<path d="M31.7 82.9002L120.4 -5.7998" stroke="#DDDDDD" stroke-width="0.2"/>
<path d="M34.9 82.9002L123.6 -5.7998" stroke="#DDDDDD" stroke-width="0.2"/>
<path d="M38 82.9002L126.7 -5.7998" stroke="#DDDDDD" stroke-width="0.2"/>
<path d="M41.2 82.9002L129.9 -5.7998" stroke="#DDDDDD" stroke-width="0.2"/>
<path d="M28.6 82.9002L117.3 -5.7998" stroke="#DDDDDD" stroke-width="0.2"/>
<path d="M47.5 82.9002L136.2 -5.7998" stroke="#DDDDDD" stroke-width="0.2"/>
<path d="M50.6 82.9002L139.4 -5.7998" stroke="#DDDDDD" stroke-width="0.2"/>
<path d="M53.8 82.9002L142.5 -5.7998" stroke="#DDDDDD" stroke-width="0.2"/>
<path d="M57 82.9002L145.7 -5.7998" stroke="#DDDDDD" stroke-width="0.2"/>
<path d="M60.1 82.9002L148.8 -5.7998" stroke="#DDDDDD" stroke-width="0.2"/>
<path d="M79 82.9002L167.8 -5.7998" stroke="#DDDDDD" stroke-width="0.2"/>
<path d="M66.4 82.9002L155.1 -5.7998" stroke="#DDDDDD" stroke-width="0.2"/>
<path d="M69.6 82.9002L158.3 -5.7998" stroke="#DDDDDD" stroke-width="0.2"/>
<path d="M72.7 82.9002L161.5 -5.7998" stroke="#DDDDDD" stroke-width="0.2"/>
<path d="M75.9 82.9002L164.6 -5.7998" stroke="#DDDDDD" stroke-width="0.2"/>
<path d="M63.3 82.9002L152 -5.7998" stroke="#DDDDDD" stroke-width="0.2"/>
<path d="M82.2 82.9002L170.9 -5.7998" stroke="#DDDDDD" stroke-width="0.2"/>
<path d="M85.4 82.9002L174.1 -5.7998" stroke="#DDDDDD" stroke-width="0.2"/>
<path d="M88.5 82.9002L177.2 -5.7998" stroke="#DDDDDD" stroke-width="0.2"/>
<path d="M91.7 82.9002L180.4 -5.7998" stroke="#DDDDDD" stroke-width="0.2"/>
<path d="M94.8 82.9002L183.5 -5.7998" stroke="#DDDDDD" stroke-width="0.2"/>
<path d="M113.8 82.9002L202.5 -5.7998" stroke="#DDDDDD" stroke-width="0.2"/>
<path d="M101.1 82.9002L189.9 -5.7998" stroke="#DDDDDD" stroke-width="0.2"/>
<path d="M104.3 82.9002L193 -5.7998" stroke="#DDDDDD" stroke-width="0.2"/>
<path d="M107.5 82.9002L196.2 -5.7998" stroke="#DDDDDD" stroke-width="0.2"/>
<path d="M110.6 82.9002L199.3 -5.7998" stroke="#DDDDDD" stroke-width="0.2"/>
<path d="M98 82.9002L186.7 -5.7998" stroke="#DDDDDD" stroke-width="0.2"/>
<path d="M116.9 82.9002L205.6 -5.7998" stroke="#DDDDDD" stroke-width="0.2"/>
<path d="M120.1 82.9002L208.8 -5.7998" stroke="#DDDDDD" stroke-width="0.2"/>
<path d="M123.2 82.9002L211.9 -5.7998" stroke="#DDDDDD" stroke-width="0.2"/>
<path d="M126.4 82.9002L215.1 -5.7998" stroke="#DDDDDD" stroke-width="0.2"/>
<path d="M129.5 82.9002L218.3 -5.7998" stroke="#DDDDDD" stroke-width="0.2"/>
<path d="M135.9 82.9002L224.6 -5.7998" stroke="#DDDDDD" stroke-width="0.2"/>
<path d="M139 82.9002L227.7 -5.7998" stroke="#DDDDDD" stroke-width="0.2"/>
<path d="M142.2 82.9002L230.9 -5.7998" stroke="#DDDDDD" stroke-width="0.2"/>
<path d="M132.7 82.9002L221.4 -5.7998" stroke="#DDDDDD" stroke-width="0.2"/>
</g>
<path d="M118.1 44.9001C115.7 43.1001 113.9 40.4001 112.5 36.9001C111.1 33.4001 110.5 29.1001 110.5 24.1001C110.5 19.1001 111.2 14.8001 112.5 11.4001C113.8 7.90009 115.7 5.40009 118 3.70009C120.4 2.00009 123.2 1.1001 126.4 1.1001C129.6 1.1001 132.4 2.00009 134.8 3.70009C137.2 5.40009 139 8.00009 140.3 11.4001C141.6 14.8001 142.3 19.1001 142.3 24.1001C142.3 29.1001 141.6 33.4001 140.3 36.9001C139 40.4001 137.1 43.1001 134.8 44.9001C132.5 46.7001 129.6 47.6001 126.5 47.6001C123.4 47.6001 120.5 46.7001 118.2 44.9001H118.1ZM130.6 36.0001C131.6 33.8001 132.1 29.8001 132.1 24.1001C132.1 18.4001 131.6 14.5001 130.6 12.4001C129.6 10.3001 128.2 9.20009 126.4 9.20009C124.6 9.20009 123.2 10.3001 122.2 12.4001C121.2 14.5001 120.7 18.4001 120.7 24.1001C120.7 29.8001 121.2 33.8001 122.2 36.0001C123.2 38.2001 124.6 39.3001 126.4 39.3001C128.2 39.3001 129.6 38.2001 130.6 36.0001Z" stroke="#BBBABA" stroke-width="0.3" stroke-miterlimit="10"/>
</g>
<defs>
<clipPath id="clip0_376_1801">
<rect width="143" height="48" fill="white"/>
</clipPath>
</defs>
</svg>
