<svg width="142" height="47" viewBox="0 0 142 47" fill="none" xmlns="http://www.w3.org/2000/svg">
<g clip-path="url(#clip0_376_2058)">
<mask id="mask0_376_2058" style="mask-type:luminance" maskUnits="userSpaceOnUse" x="0" y="0" width="33" height="46">
<path d="M1 39.8C7.2 34.1 11.9 29.3 15 25.4C18.1 21.5 19.7 18 19.7 14.9C19.7 11.8 19.2 11.3 18.2 10.2C17.2 9.1 15.7 8.5 13.9 8.5C12.1 8.5 11.2 8.90001 10 9.60001C8.8 10.4 7.6 11.4 6.3 12.8L0.5 7C2.8 4.6 5.1 2.8 7.3 1.7C9.6 0.599997 12.3 0 15.3 0C18.3 0 20.7 0.599997 23 1.7C25.2 2.9 26.9 4.50001 28.2 6.60001C29.4 8.70001 30.1 11.2 30.1 14C30.1 20.3 25.6 28.1 16.6 37.1C19.6 36.7 22 36.5 24 36.5H32.2V45.5H1.1V39.4L1 39.8Z" fill="white"/>
</mask>
<g mask="url(#mask0_376_2058)">
<path d="M-53.9 54.0999L34.8 -34.6001" stroke="#DDDDDD" stroke-width="0.2"/>
<path d="M-35 54.0999L53.7 -34.6001" stroke="#DDDDDD" stroke-width="0.2"/>
<path d="M-47.6 54.0999L41.1 -34.6001" stroke="#DDDDDD" stroke-width="0.2"/>
<path d="M-44.5 54.0999L44.2 -34.6001" stroke="#DDDDDD" stroke-width="0.2"/>
<path d="M-41.3 54.0999L47.3999 -34.6001" stroke="#DDDDDD" stroke-width="0.2"/>
<path d="M-38.2 54.0999L50.6 -34.6001" stroke="#DDDDDD" stroke-width="0.2"/>
<path d="M-50.8 54.0999L37.8999 -34.6001" stroke="#DDDDDD" stroke-width="0.2"/>
<path d="M-31.8 54.0999L56.8999 -34.6001" stroke="#DDDDDD" stroke-width="0.2"/>
<path d="M-28.7 54.0999L60 -34.6001" stroke="#DDDDDD" stroke-width="0.2"/>
<path d="M-25.5 54.0999L63.2 -34.6001" stroke="#DDDDDD" stroke-width="0.2"/>
<path d="M-22.4 54.0999L66.3 -34.6001" stroke="#DDDDDD" stroke-width="0.2"/>
<path d="M-19.2 54.0999L69.5 -34.6001" stroke="#DDDDDD" stroke-width="0.2"/>
<path d="M-0.300049 54.0999L88.3999 -34.6001" stroke="#DDDDDD" stroke-width="0.2"/>
<path d="M-12.9 54.0999L75.8 -34.6001" stroke="#DDDDDD" stroke-width="0.2"/>
<path d="M-9.80005 54.0999L79 -34.6001" stroke="#DDDDDD" stroke-width="0.2"/>
<path d="M-6.60004 54.0999L82.1 -34.6001" stroke="#DDDDDD" stroke-width="0.2"/>
<path d="M-3.40002 54.0999L85.3 -34.6001" stroke="#DDDDDD" stroke-width="0.2"/>
<path d="M-16.1 54.0999L72.6 -34.6001" stroke="#DDDDDD" stroke-width="0.2"/>
<path d="M2.89996 54.0999L91.6 -34.6001" stroke="#DDDDDD" stroke-width="0.2"/>
<path d="M6 54.0999L94.7 -34.6001" stroke="#DDDDDD" stroke-width="0.2"/>
<path d="M9.19995 54.0999L97.8999 -34.6001" stroke="#DDDDDD" stroke-width="0.2"/>
<path d="M12.3 54.0999L101 -34.6001" stroke="#DDDDDD" stroke-width="0.2"/>
<path d="M15.5 54.0999L104.2 -34.6001" stroke="#DDDDDD" stroke-width="0.2"/>
<path d="M21.8 54.0999L110.5 -34.6001" stroke="#DDDDDD" stroke-width="0.2"/>
<path d="M25 54.0999L113.7 -34.6001" stroke="#DDDDDD" stroke-width="0.2"/>
<path d="M28.1 54.0999L116.8 -34.6001" stroke="#DDDDDD" stroke-width="0.2"/>
<path d="M31.3 54.0999L120 -34.6001" stroke="#DDDDDD" stroke-width="0.2"/>
<path d="M18.6 54.0999L107.4 -34.6001" stroke="#DDDDDD" stroke-width="0.2"/>
</g>
<path d="M1 39.8C7.2 34.1 11.9 29.3 15 25.4C18.1 21.5 19.7 18 19.7 14.9C19.7 11.8 19.2 11.3 18.2 10.2C17.2 9.1 15.7 8.5 13.9 8.5C12.1 8.5 11.2 8.90001 10 9.60001C8.8 10.4 7.6 11.4 6.3 12.8L0.5 7C2.8 4.6 5.1 2.8 7.3 1.7C9.6 0.599997 12.3 0 15.3 0C18.3 0 20.7 0.599997 23 1.7C25.2 2.9 26.9 4.50001 28.2 6.60001C29.4 8.70001 30.1 11.2 30.1 14C30.1 20.3 25.6 28.1 16.6 37.1C19.6 36.7 22 36.5 24 36.5H32.2V45.5H1.1V39.4L1 39.8Z" stroke="#BBBABA" stroke-width="0.3" stroke-miterlimit="10"/>
<mask id="mask1_376_2058" style="mask-type:luminance" maskUnits="userSpaceOnUse" x="37" y="0" width="33" height="47">
<path d="M45.2 44.0998C42.8 42.2998 41 39.5998 39.6 36.0998C38.3 32.5998 37.6 28.2998 37.6 23.2998C37.6 18.2998 38.3 13.9998 39.6 10.5998C40.9 7.09981 42.8 4.5998 45.1 2.8998C47.5 1.1998 50.3 0.299805 53.5 0.299805C56.7 0.299805 59.5 1.1998 61.9 2.8998C64.3 4.5998 66.1 7.19981 67.4 10.5998C68.7 13.9998 69.4 18.2998 69.4 23.2998C69.4 28.2998 68.7 32.5998 67.4 36.0998C66.1 39.5998 64.2 42.2998 61.9 44.0998C59.6 45.8998 56.7 46.7998 53.6 46.7998C50.5 46.7998 47.6 45.8998 45.3 44.0998H45.2ZM57.7 35.1998C58.7 32.9998 59.2 28.9998 59.2 23.2998C59.2 17.5998 58.7 13.6998 57.7 11.5998C56.7 9.49981 55.3 8.3998 53.5 8.3998C51.7 8.3998 50.3 9.49981 49.3 11.5998C48.3 13.6998 47.8 17.5998 47.8 23.2998C47.8 28.9998 48.3 32.9998 49.3 35.1998C50.3 37.3998 51.7 38.4998 53.5 38.4998C55.3 38.4998 56.7 37.3998 57.7 35.1998Z" fill="white"/>
</mask>
<g mask="url(#mask1_376_2058)">
<path d="M-49.3 61.5999L39.4 -27.1001" stroke="#DDDDDD" stroke-width="0.2"/>
<path d="M-46.1 61.5999L42.6 -27.1001" stroke="#DDDDDD" stroke-width="0.2"/>
<path d="M-43 61.5999L45.7 -27.1001" stroke="#DDDDDD" stroke-width="0.2"/>
<path d="M-24.1 61.5999L64.7 -27.1001" stroke="#DDDDDD" stroke-width="0.2"/>
<path d="M-36.7 61.5999L52 -27.1001" stroke="#DDDDDD" stroke-width="0.2"/>
<path d="M-33.5 61.5999L55.2 -27.1001" stroke="#DDDDDD" stroke-width="0.2"/>
<path d="M-30.4 61.5999L58.3 -27.1001" stroke="#DDDDDD" stroke-width="0.2"/>
<path d="M-27.2 61.5999L61.5 -27.1001" stroke="#DDDDDD" stroke-width="0.2"/>
<path d="M-39.8 61.5999L48.9 -27.1001" stroke="#DDDDDD" stroke-width="0.2"/>
<path d="M-20.9 61.5999L67.8 -27.1001" stroke="#DDDDDD" stroke-width="0.2"/>
<path d="M-17.7 61.5999L71 -27.1001" stroke="#DDDDDD" stroke-width="0.2"/>
<path d="M-14.6 61.5999L74.1 -27.1001" stroke="#DDDDDD" stroke-width="0.2"/>
<path d="M-11.4 61.5999L77.3 -27.1001" stroke="#DDDDDD" stroke-width="0.2"/>
<path d="M-8.30005 61.5999L80.3999 -27.1001" stroke="#DDDDDD" stroke-width="0.2"/>
<path d="M10.7 61.5999L99.3999 -27.1001" stroke="#DDDDDD" stroke-width="0.2"/>
<path d="M-2 61.5999L86.7 -27.1001" stroke="#DDDDDD" stroke-width="0.2"/>
<path d="M1.19995 61.5999L89.8999 -27.1001" stroke="#DDDDDD" stroke-width="0.2"/>
<path d="M4.29999 61.5999L93.1 -27.1001" stroke="#DDDDDD" stroke-width="0.2"/>
<path d="M7.5 61.5999L96.2 -27.1001" stroke="#DDDDDD" stroke-width="0.2"/>
<path d="M-5.10004 61.5999L83.6 -27.1001" stroke="#DDDDDD" stroke-width="0.2"/>
<path d="M13.8 61.5999L102.5 -27.1001" stroke="#DDDDDD" stroke-width="0.2"/>
<path d="M17 61.5999L105.7 -27.1001" stroke="#DDDDDD" stroke-width="0.2"/>
<path d="M20.1 61.5999L108.8 -27.1001" stroke="#DDDDDD" stroke-width="0.2"/>
<path d="M23.3 61.5999L112 -27.1001" stroke="#DDDDDD" stroke-width="0.2"/>
<path d="M26.4 61.5999L115.1 -27.1001" stroke="#DDDDDD" stroke-width="0.2"/>
<path d="M45.4 61.5999L134.1 -27.1001" stroke="#DDDDDD" stroke-width="0.2"/>
<path d="M32.7 61.5999L121.5 -27.1001" stroke="#DDDDDD" stroke-width="0.2"/>
<path d="M35.9 61.5999L124.6 -27.1001" stroke="#DDDDDD" stroke-width="0.2"/>
<path d="M39.1 61.5999L127.8 -27.1001" stroke="#DDDDDD" stroke-width="0.2"/>
<path d="M42.2 61.5999L130.9 -27.1001" stroke="#DDDDDD" stroke-width="0.2"/>
<path d="M29.6 61.5999L118.3 -27.1001" stroke="#DDDDDD" stroke-width="0.2"/>
<path d="M48.5 61.5999L137.2 -27.1001" stroke="#DDDDDD" stroke-width="0.2"/>
<path d="M51.7 61.5999L140.4 -27.1001" stroke="#DDDDDD" stroke-width="0.2"/>
<path d="M54.8 61.5999L143.5 -27.1001" stroke="#DDDDDD" stroke-width="0.2"/>
<path d="M58 61.5999L146.7 -27.1001" stroke="#DDDDDD" stroke-width="0.2"/>
<path d="M61.1 61.5999L149.9 -27.1001" stroke="#DDDDDD" stroke-width="0.2"/>
<path d="M64.3 61.5999L153 -27.1001" stroke="#DDDDDD" stroke-width="0.2"/>
<path d="M67.5 61.5999L156.2 -27.1001" stroke="#DDDDDD" stroke-width="0.2"/>
</g>
<path d="M45.2 44.0998C42.8 42.2998 41 39.5998 39.6 36.0998C38.3 32.5998 37.6 28.2998 37.6 23.2998C37.6 18.2998 38.3 13.9998 39.6 10.5998C40.9 7.09981 42.8 4.5998 45.1 2.8998C47.5 1.1998 50.3 0.299805 53.5 0.299805C56.7 0.299805 59.5 1.1998 61.9 2.8998C64.3 4.5998 66.1 7.19981 67.4 10.5998C68.7 13.9998 69.4 18.2998 69.4 23.2998C69.4 28.2998 68.7 32.5998 67.4 36.0998C66.1 39.5998 64.2 42.2998 61.9 44.0998C59.6 45.8998 56.7 46.7998 53.6 46.7998C50.5 46.7998 47.6 45.8998 45.3 44.0998H45.2ZM57.7 35.1998C58.7 32.9998 59.2 28.9998 59.2 23.2998C59.2 17.5998 58.7 13.6998 57.7 11.5998C56.7 9.49981 55.3 8.3998 53.5 8.3998C51.7 8.3998 50.3 9.49981 49.3 11.5998C48.3 13.6998 47.8 17.5998 47.8 23.2998C47.8 28.9998 48.3 32.9998 49.3 35.1998C50.3 37.3998 51.7 38.4998 53.5 38.4998C55.3 38.4998 56.7 37.3998 57.7 35.1998Z" stroke="#BBBABA" stroke-width="0.3" stroke-miterlimit="10"/>
<mask id="mask2_376_2058" style="mask-type:luminance" maskUnits="userSpaceOnUse" x="73" y="0" width="33" height="46">
<path d="M74.1 40.1999C80.3 34.4999 85 29.6999 88.1 25.7999C91.2 21.8999 92.8 18.3999 92.8 15.2999C92.8 12.1999 92.3 11.6999 91.3 10.5999C90.3 9.49991 88.8 8.8999 87 8.8999C85.2 8.8999 84.3 9.29991 83.1 9.99991C81.9 10.7999 80.7 11.7999 79.4 13.1999L73.6 7.3999C75.9 4.9999 78.2 3.19991 80.4 2.09991C82.7 0.999915 85.4 0.399902 88.4 0.399902C91.4 0.399902 93.8 0.999915 96.1 2.09991C98.3 3.29991 100 4.89991 101.3 6.99991C102.5 9.09991 103.2 11.5999 103.2 14.3999C103.2 20.6999 98.7 28.4999 89.7 37.4999C92.7 37.0999 95.1 36.8999 97.1 36.8999H105.3V45.8999H74.2V39.7999L74.1 40.1999Z" fill="white"/>
</mask>
<g mask="url(#mask2_376_2058)">
<path d="M1.39996 59.3001L90.1 -29.3999" stroke="#DDDDDD" stroke-width="0.2"/>
<path d="M20.3 59.3001L109 -29.3999" stroke="#DDDDDD" stroke-width="0.2"/>
<path d="M7.69995 59.3001L96.3999 -29.3999" stroke="#DDDDDD" stroke-width="0.2"/>
<path d="M10.9 59.3001L99.6 -29.3999" stroke="#DDDDDD" stroke-width="0.2"/>
<path d="M13.9999 59.3001L102.7 -29.3999" stroke="#DDDDDD" stroke-width="0.2"/>
<path d="M17.2 59.3001L105.9 -29.3999" stroke="#DDDDDD" stroke-width="0.2"/>
<path d="M4.59998 59.3001L93.3 -29.3999" stroke="#DDDDDD" stroke-width="0.2"/>
<path d="M23.4999 59.3001L112.2 -29.3999" stroke="#DDDDDD" stroke-width="0.2"/>
<path d="M26.6 59.3001L115.4 -29.3999" stroke="#DDDDDD" stroke-width="0.2"/>
<path d="M29.8 59.3001L118.5 -29.3999" stroke="#DDDDDD" stroke-width="0.2"/>
<path d="M32.9999 59.3001L121.7 -29.3999" stroke="#DDDDDD" stroke-width="0.2"/>
<path d="M36.1 59.3001L124.8 -29.3999" stroke="#DDDDDD" stroke-width="0.2"/>
<path d="M54.9999 59.3001L143.8 -29.3999" stroke="#DDDDDD" stroke-width="0.2"/>
<path d="M42.4 59.3001L131.1 -29.3999" stroke="#DDDDDD" stroke-width="0.2"/>
<path d="M45.6 59.3001L134.3 -29.3999" stroke="#DDDDDD" stroke-width="0.2"/>
<path d="M48.7 59.3001L137.4 -29.3999" stroke="#DDDDDD" stroke-width="0.2"/>
<path d="M51.9 59.3001L140.6 -29.3999" stroke="#DDDDDD" stroke-width="0.2"/>
<path d="M39.3 59.3001L128 -29.3999" stroke="#DDDDDD" stroke-width="0.2"/>
<path d="M58.2 59.3001L146.9 -29.3999" stroke="#DDDDDD" stroke-width="0.2"/>
<path d="M61.4 59.3001L150.1 -29.3999" stroke="#DDDDDD" stroke-width="0.2"/>
<path d="M64.4999 59.3001L153.2 -29.3999" stroke="#DDDDDD" stroke-width="0.2"/>
<path d="M67.7 59.3001L156.4 -29.3999" stroke="#DDDDDD" stroke-width="0.2"/>
<path d="M70.8 59.3001L159.5 -29.3999" stroke="#DDDDDD" stroke-width="0.2"/>
<path d="M89.8 59.3001L178.5 -29.3999" stroke="#DDDDDD" stroke-width="0.2"/>
<path d="M77.1 59.3001L165.8 -29.3999" stroke="#DDDDDD" stroke-width="0.2"/>
<path d="M80.3 59.3001L169 -29.3999" stroke="#DDDDDD" stroke-width="0.2"/>
<path d="M83.4 59.3001L172.2 -29.3999" stroke="#DDDDDD" stroke-width="0.2"/>
<path d="M86.6 59.3001L175.3 -29.3999" stroke="#DDDDDD" stroke-width="0.2"/>
<path d="M73.9999 59.3001L162.7 -29.3999" stroke="#DDDDDD" stroke-width="0.2"/>
<path d="M92.9 59.3001L181.6 -29.3999" stroke="#DDDDDD" stroke-width="0.2"/>
<path d="M96.1 59.3001L184.8 -29.3999" stroke="#DDDDDD" stroke-width="0.2"/>
<path d="M99.2 59.3001L187.9 -29.3999" stroke="#DDDDDD" stroke-width="0.2"/>
<path d="M102.4 59.3001L191.1 -29.3999" stroke="#DDDDDD" stroke-width="0.2"/>
</g>
<path d="M74.1 40.1999C80.3 34.4999 85 29.6999 88.1 25.7999C91.2 21.8999 92.8 18.3999 92.8 15.2999C92.8 12.1999 92.3 11.6999 91.3 10.5999C90.3 9.49991 88.8 8.8999 87 8.8999C85.2 8.8999 84.3 9.29991 83.1 9.99991C81.9 10.7999 80.7 11.7999 79.4 13.1999L73.6 7.3999C75.9 4.9999 78.2 3.19991 80.4 2.09991C82.7 0.999915 85.4 0.399902 88.4 0.399902C91.4 0.399902 93.8 0.999915 96.1 2.09991C98.3 3.29991 100 4.89991 101.3 6.99991C102.5 9.09991 103.2 11.5999 103.2 14.3999C103.2 20.6999 98.7 28.4999 89.7 37.4999C92.7 37.0999 95.1 36.8999 97.1 36.8999H105.3V45.8999H74.2V39.7999L74.1 40.1999Z" stroke="#BBBABA" stroke-width="0.3" stroke-miterlimit="10"/>
<mask id="mask3_376_2058" style="mask-type:luminance" maskUnits="userSpaceOnUse" x="113" y="1" width="29" height="46">
<path d="M113.3 37.7H122.8V12.2H114.5V5.60001C116.9 5.20001 118.9 4.6 120.6 4C122.3 3.4 124 2.5 125.6 1.5H133.5V37.7H141.6V46.4H113.3V37.7Z" fill="white"/>
</mask>
<g mask="url(#mask3_376_2058)">
<path d="M32.8 70.3001L121.5 -18.3999" stroke="#DDDDDD" stroke-width="0.2"/>
<path d="M26.4 70.3001L115.2 -18.3999" stroke="#DDDDDD" stroke-width="0.2"/>
<path d="M29.6 70.3001L118.3 -18.3999" stroke="#DDDDDD" stroke-width="0.2"/>
<path d="M35.9 70.3001L124.6 -18.3999" stroke="#DDDDDD" stroke-width="0.2"/>
<path d="M39.1 70.3001L127.8 -18.3999" stroke="#DDDDDD" stroke-width="0.2"/>
<path d="M42.2 70.3001L130.9 -18.3999" stroke="#DDDDDD" stroke-width="0.2"/>
<path d="M45.4 70.3001L134.1 -18.3999" stroke="#DDDDDD" stroke-width="0.2"/>
<path d="M48.5 70.3001L137.2 -18.3999" stroke="#DDDDDD" stroke-width="0.2"/>
<path d="M67.5 70.3001L156.2 -18.3999" stroke="#DDDDDD" stroke-width="0.2"/>
<path d="M54.8 70.3001L143.6 -18.3999" stroke="#DDDDDD" stroke-width="0.2"/>
<path d="M58 70.3001L146.7 -18.3999" stroke="#DDDDDD" stroke-width="0.2"/>
<path d="M61.2 70.3001L149.9 -18.3999" stroke="#DDDDDD" stroke-width="0.2"/>
<path d="M64.3 70.3001L153 -18.3999" stroke="#DDDDDD" stroke-width="0.2"/>
<path d="M51.7 70.3001L140.4 -18.3999" stroke="#DDDDDD" stroke-width="0.2"/>
<path d="M70.6 70.3001L159.3 -18.3999" stroke="#DDDDDD" stroke-width="0.2"/>
<path d="M73.8 70.3001L162.5 -18.3999" stroke="#DDDDDD" stroke-width="0.2"/>
<path d="M76.9 70.3001L165.7 -18.3999" stroke="#DDDDDD" stroke-width="0.2"/>
<path d="M80.1 70.3001L168.8 -18.3999" stroke="#DDDDDD" stroke-width="0.2"/>
<path d="M83.2 70.3001L172 -18.3999" stroke="#DDDDDD" stroke-width="0.2"/>
<path d="M102.2 70.3001L190.9 -18.3999" stroke="#DDDDDD" stroke-width="0.2"/>
<path d="M89.6 70.3001L178.3 -18.3999" stroke="#DDDDDD" stroke-width="0.2"/>
<path d="M92.7 70.3001L181.4 -18.3999" stroke="#DDDDDD" stroke-width="0.2"/>
<path d="M95.9 70.3001L184.6 -18.3999" stroke="#DDDDDD" stroke-width="0.2"/>
<path d="M99 70.3001L187.7 -18.3999" stroke="#DDDDDD" stroke-width="0.2"/>
<path d="M86.4 70.3001L175.1 -18.3999" stroke="#DDDDDD" stroke-width="0.2"/>
<path d="M105.3 70.3001L194.1 -18.3999" stroke="#DDDDDD" stroke-width="0.2"/>
<path d="M108.5 70.3001L197.2 -18.3999" stroke="#DDDDDD" stroke-width="0.2"/>
<path d="M111.6 70.3001L200.4 -18.3999" stroke="#DDDDDD" stroke-width="0.2"/>
<path d="M114.8 70.3001L203.5 -18.3999" stroke="#DDDDDD" stroke-width="0.2"/>
<path d="M118 70.3001L206.7 -18.3999" stroke="#DDDDDD" stroke-width="0.2"/>
<path d="M121.1 70.3001L209.8 -18.3999" stroke="#DDDDDD" stroke-width="0.2"/>
<path d="M124.3 70.3001L213 -18.3999" stroke="#DDDDDD" stroke-width="0.2"/>
<path d="M130.6 70.3001L219.3 -18.3999" stroke="#DDDDDD" stroke-width="0.2"/>
<path d="M133.7 70.3001L222.5 -18.3999" stroke="#DDDDDD" stroke-width="0.2"/>
<path d="M136.9 70.3001L225.6 -18.3999" stroke="#DDDDDD" stroke-width="0.2"/>
<path d="M140.1 70.3001L228.8 -18.3999" stroke="#DDDDDD" stroke-width="0.2"/>
<path d="M127.4 70.3001L216.1 -18.3999" stroke="#DDDDDD" stroke-width="0.2"/>
</g>
<path d="M113.3 37.7H122.8V12.2H114.5V5.60001C116.9 5.20001 118.9 4.6 120.6 4C122.3 3.4 124 2.5 125.6 1.5H133.5V37.7H141.6V46.4H113.3V37.7Z" stroke="#BBBABA" stroke-width="0.3"/>
</g>
<defs>
<clipPath id="clip0_376_2058">
<rect width="142" height="47" fill="white"/>
</clipPath>
</defs>
</svg>
