<svg width="142" height="47" viewBox="0 0 142 47" fill="none" xmlns="http://www.w3.org/2000/svg">
<g clip-path="url(#clip0_376_2315)">
<mask id="mask0_376_2315" style="mask-type:luminance" maskUnits="userSpaceOnUse" x="-1" y="0" width="33" height="46">
<path d="M0.299988 40.3C6.49999 34.6 11.2 29.8 14.3 25.9C17.4 22 19 18.5 19 15.4C19 12.3 18.5 11.8 17.5 10.7C16.5 9.6 15 9 13.2 9C11.4 9 10.5 9.40001 9.29999 10.1C8.09999 10.9 6.89998 11.9 5.59998 13.3L-0.200012 7.5C2.09999 5.1 4.39998 3.3 6.59998 2.2C8.89998 1.1 11.6 0.5 14.6 0.5C17.6 0.5 20 1.1 22.3 2.2C24.5 3.4 26.2 5.00001 27.5 7.10001C28.7 9.20001 29.4 11.7 29.4 14.5C29.4 20.8 24.9 28.6 15.9 37.6C18.9 37.2 21.3 37 23.3 37H31.5V46H0.399986V39.9L0.299988 40.3Z" fill="white"/>
</mask>
<g mask="url(#mask0_376_2315)">
<path d="M-54.6 54.5999L34.1 -34.1001" stroke="#DDDDDD" stroke-width="0.2"/>
<path d="M-35.6 54.5999L53.1 -34.1001" stroke="#DDDDDD" stroke-width="0.2"/>
<path d="M-48.3 54.5999L40.3999 -34.1001" stroke="#DDDDDD" stroke-width="0.2"/>
<path d="M-45.1 54.5999L43.6 -34.1001" stroke="#DDDDDD" stroke-width="0.2"/>
<path d="M-42.0001 54.5999L46.7999 -34.1001" stroke="#DDDDDD" stroke-width="0.2"/>
<path d="M-38.8 54.5999L49.8999 -34.1001" stroke="#DDDDDD" stroke-width="0.2"/>
<path d="M-51.4 54.5999L37.3 -34.1001" stroke="#DDDDDD" stroke-width="0.2"/>
<path d="M-32.5001 54.5999L56.1999 -34.1001" stroke="#DDDDDD" stroke-width="0.2"/>
<path d="M-29.3 54.5999L59.3999 -34.1001" stroke="#DDDDDD" stroke-width="0.2"/>
<path d="M-26.2 54.5999L62.5 -34.1001" stroke="#DDDDDD" stroke-width="0.2"/>
<path d="M-23.0001 54.5999L65.6999 -34.1001" stroke="#DDDDDD" stroke-width="0.2"/>
<path d="M-19.9 54.5999L68.8 -34.1001" stroke="#DDDDDD" stroke-width="0.2"/>
<path d="M-0.900024 54.5999L87.8 -34.1001" stroke="#DDDDDD" stroke-width="0.2"/>
<path d="M-13.6 54.5999L75.2 -34.1001" stroke="#DDDDDD" stroke-width="0.2"/>
<path d="M-10.4 54.5999L78.3 -34.1001" stroke="#DDDDDD" stroke-width="0.2"/>
<path d="M-7.20001 54.5999L81.5 -34.1001" stroke="#DDDDDD" stroke-width="0.2"/>
<path d="M-4.10004 54.5999L84.6 -34.1001" stroke="#DDDDDD" stroke-width="0.2"/>
<path d="M-16.7 54.5999L72 -34.1001" stroke="#DDDDDD" stroke-width="0.2"/>
<path d="M2.19995 54.5999L90.8999 -34.1001" stroke="#DDDDDD" stroke-width="0.2"/>
<path d="M5.39996 54.5999L94.1 -34.1001" stroke="#DDDDDD" stroke-width="0.2"/>
<path d="M8.49994 54.5999L97.1999 -34.1001" stroke="#DDDDDD" stroke-width="0.2"/>
<path d="M11.7 54.5999L100.4 -34.1001" stroke="#DDDDDD" stroke-width="0.2"/>
<path d="M14.8 54.5999L103.6 -34.1001" stroke="#DDDDDD" stroke-width="0.2"/>
<path d="M21.2 54.5999L109.9 -34.1001" stroke="#DDDDDD" stroke-width="0.2"/>
<path d="M24.3 54.5999L113 -34.1001" stroke="#DDDDDD" stroke-width="0.2"/>
<path d="M27.4999 54.5999L116.2 -34.1001" stroke="#DDDDDD" stroke-width="0.2"/>
<path d="M30.6 54.5999L119.3 -34.1001" stroke="#DDDDDD" stroke-width="0.2"/>
<path d="M17.9999 54.5999L106.7 -34.1001" stroke="#DDDDDD" stroke-width="0.2"/>
</g>
<path d="M0.299988 40.3C6.49999 34.6 11.2 29.8 14.3 25.9C17.4 22 19 18.5 19 15.4C19 12.3 18.5 11.8 17.5 10.7C16.5 9.6 15 9 13.2 9C11.4 9 10.5 9.40001 9.29999 10.1C8.09999 10.9 6.89998 11.9 5.59998 13.3L-0.200012 7.5C2.09999 5.1 4.39998 3.3 6.59998 2.2C8.89998 1.1 11.6 0.5 14.6 0.5C17.6 0.5 20 1.1 22.3 2.2C24.5 3.4 26.2 5.00001 27.5 7.10001C28.7 9.20001 29.4 11.7 29.4 14.5C29.4 20.8 24.9 28.6 15.9 37.6C18.9 37.2 21.3 37 23.3 37H31.5V46H0.399986V39.9L0.299988 40.3Z" stroke="#BBBABA" stroke-width="0.3" stroke-miterlimit="10"/>
<mask id="mask1_376_2315" style="mask-type:luminance" maskUnits="userSpaceOnUse" x="36" y="0" width="33" height="48">
<path d="M44.5 44.5998C42.1 42.7998 40.3 40.0998 38.9 36.5998C37.6 33.0998 36.9 28.7998 36.9 23.7998C36.9 18.7998 37.6 14.4998 38.9 11.0998C40.2 7.59981 42.1 5.0998 44.4 3.3998C46.8 1.6998 49.6 0.799805 52.8 0.799805C56 0.799805 58.8 1.6998 61.2 3.3998C63.6 5.0998 65.4 7.69981 66.7 11.0998C68 14.4998 68.7 18.7998 68.7 23.7998C68.7 28.7998 68 33.0998 66.7 36.5998C65.4 40.0998 63.5 42.7998 61.2 44.5998C58.9 46.3998 56 47.2998 52.9 47.2998C49.8 47.2998 46.9 46.3998 44.6 44.5998H44.5ZM57.1 35.5998C58.1 33.3998 58.6 29.3998 58.6 23.6998C58.6 17.9998 58.1 14.0998 57.1 11.9998C56.1 9.8998 54.7 8.7998 52.9 8.7998C51.1 8.7998 49.7 9.8998 48.7 11.9998C47.7 14.0998 47.2 17.9998 47.2 23.6998C47.2 29.3998 47.7 33.3998 48.7 35.5998C49.7 37.7998 51.1 38.8998 52.9 38.8998C54.7 38.8998 56.1 37.7998 57.1 35.5998Z" fill="white"/>
</mask>
<g mask="url(#mask1_376_2315)">
<path d="M-49.9 62.0999L38.8 -26.6001" stroke="#DDDDDD" stroke-width="0.2"/>
<path d="M-46.8 62.0999L41.9 -26.6001" stroke="#DDDDDD" stroke-width="0.2"/>
<path d="M-43.6 62.0999L45.1 -26.6001" stroke="#DDDDDD" stroke-width="0.2"/>
<path d="M-24.7 62.0999L64 -26.6001" stroke="#DDDDDD" stroke-width="0.2"/>
<path d="M-37.3 62.0999L51.4 -26.6001" stroke="#DDDDDD" stroke-width="0.2"/>
<path d="M-34.2 62.0999L54.5 -26.6001" stroke="#DDDDDD" stroke-width="0.2"/>
<path d="M-31 62.0999L57.7 -26.6001" stroke="#DDDDDD" stroke-width="0.2"/>
<path d="M-27.9 62.0999L60.9 -26.6001" stroke="#DDDDDD" stroke-width="0.2"/>
<path d="M-40.5 62.0999L48.2 -26.6001" stroke="#DDDDDD" stroke-width="0.2"/>
<path d="M-21.5 62.0999L67.2 -26.6001" stroke="#DDDDDD" stroke-width="0.2"/>
<path d="M-18.4 62.0999L70.3 -26.6001" stroke="#DDDDDD" stroke-width="0.2"/>
<path d="M-15.2 62.0999L73.5 -26.6001" stroke="#DDDDDD" stroke-width="0.2"/>
<path d="M-12.1 62.0999L76.6 -26.6001" stroke="#DDDDDD" stroke-width="0.2"/>
<path d="M-8.89996 62.0999L79.8 -26.6001" stroke="#DDDDDD" stroke-width="0.2"/>
<path d="M10 62.0999L98.7 -26.6001" stroke="#DDDDDD" stroke-width="0.2"/>
<path d="M-2.59998 62.0999L86.1 -26.6001" stroke="#DDDDDD" stroke-width="0.2"/>
<path d="M0.5 62.0999L89.3 -26.6001" stroke="#DDDDDD" stroke-width="0.2"/>
<path d="M3.70001 62.0999L92.4 -26.6001" stroke="#DDDDDD" stroke-width="0.2"/>
<path d="M6.90002 62.0999L95.6 -26.6001" stroke="#DDDDDD" stroke-width="0.2"/>
<path d="M-5.79999 62.0999L82.9 -26.6001" stroke="#DDDDDD" stroke-width="0.2"/>
<path d="M13.2 62.0999L101.9 -26.6001" stroke="#DDDDDD" stroke-width="0.2"/>
<path d="M16.3 62.0999L105 -26.6001" stroke="#DDDDDD" stroke-width="0.2"/>
<path d="M19.5 62.0999L108.2 -26.6001" stroke="#DDDDDD" stroke-width="0.2"/>
<path d="M22.6 62.0999L111.3 -26.6001" stroke="#DDDDDD" stroke-width="0.2"/>
<path d="M25.8 62.0999L114.5 -26.6001" stroke="#DDDDDD" stroke-width="0.2"/>
<path d="M44.7 62.0999L133.4 -26.6001" stroke="#DDDDDD" stroke-width="0.2"/>
<path d="M32.1 62.0999L120.8 -26.6001" stroke="#DDDDDD" stroke-width="0.2"/>
<path d="M35.3 62.0999L124 -26.6001" stroke="#DDDDDD" stroke-width="0.2"/>
<path d="M38.4 62.0999L127.1 -26.6001" stroke="#DDDDDD" stroke-width="0.2"/>
<path d="M41.6 62.0999L130.3 -26.6001" stroke="#DDDDDD" stroke-width="0.2"/>
<path d="M28.9 62.0999L117.7 -26.6001" stroke="#DDDDDD" stroke-width="0.2"/>
<path d="M47.9 62.0999L136.6 -26.6001" stroke="#DDDDDD" stroke-width="0.2"/>
<path d="M51 62.0999L139.7 -26.6001" stroke="#DDDDDD" stroke-width="0.2"/>
<path d="M54.2 62.0999L142.9 -26.6001" stroke="#DDDDDD" stroke-width="0.2"/>
<path d="M57.3 62.0999L146.1 -26.6001" stroke="#DDDDDD" stroke-width="0.2"/>
<path d="M60.5 62.0999L149.2 -26.6001" stroke="#DDDDDD" stroke-width="0.2"/>
<path d="M63.7 62.0999L152.4 -26.6001" stroke="#DDDDDD" stroke-width="0.2"/>
<path d="M66.8 62.0999L155.5 -26.6001" stroke="#DDDDDD" stroke-width="0.2"/>
</g>
<path d="M44.5 44.5998C42.1 42.7998 40.3 40.0998 38.9 36.5998C37.6 33.0998 36.9 28.7998 36.9 23.7998C36.9 18.7998 37.6 14.4998 38.9 11.0998C40.2 7.59981 42.1 5.0998 44.4 3.3998C46.8 1.6998 49.6 0.799805 52.8 0.799805C56 0.799805 58.8 1.6998 61.2 3.3998C63.6 5.0998 65.4 7.69981 66.7 11.0998C68 14.4998 68.7 18.7998 68.7 23.7998C68.7 28.7998 68 33.0998 66.7 36.5998C65.4 40.0998 63.5 42.7998 61.2 44.5998C58.9 46.3998 56 47.2998 52.9 47.2998C49.8 47.2998 46.9 46.3998 44.6 44.5998H44.5ZM57.1 35.5998C58.1 33.3998 58.6 29.3998 58.6 23.6998C58.6 17.9998 58.1 14.0998 57.1 11.9998C56.1 9.8998 54.7 8.7998 52.9 8.7998C51.1 8.7998 49.7 9.8998 48.7 11.9998C47.7 14.0998 47.2 17.9998 47.2 23.6998C47.2 29.3998 47.7 33.3998 48.7 35.5998C49.7 37.7998 51.1 38.8998 52.9 38.8998C54.7 38.8998 56.1 37.7998 57.1 35.5998Z" stroke="#BBBABA" stroke-width="0.3" stroke-miterlimit="10"/>
<mask id="mask2_376_2315" style="mask-type:luminance" maskUnits="userSpaceOnUse" x="73" y="0" width="32" height="47">
<path d="M73.5 40.6999C79.7 34.9999 84.4 30.1999 87.5 26.2999C90.6 22.3999 92.2 18.8999 92.2 15.7999C92.2 12.6999 91.7 12.1999 90.7 11.0999C89.7 9.99991 88.2 9.39989 86.4 9.39989C84.6 9.39989 83.7 9.7999 82.5 10.4999C81.3 11.2999 80.1 12.2999 78.8 13.6999L73 7.89989C75.3 5.49989 77.6 3.69991 79.8 2.59991C82.1 1.49991 84.8 0.899902 87.8 0.899902C90.8 0.899902 93.2 1.49991 95.5 2.59991C97.7 3.79991 99.4 5.3999 100.7 7.4999C101.9 9.5999 102.6 12.0999 102.6 14.8999C102.6 21.1999 98.1 28.9999 89.1 37.9999C92.1 37.5999 94.5 37.3999 96.5 37.3999H104.7V46.3999H73.6V40.2999L73.5 40.6999Z" fill="white"/>
</mask>
<g mask="url(#mask2_376_2315)">
<path d="M0.700012 59.8001L89.5 -28.8999" stroke="#DDDDDD" stroke-width="0.2"/>
<path d="M19.7 59.8001L108.4 -28.8999" stroke="#DDDDDD" stroke-width="0.2"/>
<path d="M7.10004 59.8001L95.8 -28.8999" stroke="#DDDDDD" stroke-width="0.2"/>
<path d="M10.2 59.8001L98.9 -28.8999" stroke="#DDDDDD" stroke-width="0.2"/>
<path d="M13.4 59.8001L102.1 -28.8999" stroke="#DDDDDD" stroke-width="0.2"/>
<path d="M16.5 59.8001L105.2 -28.8999" stroke="#DDDDDD" stroke-width="0.2"/>
<path d="M3.90002 59.8001L92.6 -28.8999" stroke="#DDDDDD" stroke-width="0.2"/>
<path d="M22.8 59.8001L111.6 -28.8999" stroke="#DDDDDD" stroke-width="0.2"/>
<path d="M26 59.8001L114.7 -28.8999" stroke="#DDDDDD" stroke-width="0.2"/>
<path d="M29.2 59.8001L117.9 -28.8999" stroke="#DDDDDD" stroke-width="0.2"/>
<path d="M32.3 59.8001L121 -28.8999" stroke="#DDDDDD" stroke-width="0.2"/>
<path d="M35.5 59.8001L124.2 -28.8999" stroke="#DDDDDD" stroke-width="0.2"/>
<path d="M54.4 59.8001L143.1 -28.8999" stroke="#DDDDDD" stroke-width="0.2"/>
<path d="M41.8 59.8001L130.5 -28.8999" stroke="#DDDDDD" stroke-width="0.2"/>
<path d="M44.9 59.8001L133.6 -28.8999" stroke="#DDDDDD" stroke-width="0.2"/>
<path d="M48.1 59.8001L136.8 -28.8999" stroke="#DDDDDD" stroke-width="0.2"/>
<path d="M51.2 59.8001L140 -28.8999" stroke="#DDDDDD" stroke-width="0.2"/>
<path d="M38.6 59.8001L127.3 -28.8999" stroke="#DDDDDD" stroke-width="0.2"/>
<path d="M57.6 59.8001L146.3 -28.8999" stroke="#DDDDDD" stroke-width="0.2"/>
<path d="M60.7 59.8001L149.4 -28.8999" stroke="#DDDDDD" stroke-width="0.2"/>
<path d="M63.9 59.8001L152.6 -28.8999" stroke="#DDDDDD" stroke-width="0.2"/>
<path d="M67 59.8001L155.7 -28.8999" stroke="#DDDDDD" stroke-width="0.2"/>
<path d="M70.2 59.8001L158.9 -28.8999" stroke="#DDDDDD" stroke-width="0.2"/>
<path d="M89.1 59.8001L177.8 -28.8999" stroke="#DDDDDD" stroke-width="0.2"/>
<path d="M76.5 59.8001L165.2 -28.8999" stroke="#DDDDDD" stroke-width="0.2"/>
<path d="M79.6 59.8001L168.4 -28.8999" stroke="#DDDDDD" stroke-width="0.2"/>
<path d="M82.8 59.8001L171.5 -28.8999" stroke="#DDDDDD" stroke-width="0.2"/>
<path d="M86 59.8001L174.7 -28.8999" stroke="#DDDDDD" stroke-width="0.2"/>
<path d="M73.3 59.8001L162 -28.8999" stroke="#DDDDDD" stroke-width="0.2"/>
<path d="M92.3 59.8001L181 -28.8999" stroke="#DDDDDD" stroke-width="0.2"/>
<path d="M95.4 59.8001L184.1 -28.8999" stroke="#DDDDDD" stroke-width="0.2"/>
<path d="M98.6 59.8001L187.3 -28.8999" stroke="#DDDDDD" stroke-width="0.2"/>
<path d="M101.7 59.8001L190.4 -28.8999" stroke="#DDDDDD" stroke-width="0.2"/>
</g>
<path d="M73.5 40.6999C79.7 34.9999 84.4 30.1999 87.5 26.2999C90.6 22.3999 92.2 18.8999 92.2 15.7999C92.2 12.6999 91.7 12.1999 90.7 11.0999C89.7 9.99991 88.2 9.39989 86.4 9.39989C84.6 9.39989 83.7 9.7999 82.5 10.4999C81.3 11.2999 80.1 12.2999 78.8 13.6999L73 7.89989C75.3 5.49989 77.6 3.69991 79.8 2.59991C82.1 1.49991 84.8 0.899902 87.8 0.899902C90.8 0.899902 93.2 1.49991 95.5 2.59991C97.7 3.79991 99.4 5.3999 100.7 7.4999C101.9 9.5999 102.6 12.0999 102.6 14.8999C102.6 21.1999 98.1 28.9999 89.1 37.9999C92.1 37.5999 94.5 37.3999 96.5 37.3999H104.7V46.3999H73.6V40.2999L73.5 40.6999Z" stroke="#BBBABA" stroke-width="0.3" stroke-miterlimit="10"/>
<mask id="mask3_376_2315" style="mask-type:luminance" maskUnits="userSpaceOnUse" x="109" y="0" width="33" height="46">
<path d="M110.3 40.3C116.5 34.6 121.2 29.8 124.3 25.9C127.4 22 129 18.5 129 15.4C129 12.3 128.5 11.8 127.5 10.7C126.5 9.6 125 9 123.2 9C121.4 9 120.5 9.40001 119.3 10.1C118.1 10.9 116.9 11.9 115.6 13.3L109.8 7.5C112.1 5.1 114.4 3.3 116.6 2.2C118.9 1.1 121.6 0.5 124.6 0.5C127.6 0.5 130 1.1 132.3 2.2C134.5 3.4 136.2 5.00001 137.5 7.10001C138.7 9.20001 139.4 11.7 139.4 14.5C139.4 20.8 134.9 28.6 125.9 37.6C128.9 37.2 131.3 37 133.3 37H141.5V46H110.4V39.9L110.3 40.3Z" fill="white"/>
</mask>
<g mask="url(#mask3_376_2315)">
<path d="M22.1 71.5999L110.8 -17.1001" stroke="#DDDDDD" stroke-width="0.2"/>
<path d="M41.1 71.5999L129.8 -17.1001" stroke="#DDDDDD" stroke-width="0.2"/>
<path d="M28.4 71.5999L117.1 -17.1001" stroke="#DDDDDD" stroke-width="0.2"/>
<path d="M31.6 71.5999L120.3 -17.1001" stroke="#DDDDDD" stroke-width="0.2"/>
<path d="M34.7 71.5999L123.5 -17.1001" stroke="#DDDDDD" stroke-width="0.2"/>
<path d="M37.9 71.5999L126.6 -17.1001" stroke="#DDDDDD" stroke-width="0.2"/>
<path d="M25.3 71.5999L114 -17.1001" stroke="#DDDDDD" stroke-width="0.2"/>
<path d="M44.2 71.5999L132.9 -17.1001" stroke="#DDDDDD" stroke-width="0.2"/>
<path d="M47.4 71.5999L136.1 -17.1001" stroke="#DDDDDD" stroke-width="0.2"/>
<path d="M50.4999 71.5999L139.2 -17.1001" stroke="#DDDDDD" stroke-width="0.2"/>
<path d="M53.7 71.5999L142.4 -17.1001" stroke="#DDDDDD" stroke-width="0.2"/>
<path d="M56.8 71.5999L145.5 -17.1001" stroke="#DDDDDD" stroke-width="0.2"/>
<path d="M75.8 71.5999L164.5 -17.1001" stroke="#DDDDDD" stroke-width="0.2"/>
<path d="M63.1 71.5999L151.9 -17.1001" stroke="#DDDDDD" stroke-width="0.2"/>
<path d="M66.3 71.5999L155 -17.1001" stroke="#DDDDDD" stroke-width="0.2"/>
<path d="M69.4999 71.5999L158.2 -17.1001" stroke="#DDDDDD" stroke-width="0.2"/>
<path d="M72.6 71.5999L161.3 -17.1001" stroke="#DDDDDD" stroke-width="0.2"/>
<path d="M59.9999 71.5999L148.7 -17.1001" stroke="#DDDDDD" stroke-width="0.2"/>
<path d="M78.9 71.5999L167.6 -17.1001" stroke="#DDDDDD" stroke-width="0.2"/>
<path d="M82.1 71.5999L170.8 -17.1001" stroke="#DDDDDD" stroke-width="0.2"/>
<path d="M85.2 71.5999L173.9 -17.1001" stroke="#DDDDDD" stroke-width="0.2"/>
<path d="M88.4 71.5999L177.1 -17.1001" stroke="#DDDDDD" stroke-width="0.2"/>
<path d="M91.4999 71.5999L180.3 -17.1001" stroke="#DDDDDD" stroke-width="0.2"/>
<path d="M110.5 71.5999L199.2 -17.1001" stroke="#DDDDDD" stroke-width="0.2"/>
<path d="M97.9 71.5999L186.6 -17.1001" stroke="#DDDDDD" stroke-width="0.2"/>
<path d="M101 71.5999L189.7 -17.1001" stroke="#DDDDDD" stroke-width="0.2"/>
<path d="M104.2 71.5999L192.9 -17.1001" stroke="#DDDDDD" stroke-width="0.2"/>
<path d="M107.3 71.5999L196 -17.1001" stroke="#DDDDDD" stroke-width="0.2"/>
<path d="M94.7 71.5999L183.4 -17.1001" stroke="#DDDDDD" stroke-width="0.2"/>
<path d="M113.6 71.5999L202.3 -17.1001" stroke="#DDDDDD" stroke-width="0.2"/>
<path d="M116.8 71.5999L205.5 -17.1001" stroke="#DDDDDD" stroke-width="0.2"/>
<path d="M119.9 71.5999L208.7 -17.1001" stroke="#DDDDDD" stroke-width="0.2"/>
<path d="M123.1 71.5999L211.8 -17.1001" stroke="#DDDDDD" stroke-width="0.2"/>
<path d="M126.3 71.5999L215 -17.1001" stroke="#DDDDDD" stroke-width="0.2"/>
<path d="M129.4 71.5999L218.1 -17.1001" stroke="#DDDDDD" stroke-width="0.2"/>
<path d="M132.6 71.5999L221.3 -17.1001" stroke="#DDDDDD" stroke-width="0.2"/>
<path d="M138.9 71.5999L227.6 -17.1001" stroke="#DDDDDD" stroke-width="0.2"/>
<path d="M135.7 71.5999L224.4 -17.1001" stroke="#DDDDDD" stroke-width="0.2"/>
</g>
<path d="M110.3 40.3C116.5 34.6 121.2 29.8 124.3 25.9C127.4 22 129 18.5 129 15.4C129 12.3 128.5 11.8 127.5 10.7C126.5 9.6 125 9 123.2 9C121.4 9 120.5 9.40001 119.3 10.1C118.1 10.9 116.9 11.9 115.6 13.3L109.8 7.5C112.1 5.1 114.4 3.3 116.6 2.2C118.9 1.1 121.6 0.5 124.6 0.5C127.6 0.5 130 1.1 132.3 2.2C134.5 3.4 136.2 5.00001 137.5 7.10001C138.7 9.20001 139.4 11.7 139.4 14.5C139.4 20.8 134.9 28.6 125.9 37.6C128.9 37.2 131.3 37 133.3 37H141.5V46H110.4V39.9L110.3 40.3Z" stroke="#BBBABA" stroke-width="0.3"/>
</g>
<defs>
<clipPath id="clip0_376_2315">
<rect width="142" height="47" fill="white"/>
</clipPath>
</defs>
</svg>
