<svg width="143" height="48" viewBox="0 0 143 48" fill="none" xmlns="http://www.w3.org/2000/svg">
<g clip-path="url(#clip0_376_1544)">
<mask id="mask0_376_1544" style="mask-type:luminance" maskUnits="userSpaceOnUse" x="0" y="0" width="33" height="46">
<path d="M1.09998 40.3C7.29998 34.6 12 29.8 15.1 25.9C18.2 22 19.8 18.5 19.8 15.4C19.8 12.3 19.3 11.8 18.3 10.7C17.3 9.6 15.8 9 14 9C12.2 9 11.3 9.4 10.1 10.1C8.89998 10.9 7.69998 11.9 6.39998 13.3L0.599976 7.5C2.89998 5.1 5.19998 3.3 7.39998 2.2C9.69998 1.1 12.4 0.5 15.4 0.5C18.4 0.5 20.8 1.1 23.1 2.2C25.3 3.4 27 5 28.3 7.1C29.5 9.2 30.2 11.7 30.2 14.5C30.2 20.8 25.7 28.6 16.7 37.6C19.7 37.2 22.1 37 24.1 37H32.3V46H1.19997V39.9L1.09998 40.3Z" fill="white"/>
</mask>
<g mask="url(#mask0_376_1544)">
<path d="M-53.8 54.5999L34.8999 -34.1001" stroke="#DDDDDD" stroke-width="0.2"/>
<path d="M-34.8 54.5999L53.8999 -34.1001" stroke="#DDDDDD" stroke-width="0.2"/>
<path d="M-47.5001 54.5999L41.2999 -34.1001" stroke="#DDDDDD" stroke-width="0.2"/>
<path d="M-44.3 54.5999L44.3999 -34.1001" stroke="#DDDDDD" stroke-width="0.2"/>
<path d="M-41.2001 54.5999L47.5999 -34.1001" stroke="#DDDDDD" stroke-width="0.2"/>
<path d="M-38.0001 54.5999L50.6999 -34.1001" stroke="#DDDDDD" stroke-width="0.2"/>
<path d="M-50.6 54.5999L38.1 -34.1001" stroke="#DDDDDD" stroke-width="0.2"/>
<path d="M-31.7001 54.5999L56.9999 -34.1001" stroke="#DDDDDD" stroke-width="0.2"/>
<path d="M-28.5001 54.5999L60.1999 -34.1001" stroke="#DDDDDD" stroke-width="0.2"/>
<path d="M-25.4 54.5999L63.3 -34.1001" stroke="#DDDDDD" stroke-width="0.2"/>
<path d="M-22.2001 54.5999L66.4999 -34.1001" stroke="#DDDDDD" stroke-width="0.2"/>
<path d="M-19.1 54.5999L69.7 -34.1001" stroke="#DDDDDD" stroke-width="0.2"/>
<path d="M-0.100037 54.5999L88.6 -34.1001" stroke="#DDDDDD" stroke-width="0.2"/>
<path d="M-12.7001 54.5999L75.9999 -34.1001" stroke="#DDDDDD" stroke-width="0.2"/>
<path d="M-9.60004 54.5999L79.1 -34.1001" stroke="#DDDDDD" stroke-width="0.2"/>
<path d="M-6.40002 54.5999L82.3 -34.1001" stroke="#DDDDDD" stroke-width="0.2"/>
<path d="M-3.30005 54.5999L85.3999 -34.1001" stroke="#DDDDDD" stroke-width="0.2"/>
<path d="M-15.9 54.5999L72.8 -34.1001" stroke="#DDDDDD" stroke-width="0.2"/>
<path d="M2.99994 54.5999L91.6999 -34.1001" stroke="#DDDDDD" stroke-width="0.2"/>
<path d="M6.19995 54.5999L94.8999 -34.1001" stroke="#DDDDDD" stroke-width="0.2"/>
<path d="M9.29993 54.5999L98.0999 -34.1001" stroke="#DDDDDD" stroke-width="0.2"/>
<path d="M12.4999 54.5999L101.2 -34.1001" stroke="#DDDDDD" stroke-width="0.2"/>
<path d="M15.7 54.5999L104.4 -34.1001" stroke="#DDDDDD" stroke-width="0.2"/>
<path d="M21.9999 54.5999L110.7 -34.1001" stroke="#DDDDDD" stroke-width="0.2"/>
<path d="M25.1 54.5999L113.8 -34.1001" stroke="#DDDDDD" stroke-width="0.2"/>
<path d="M28.2999 54.5999L117 -34.1001" stroke="#DDDDDD" stroke-width="0.2"/>
<path d="M31.4 54.5999L120.1 -34.1001" stroke="#DDDDDD" stroke-width="0.2"/>
<path d="M18.7999 54.5999L107.5 -34.1001" stroke="#DDDDDD" stroke-width="0.2"/>
</g>
<path d="M1.09998 40.3C7.29998 34.6 12 29.8 15.1 25.9C18.2 22 19.8 18.5 19.8 15.4C19.8 12.3 19.3 11.8 18.3 10.7C17.3 9.6 15.8 9 14 9C12.2 9 11.3 9.4 10.1 10.1C8.89998 10.9 7.69998 11.9 6.39998 13.3L0.599976 7.5C2.89998 5.1 5.19998 3.3 7.39998 2.2C9.69998 1.1 12.4 0.5 15.4 0.5C18.4 0.5 20.8 1.1 23.1 2.2C25.3 3.4 27 5 28.3 7.1C29.5 9.2 30.2 11.7 30.2 14.5C30.2 20.8 25.7 28.6 16.7 37.6C19.7 37.2 22.1 37 24.1 37H32.3V46H1.19997V39.9L1.09998 40.3Z" stroke="#BBBABA" stroke-width="0.3" stroke-miterlimit="10"/>
<mask id="mask1_376_1544" style="mask-type:luminance" maskUnits="userSpaceOnUse" x="36" y="0" width="33" height="48">
<path d="M44.3 44.5998C41.9 42.7998 40.1 40.0998 38.7 36.5998C37.4 33.0998 36.7 28.7998 36.7 23.7998C36.7 18.7998 37.4 14.4998 38.7 11.0998C40 7.59981 41.9 5.0998 44.2 3.3998C46.6 1.6998 49.4 0.799805 52.6 0.799805C55.8 0.799805 58.6 1.6998 61 3.3998C63.4 5.0998 65.2 7.69981 66.5 11.0998C67.8 14.4998 68.5 18.7998 68.5 23.7998C68.5 28.7998 67.8 33.0998 66.5 36.5998C65.2 40.0998 63.3 42.7998 61 44.5998C58.7 46.3998 55.8 47.2998 52.7 47.2998C49.6 47.2998 46.7 46.3998 44.4 44.5998H44.3ZM56.8999 35.6998C57.8999 33.4998 58.3999 29.4998 58.3999 23.7998C58.3999 18.0998 57.8999 14.1998 56.8999 12.0998C55.8999 9.99981 54.5 8.8998 52.7 8.8998C50.9 8.8998 49.5 9.99981 48.5 12.0998C47.5 14.1998 47 18.0998 47 23.7998C47 29.4998 47.5 33.4998 48.5 35.6998C49.5 37.8998 50.9 38.9998 52.7 38.9998C54.5 38.9998 55.8999 37.8998 56.8999 35.6998Z" fill="white"/>
</mask>
<g mask="url(#mask1_376_1544)">
<path d="M-50.1 62.0999L38.6 -26.6001" stroke="#DDDDDD" stroke-width="0.2"/>
<path d="M-47.0001 62.0999L41.6999 -26.6001" stroke="#DDDDDD" stroke-width="0.2"/>
<path d="M-43.8 62.0999L44.8999 -26.6001" stroke="#DDDDDD" stroke-width="0.2"/>
<path d="M-24.9001 62.0999L63.7999 -26.6001" stroke="#DDDDDD" stroke-width="0.2"/>
<path d="M-37.5001 62.0999L51.1999 -26.6001" stroke="#DDDDDD" stroke-width="0.2"/>
<path d="M-34.4001 62.0999L54.3999 -26.6001" stroke="#DDDDDD" stroke-width="0.2"/>
<path d="M-31.2001 62.0999L57.4999 -26.6001" stroke="#DDDDDD" stroke-width="0.2"/>
<path d="M-28.0001 62.0999L60.6999 -26.6001" stroke="#DDDDDD" stroke-width="0.2"/>
<path d="M-40.7001 62.0999L47.9999 -26.6001" stroke="#DDDDDD" stroke-width="0.2"/>
<path d="M-21.7001 62.0999L66.9999 -26.6001" stroke="#DDDDDD" stroke-width="0.2"/>
<path d="M-18.6 62.0999L70.1 -26.6001" stroke="#DDDDDD" stroke-width="0.2"/>
<path d="M-15.4001 62.0999L73.2999 -26.6001" stroke="#DDDDDD" stroke-width="0.2"/>
<path d="M-12.3 62.0999L76.3999 -26.6001" stroke="#DDDDDD" stroke-width="0.2"/>
<path d="M-9.10004 62.0999L79.6 -26.6001" stroke="#DDDDDD" stroke-width="0.2"/>
<path d="M9.79993 62.0999L98.4999 -26.6001" stroke="#DDDDDD" stroke-width="0.2"/>
<path d="M-2.80005 62.0999L85.8999 -26.6001" stroke="#DDDDDD" stroke-width="0.2"/>
<path d="M0.399963 62.0999L89.1 -26.6001" stroke="#DDDDDD" stroke-width="0.2"/>
<path d="M3.49994 62.0999L92.1999 -26.6001" stroke="#DDDDDD" stroke-width="0.2"/>
<path d="M6.69995 62.0999L95.3999 -26.6001" stroke="#DDDDDD" stroke-width="0.2"/>
<path d="M-6.00006 62.0999L82.7999 -26.6001" stroke="#DDDDDD" stroke-width="0.2"/>
<path d="M12.9999 62.0999L101.7 -26.6001" stroke="#DDDDDD" stroke-width="0.2"/>
<path d="M16.0999 62.0999L104.8 -26.6001" stroke="#DDDDDD" stroke-width="0.2"/>
<path d="M19.2999 62.0999L108 -26.6001" stroke="#DDDDDD" stroke-width="0.2"/>
<path d="M22.4 62.0999L111.2 -26.6001" stroke="#DDDDDD" stroke-width="0.2"/>
<path d="M25.5999 62.0999L114.3 -26.6001" stroke="#DDDDDD" stroke-width="0.2"/>
<path d="M44.4999 62.0999L133.2 -26.6001" stroke="#DDDDDD" stroke-width="0.2"/>
<path d="M31.9 62.0999L120.6 -26.6001" stroke="#DDDDDD" stroke-width="0.2"/>
<path d="M35.0999 62.0999L123.8 -26.6001" stroke="#DDDDDD" stroke-width="0.2"/>
<path d="M38.2 62.0999L126.9 -26.6001" stroke="#DDDDDD" stroke-width="0.2"/>
<path d="M41.4 62.0999L130.1 -26.6001" stroke="#DDDDDD" stroke-width="0.2"/>
<path d="M28.7999 62.0999L117.5 -26.6001" stroke="#DDDDDD" stroke-width="0.2"/>
<path d="M47.7 62.0999L136.4 -26.6001" stroke="#DDDDDD" stroke-width="0.2"/>
<path d="M50.7999 62.0999L139.6 -26.6001" stroke="#DDDDDD" stroke-width="0.2"/>
<path d="M53.9999 62.0999L142.7 -26.6001" stroke="#DDDDDD" stroke-width="0.2"/>
<path d="M57.2 62.0999L145.9 -26.6001" stroke="#DDDDDD" stroke-width="0.2"/>
<path d="M60.2999 62.0999L149 -26.6001" stroke="#DDDDDD" stroke-width="0.2"/>
<path d="M63.4999 62.0999L152.2 -26.6001" stroke="#DDDDDD" stroke-width="0.2"/>
<path d="M66.6 62.0999L155.3 -26.6001" stroke="#DDDDDD" stroke-width="0.2"/>
</g>
<path d="M44.3 44.5998C41.9 42.7998 40.1 40.0998 38.7 36.5998C37.4 33.0998 36.7 28.7998 36.7 23.7998C36.7 18.7998 37.4 14.4998 38.7 11.0998C40 7.59981 41.9 5.0998 44.2 3.3998C46.6 1.6998 49.4 0.799805 52.6 0.799805C55.8 0.799805 58.6 1.6998 61 3.3998C63.4 5.0998 65.2 7.69981 66.5 11.0998C67.8 14.4998 68.5 18.7998 68.5 23.7998C68.5 28.7998 67.8 33.0998 66.5 36.5998C65.2 40.0998 63.3 42.7998 61 44.5998C58.7 46.3998 55.8 47.2998 52.7 47.2998C49.6 47.2998 46.7 46.3998 44.4 44.5998H44.3ZM56.8999 35.6998C57.8999 33.4998 58.3999 29.4998 58.3999 23.7998C58.3999 18.0998 57.8999 14.1998 56.8999 12.0998C55.8999 9.99981 54.5 8.8998 52.7 8.8998C50.9 8.8998 49.5 9.99981 48.5 12.0998C47.5 14.1998 47 18.0998 47 23.7998C47 29.4998 47.5 33.4998 48.5 35.6998C49.5 37.8998 50.9 38.9998 52.7 38.9998C54.5 38.9998 55.8999 37.8998 56.8999 35.6998Z" stroke="#BBBABA" stroke-width="0.3" stroke-miterlimit="10"/>
<mask id="mask2_376_1544" style="mask-type:luminance" maskUnits="userSpaceOnUse" x="72" y="0" width="33" height="47">
<path d="M73.3 40.6999C79.5 34.9999 84.2 30.1999 87.3 26.2999C90.4 22.3999 92 18.8999 92 15.7999C92 12.6999 91.5 12.1999 90.5 11.0999C89.5 9.99991 88 9.3999 86.2 9.3999C84.4 9.3999 83.5 9.7999 82.3 10.4999C81.1 11.2999 79.9001 12.2999 78.6001 13.6999L72.8 7.8999C75.1 5.4999 77.4001 3.6999 79.6001 2.5999C81.9001 1.4999 84.6001 0.899902 87.6001 0.899902C90.6001 0.899902 93 1.4999 95.3 2.5999C97.5 3.7999 99.2 5.3999 100.5 7.4999C101.7 9.5999 102.4 12.0999 102.4 14.8999C102.4 21.1999 97.9 28.9999 88.9 37.9999C91.9 37.5999 94.3 37.3999 96.3 37.3999H104.5V46.3999H73.4V40.2999L73.3 40.6999Z" fill="white"/>
</mask>
<g mask="url(#mask2_376_1544)">
<path d="M0.600037 59.8001L89.3 -28.8999" stroke="#DDDDDD" stroke-width="0.2"/>
<path d="M19.5001 59.8001L108.2 -28.8999" stroke="#DDDDDD" stroke-width="0.2"/>
<path d="M6.90002 59.8001L95.6 -28.8999" stroke="#DDDDDD" stroke-width="0.2"/>
<path d="M10.0001 59.8001L98.7001 -28.8999" stroke="#DDDDDD" stroke-width="0.2"/>
<path d="M13.2 59.8001L101.9 -28.8999" stroke="#DDDDDD" stroke-width="0.2"/>
<path d="M16.3 59.8001L105.1 -28.8999" stroke="#DDDDDD" stroke-width="0.2"/>
<path d="M3.70001 59.8001L92.4 -28.8999" stroke="#DDDDDD" stroke-width="0.2"/>
<path d="M22.6 59.8001L111.4 -28.8999" stroke="#DDDDDD" stroke-width="0.2"/>
<path d="M25.8 59.8001L114.5 -28.8999" stroke="#DDDDDD" stroke-width="0.2"/>
<path d="M29.0001 59.8001L117.7 -28.8999" stroke="#DDDDDD" stroke-width="0.2"/>
<path d="M32.1 59.8001L120.8 -28.8999" stroke="#DDDDDD" stroke-width="0.2"/>
<path d="M35.3 59.8001L124 -28.8999" stroke="#DDDDDD" stroke-width="0.2"/>
<path d="M54.2 59.8001L142.9 -28.8999" stroke="#DDDDDD" stroke-width="0.2"/>
<path d="M41.6 59.8001L130.3 -28.8999" stroke="#DDDDDD" stroke-width="0.2"/>
<path d="M44.7 59.8001L133.5 -28.8999" stroke="#DDDDDD" stroke-width="0.2"/>
<path d="M47.9 59.8001L136.6 -28.8999" stroke="#DDDDDD" stroke-width="0.2"/>
<path d="M51.1 59.8001L139.8 -28.8999" stroke="#DDDDDD" stroke-width="0.2"/>
<path d="M38.4 59.8001L127.1 -28.8999" stroke="#DDDDDD" stroke-width="0.2"/>
<path d="M57.4 59.8001L146.1 -28.8999" stroke="#DDDDDD" stroke-width="0.2"/>
<path d="M60.5001 59.8001L149.2 -28.8999" stroke="#DDDDDD" stroke-width="0.2"/>
<path d="M63.7 59.8001L152.4 -28.8999" stroke="#DDDDDD" stroke-width="0.2"/>
<path d="M66.8 59.8001L155.5 -28.8999" stroke="#DDDDDD" stroke-width="0.2"/>
<path d="M70.0001 59.8001L158.7 -28.8999" stroke="#DDDDDD" stroke-width="0.2"/>
<path d="M88.9 59.8001L177.6 -28.8999" stroke="#DDDDDD" stroke-width="0.2"/>
<path d="M76.3 59.8001L165 -28.8999" stroke="#DDDDDD" stroke-width="0.2"/>
<path d="M79.5001 59.8001L168.2 -28.8999" stroke="#DDDDDD" stroke-width="0.2"/>
<path d="M82.6 59.8001L171.3 -28.8999" stroke="#DDDDDD" stroke-width="0.2"/>
<path d="M85.8 59.8001L174.5 -28.8999" stroke="#DDDDDD" stroke-width="0.2"/>
<path d="M73.1 59.8001L161.9 -28.8999" stroke="#DDDDDD" stroke-width="0.2"/>
<path d="M92.1 59.8001L180.8 -28.8999" stroke="#DDDDDD" stroke-width="0.2"/>
<path d="M95.2 59.8001L183.9 -28.8999" stroke="#DDDDDD" stroke-width="0.2"/>
<path d="M98.4 59.8001L187.1 -28.8999" stroke="#DDDDDD" stroke-width="0.2"/>
<path d="M101.5 59.8001L190.3 -28.8999" stroke="#DDDDDD" stroke-width="0.2"/>
</g>
<path d="M73.3 40.6999C79.5 34.9999 84.2 30.1999 87.3 26.2999C90.4 22.3999 92 18.8999 92 15.7999C92 12.6999 91.5 12.1999 90.5 11.0999C89.5 9.99991 88 9.3999 86.2 9.3999C84.4 9.3999 83.5 9.7999 82.3 10.4999C81.1 11.2999 79.9001 12.2999 78.6001 13.6999L72.8 7.8999C75.1 5.4999 77.4001 3.6999 79.6001 2.5999C81.9001 1.4999 84.6001 0.899902 87.6001 0.899902C90.6001 0.899902 93 1.4999 95.3 2.5999C97.5 3.7999 99.2 5.3999 100.5 7.4999C101.7 9.5999 102.4 12.0999 102.4 14.8999C102.4 21.1999 97.9 28.9999 88.9 37.9999C91.9 37.5999 94.3 37.3999 96.3 37.3999H104.5V46.3999H73.4V40.2999L73.3 40.6999Z" stroke="#BBBABA" stroke-width="0.3" stroke-miterlimit="10"/>
<mask id="mask3_376_1544" style="mask-type:luminance" maskUnits="userSpaceOnUse" x="110" y="0" width="32" height="48">
<path d="M110 40.9998L114.9 34.1998C118 37.0998 121.1 38.4998 124.2 38.4998C127.3 38.4998 128 38.0998 129.2 37.1998C130.4 36.2998 131 35.0998 131 33.3998C131 31.6998 130.7 30.8998 130.1 29.9998C129.5 29.0998 128.3 28.3998 126.7 27.9998C125 27.4998 122.7 27.2998 119.6 27.2998V19.6998C123.3 19.6998 125.8 19.1998 127.4 18.1998C128.9 17.1998 129.7 15.6998 129.7 13.8998C129.7 12.0998 129.3 11.1998 128.4 10.3998C127.5 9.5998 126.3 9.1998 124.6 9.1998C122.9 9.1998 121.8 9.4998 120.6 10.0998C119.4 10.6998 118 11.5998 116.6 12.8998L111.2 6.2998C113.4 4.4998 115.6 3.0998 117.9 2.1998C120.2 1.2998 122.6 0.799805 125.2 0.799805C129.9 0.799805 133.7 1.8998 136.4 3.9998C139.2 6.1998 140.5 9.19981 140.5 13.0998C140.5 16.9998 139.9 17.2998 138.7 18.9998C137.5 20.6998 135.7 21.9998 133.3 22.9998V23.2998C135.9 24.0998 138 25.3998 139.6 27.2998C141.2 29.0998 142 31.4998 142 34.1998C142 36.8998 141.3 39.1998 139.8 41.1998C138.3 43.1998 136.3 44.6998 133.8 45.6998C131.3 46.6998 128.5 47.1998 125.5 47.1998C118.8 47.1998 113.7 45.0998 110.1 40.8998L110 40.9998Z" fill="white"/>
</mask>
<g mask="url(#mask3_376_1544)">
<path d="M31.4 69.0999L120.1 -19.6001" stroke="#BBBABA" stroke-width="0.2"/>
<path d="M50.3 69.0999L139.1 -19.6001" stroke="#BBBABA" stroke-width="0.2"/>
<path d="M37.7 69.0999L126.4 -19.6001" stroke="#BBBABA" stroke-width="0.2"/>
<path d="M40.9 69.0999L129.6 -19.6001" stroke="#BBBABA" stroke-width="0.2"/>
<path d="M44 69.0999L132.7 -19.6001" stroke="#BBBABA" stroke-width="0.2"/>
<path d="M47.2 69.0999L135.9 -19.6001" stroke="#BBBABA" stroke-width="0.2"/>
<path d="M34.6 69.0999L123.3 -19.6001" stroke="#BBBABA" stroke-width="0.2"/>
<path d="M53.5 69.0999L142.2 -19.6001" stroke="#BBBABA" stroke-width="0.2"/>
<path d="M56.7 69.0999L145.4 -19.6001" stroke="#BBBABA" stroke-width="0.2"/>
<path d="M59.8 69.0999L148.5 -19.6001" stroke="#BBBABA" stroke-width="0.2"/>
<path d="M63 69.0999L151.7 -19.6001" stroke="#BBBABA" stroke-width="0.2"/>
<path d="M66.1 69.0999L154.8 -19.6001" stroke="#BBBABA" stroke-width="0.2"/>
<path d="M85.1 69.0999L173.8 -19.6001" stroke="#BBBABA" stroke-width="0.2"/>
<path d="M72.4 69.0999L161.1 -19.6001" stroke="#BBBABA" stroke-width="0.2"/>
<path d="M75.6 69.0999L164.3 -19.6001" stroke="#BBBABA" stroke-width="0.2"/>
<path d="M78.7 69.0999L167.5 -19.6001" stroke="#BBBABA" stroke-width="0.2"/>
<path d="M81.9 69.0999L170.6 -19.6001" stroke="#BBBABA" stroke-width="0.2"/>
<path d="M69.3 69.0999L158 -19.6001" stroke="#BBBABA" stroke-width="0.2"/>
<path d="M88.2 69.0999L176.9 -19.6001" stroke="#BBBABA" stroke-width="0.2"/>
<path d="M91.4 69.0999L180.1 -19.6001" stroke="#BBBABA" stroke-width="0.2"/>
<path d="M94.5 69.0999L183.2 -19.6001" stroke="#BBBABA" stroke-width="0.2"/>
<path d="M97.7 69.0999L186.4 -19.6001" stroke="#BBBABA" stroke-width="0.2"/>
<path d="M100.8 69.0999L189.6 -19.6001" stroke="#BBBABA" stroke-width="0.2"/>
<path d="M119.8 69.0999L208.5 -19.6001" stroke="#BBBABA" stroke-width="0.2"/>
<path d="M107.1 69.0999L195.9 -19.6001" stroke="#BBBABA" stroke-width="0.2"/>
<path d="M110.3 69.0999L199 -19.6001" stroke="#BBBABA" stroke-width="0.2"/>
<path d="M113.5 69.0999L202.2 -19.6001" stroke="#BBBABA" stroke-width="0.2"/>
<path d="M116.6 69.0999L205.3 -19.6001" stroke="#BBBABA" stroke-width="0.2"/>
<path d="M104 69.0999L192.7 -19.6001" stroke="#BBBABA" stroke-width="0.2"/>
<path d="M122.9 69.0999L211.6 -19.6001" stroke="#BBBABA" stroke-width="0.2"/>
<path d="M126.1 69.0999L214.8 -19.6001" stroke="#BBBABA" stroke-width="0.2"/>
<path d="M129.2 69.0999L218 -19.6001" stroke="#BBBABA" stroke-width="0.2"/>
<path d="M132.4 69.0999L221.1 -19.6001" stroke="#BBBABA" stroke-width="0.2"/>
<path d="M135.5 69.0999L224.3 -19.6001" stroke="#BBBABA" stroke-width="0.2"/>
<path d="M141.9 69.0999L230.6 -19.6001" stroke="#BBBABA" stroke-width="0.2"/>
<path d="M138.7 69.0999L227.4 -19.6001" stroke="#BBBABA" stroke-width="0.2"/>
</g>
<path d="M110 40.9998L114.9 34.1998C118 37.0998 121.1 38.4998 124.2 38.4998C127.3 38.4998 128 38.0998 129.2 37.1998C130.4 36.2998 131 35.0998 131 33.3998C131 31.6998 130.7 30.8998 130.1 29.9998C129.5 29.0998 128.3 28.3998 126.7 27.9998C125 27.4998 122.7 27.2998 119.6 27.2998V19.6998C123.3 19.6998 125.8 19.1998 127.4 18.1998C128.9 17.1998 129.7 15.6998 129.7 13.8998C129.7 12.0998 129.3 11.1998 128.4 10.3998C127.5 9.5998 126.3 9.1998 124.6 9.1998C122.9 9.1998 121.8 9.4998 120.6 10.0998C119.4 10.6998 118 11.5998 116.6 12.8998L111.2 6.2998C113.4 4.4998 115.6 3.0998 117.9 2.1998C120.2 1.2998 122.6 0.799805 125.2 0.799805C129.9 0.799805 133.7 1.8998 136.4 3.9998C139.2 6.1998 140.5 9.19981 140.5 13.0998C140.5 16.9998 139.9 17.2998 138.7 18.9998C137.5 20.6998 135.7 21.9998 133.3 22.9998V23.2998C135.9 24.0998 138 25.3998 139.6 27.2998C141.2 29.0998 142 31.4998 142 34.1998C142 36.8998 141.3 39.1998 139.8 41.1998C138.3 43.1998 136.3 44.6998 133.8 45.6998C131.3 46.6998 128.5 47.1998 125.5 47.1998C118.8 47.1998 113.7 45.0998 110.1 40.8998L110 40.9998Z" stroke="#BBBABA" stroke-width="0.3"/>
</g>
<defs>
<clipPath id="clip0_376_1544">
<rect width="143" height="48" fill="white"/>
</clipPath>
</defs>
</svg>
