<svg width="142" height="47" viewBox="0 0 142 47" fill="none" xmlns="http://www.w3.org/2000/svg">
<g clip-path="url(#clip0_376_1287)">
<mask id="mask0_376_1287" style="mask-type:luminance" maskUnits="userSpaceOnUse" x="0" y="0" width="32" height="46">
<path d="M0.700012 39.8C6.90001 34.1 11.6 29.3 14.7 25.4C17.8 21.5 19.4 18 19.4 14.9C19.4 11.8 18.9 11.3 17.9 10.2C16.9 9.1 15.4 8.5 13.6 8.5C11.8 8.5 10.9 8.90001 9.70001 9.60001C8.50001 10.4 7.30002 11.4 6.00002 12.8L0.200012 7C2.50001 4.6 4.80002 2.8 7.00002 1.7C9.30002 0.599997 12 0 15 0C18 0 20.4 0.599997 22.7 1.7C24.9 2.9 26.6 4.50001 27.9 6.60001C29.1 8.70001 29.8 11.2 29.8 14C29.8 20.3 25.3 28.1 16.3 37.1C19.3 36.7 21.7 36.5 23.7 36.5H31.9V45.5H0.800018V39.4L0.700012 39.8Z" fill="white"/>
</mask>
<g mask="url(#mask0_376_1287)">
<path d="M-54.2 54.0999L34.5 -34.6001" stroke="#DDDDDD" stroke-width="0.2"/>
<path d="M-35.3 54.0999L53.4 -34.6001" stroke="#DDDDDD" stroke-width="0.2"/>
<path d="M-47.9 54.0999L40.8 -34.6001" stroke="#DDDDDD" stroke-width="0.2"/>
<path d="M-44.8 54.0999L44 -34.6001" stroke="#DDDDDD" stroke-width="0.2"/>
<path d="M-41.6 54.0999L47.1 -34.6001" stroke="#DDDDDD" stroke-width="0.2"/>
<path d="M-38.4 54.0999L50.3 -34.6001" stroke="#DDDDDD" stroke-width="0.2"/>
<path d="M-51.1 54.0999L37.6 -34.6001" stroke="#DDDDDD" stroke-width="0.2"/>
<path d="M-32.1 54.0999L56.6 -34.6001" stroke="#DDDDDD" stroke-width="0.2"/>
<path d="M-29 54.0999L59.7 -34.6001" stroke="#DDDDDD" stroke-width="0.2"/>
<path d="M-25.8 54.0999L62.9 -34.6001" stroke="#DDDDDD" stroke-width="0.2"/>
<path d="M-22.7 54.0999L66.1 -34.6001" stroke="#DDDDDD" stroke-width="0.2"/>
<path d="M-19.5 54.0999L69.2 -34.6001" stroke="#DDDDDD" stroke-width="0.2"/>
<path d="M-0.600037 54.0999L88.1 -34.6001" stroke="#DDDDDD" stroke-width="0.2"/>
<path d="M-13.2 54.0999L75.5 -34.6001" stroke="#DDDDDD" stroke-width="0.2"/>
<path d="M-10 54.0999L78.7 -34.6001" stroke="#DDDDDD" stroke-width="0.2"/>
<path d="M-6.90002 54.0999L81.8 -34.6001" stroke="#DDDDDD" stroke-width="0.2"/>
<path d="M-3.70001 54.0999L85 -34.6001" stroke="#DDDDDD" stroke-width="0.2"/>
<path d="M-16.4 54.0999L72.4 -34.6001" stroke="#DDDDDD" stroke-width="0.2"/>
<path d="M2.59998 54.0999L91.3 -34.6001" stroke="#DDDDDD" stroke-width="0.2"/>
<path d="M5.70001 54.0999L94.5 -34.6001" stroke="#DDDDDD" stroke-width="0.2"/>
<path d="M8.89996 54.0999L97.6 -34.6001" stroke="#DDDDDD" stroke-width="0.2"/>
<path d="M12.1 54.0999L100.8 -34.6001" stroke="#DDDDDD" stroke-width="0.2"/>
<path d="M15.2 54.0999L103.9 -34.6001" stroke="#DDDDDD" stroke-width="0.2"/>
<path d="M21.5 54.0999L110.2 -34.6001" stroke="#DDDDDD" stroke-width="0.2"/>
<path d="M24.7 54.0999L113.4 -34.6001" stroke="#DDDDDD" stroke-width="0.2"/>
<path d="M27.8 54.0999L116.5 -34.6001" stroke="#DDDDDD" stroke-width="0.2"/>
<path d="M31 54.0999L119.7 -34.6001" stroke="#DDDDDD" stroke-width="0.2"/>
<path d="M18.4 54.0999L107.1 -34.6001" stroke="#DDDDDD" stroke-width="0.2"/>
</g>
<path d="M0.700012 39.8C6.90001 34.1 11.6 29.3 14.7 25.4C17.8 21.5 19.4 18 19.4 14.9C19.4 11.8 18.9 11.3 17.9 10.2C16.9 9.1 15.4 8.5 13.6 8.5C11.8 8.5 10.9 8.90001 9.70001 9.60001C8.50001 10.4 7.30002 11.4 6.00002 12.8L0.200012 7C2.50001 4.6 4.80002 2.8 7.00002 1.7C9.30002 0.599997 12 0 15 0C18 0 20.4 0.599997 22.7 1.7C24.9 2.9 26.6 4.50001 27.9 6.60001C29.1 8.70001 29.8 11.2 29.8 14C29.8 20.3 25.3 28.1 16.3 37.1C19.3 36.7 21.7 36.5 23.7 36.5H31.9V45.5H0.800018V39.4L0.700012 39.8Z" stroke="#BBBABA" stroke-width="0.3" stroke-miterlimit="10"/>
<mask id="mask1_376_1287" style="mask-type:luminance" maskUnits="userSpaceOnUse" x="35" y="0" width="33" height="47">
<path d="M42.9 44.0998C40.5 42.2998 38.7 39.5998 37.3 36.0998C36 32.5998 35.3 28.2998 35.3 23.2998C35.3 18.2998 36 13.9998 37.3 10.5998C38.6 7.09981 40.5 4.5998 42.8 2.8998C45.2 1.1998 48 0.299805 51.2 0.299805C54.4 0.299805 57.2 1.1998 59.6 2.8998C62 4.5998 63.8 7.19981 65.1 10.5998C66.4 13.9998 67.1 18.2998 67.1 23.2998C67.1 28.2998 66.4 32.5998 65.1 36.0998C63.8 39.5998 61.9 42.2998 59.6 44.0998C57.3 45.8998 54.4 46.7998 51.3 46.7998C48.2 46.7998 45.3 45.8998 43 44.0998H42.9ZM55.5 35.1998C56.5 32.9998 57 28.9998 57 23.2998C57 17.5998 56.5 13.6998 55.5 11.5998C54.5 9.49981 53.1 8.3998 51.3 8.3998C49.5 8.3998 48.1 9.49981 47.1 11.5998C46.1 13.6998 45.6 17.5998 45.6 23.2998C45.6 28.9998 46.1 32.9998 47.1 35.1998C48.1 37.3998 49.5 38.4998 51.3 38.4998C53.1 38.4998 54.5 37.3998 55.5 35.1998Z" fill="white"/>
</mask>
<g mask="url(#mask1_376_1287)">
<path d="M-51.6 61.5999L37.1 -27.1001" stroke="#DDDDDD" stroke-width="0.2"/>
<path d="M-48.4 61.5999L40.3 -27.1001" stroke="#DDDDDD" stroke-width="0.2"/>
<path d="M-45.3 61.5999L43.4 -27.1001" stroke="#DDDDDD" stroke-width="0.2"/>
<path d="M-26.3 61.5999L62.4 -27.1001" stroke="#DDDDDD" stroke-width="0.2"/>
<path d="M-39 61.5999L49.8 -27.1001" stroke="#DDDDDD" stroke-width="0.2"/>
<path d="M-35.8 61.5999L52.9 -27.1001" stroke="#DDDDDD" stroke-width="0.2"/>
<path d="M-32.7 61.5999L56.1 -27.1001" stroke="#DDDDDD" stroke-width="0.2"/>
<path d="M-29.5 61.5999L59.2 -27.1001" stroke="#DDDDDD" stroke-width="0.2"/>
<path d="M-42.1 61.5999L46.6 -27.1001" stroke="#DDDDDD" stroke-width="0.2"/>
<path d="M-23.2 61.5999L65.5 -27.1001" stroke="#DDDDDD" stroke-width="0.2"/>
<path d="M-20 61.5999L68.7 -27.1001" stroke="#DDDDDD" stroke-width="0.2"/>
<path d="M-16.9 61.5999L71.8 -27.1001" stroke="#DDDDDD" stroke-width="0.2"/>
<path d="M-13.7 61.5999L75 -27.1001" stroke="#DDDDDD" stroke-width="0.2"/>
<path d="M-10.6 61.5999L78.2 -27.1001" stroke="#DDDDDD" stroke-width="0.2"/>
<path d="M8.40002 61.5999L97.1 -27.1001" stroke="#DDDDDD" stroke-width="0.2"/>
<path d="M-4.20001 61.5999L84.5 -27.1001" stroke="#DDDDDD" stroke-width="0.2"/>
<path d="M-1.09998 61.5999L87.6 -27.1001" stroke="#DDDDDD" stroke-width="0.2"/>
<path d="M2.09998 61.5999L90.8 -27.1001" stroke="#DDDDDD" stroke-width="0.2"/>
<path d="M5.20001 61.5999L93.9 -27.1001" stroke="#DDDDDD" stroke-width="0.2"/>
<path d="M-7.40002 61.5999L81.3 -27.1001" stroke="#DDDDDD" stroke-width="0.2"/>
<path d="M11.5 61.5999L100.2 -27.1001" stroke="#DDDDDD" stroke-width="0.2"/>
<path d="M14.7 61.5999L103.4 -27.1001" stroke="#DDDDDD" stroke-width="0.2"/>
<path d="M17.8 61.5999L106.6 -27.1001" stroke="#DDDDDD" stroke-width="0.2"/>
<path d="M21 61.5999L109.7 -27.1001" stroke="#DDDDDD" stroke-width="0.2"/>
<path d="M24.2 61.5999L112.9 -27.1001" stroke="#DDDDDD" stroke-width="0.2"/>
<path d="M43.1 61.5999L131.8 -27.1001" stroke="#DDDDDD" stroke-width="0.2"/>
<path d="M30.5 61.5999L119.2 -27.1001" stroke="#DDDDDD" stroke-width="0.2"/>
<path d="M33.6 61.5999L122.3 -27.1001" stroke="#DDDDDD" stroke-width="0.2"/>
<path d="M36.8 61.5999L125.5 -27.1001" stroke="#DDDDDD" stroke-width="0.2"/>
<path d="M39.9 61.5999L128.6 -27.1001" stroke="#DDDDDD" stroke-width="0.2"/>
<path d="M27.3 61.5999L116 -27.1001" stroke="#DDDDDD" stroke-width="0.2"/>
<path d="M46.2 61.5999L135 -27.1001" stroke="#DDDDDD" stroke-width="0.2"/>
<path d="M49.4 61.5999L138.1 -27.1001" stroke="#DDDDDD" stroke-width="0.2"/>
<path d="M52.6 61.5999L141.3 -27.1001" stroke="#DDDDDD" stroke-width="0.2"/>
<path d="M55.7 61.5999L144.4 -27.1001" stroke="#DDDDDD" stroke-width="0.2"/>
<path d="M58.9 61.5999L147.6 -27.1001" stroke="#DDDDDD" stroke-width="0.2"/>
<path d="M62 61.5999L150.7 -27.1001" stroke="#DDDDDD" stroke-width="0.2"/>
<path d="M65.2 61.5999L153.9 -27.1001" stroke="#DDDDDD" stroke-width="0.2"/>
</g>
<path d="M42.9 44.0998C40.5 42.2998 38.7 39.5998 37.3 36.0998C36 32.5998 35.3 28.2998 35.3 23.2998C35.3 18.2998 36 13.9998 37.3 10.5998C38.6 7.09981 40.5 4.5998 42.8 2.8998C45.2 1.1998 48 0.299805 51.2 0.299805C54.4 0.299805 57.2 1.1998 59.6 2.8998C62 4.5998 63.8 7.19981 65.1 10.5998C66.4 13.9998 67.1 18.2998 67.1 23.2998C67.1 28.2998 66.4 32.5998 65.1 36.0998C63.8 39.5998 61.9 42.2998 59.6 44.0998C57.3 45.8998 54.4 46.7998 51.3 46.7998C48.2 46.7998 45.3 45.8998 43 44.0998H42.9ZM55.5 35.1998C56.5 32.9998 57 28.9998 57 23.2998C57 17.5998 56.5 13.6998 55.5 11.5998C54.5 9.49981 53.1 8.3998 51.3 8.3998C49.5 8.3998 48.1 9.49981 47.1 11.5998C46.1 13.6998 45.6 17.5998 45.6 23.2998C45.6 28.9998 46.1 32.9998 47.1 35.1998C48.1 37.3998 49.5 38.4998 51.3 38.4998C53.1 38.4998 54.5 37.3998 55.5 35.1998Z" stroke="#BBBABA" stroke-width="0.3" stroke-miterlimit="10"/>
<mask id="mask2_376_1287" style="mask-type:luminance" maskUnits="userSpaceOnUse" x="71" y="0" width="33" height="46">
<path d="M71.9 40.1999C78.1 34.4999 82.8 29.6999 85.9 25.7999C89 21.8999 90.6 18.3999 90.6 15.2999C90.6 12.1999 90.1 11.6999 89.1 10.5999C88.1 9.49991 86.6 8.8999 84.8 8.8999C83 8.8999 82.1 9.29991 80.9 9.99991C79.7 10.7999 78.5 11.7999 77.2 13.1999L71.4 7.3999C73.7 4.9999 76 3.19991 78.2 2.09991C80.5 0.999915 83.2 0.399902 86.2 0.399902C89.2 0.399902 91.6 0.999915 93.9 2.09991C96.1 3.29991 97.8 4.89991 99.1 6.99991C100.3 9.09991 101 11.5999 101 14.3999C101 20.6999 96.5 28.4999 87.5 37.4999C90.5 37.0999 92.9 36.8999 94.9 36.8999H103.1V45.8999H72V39.7999L71.9 40.1999Z" fill="white"/>
</mask>
<g mask="url(#mask2_376_1287)">
<path d="M-0.899963 59.3001L87.8 -29.3999" stroke="#DDDDDD" stroke-width="0.2"/>
<path d="M18.0001 59.3001L106.8 -29.3999" stroke="#DDDDDD" stroke-width="0.2"/>
<path d="M5.40002 59.3001L94.1 -29.3999" stroke="#DDDDDD" stroke-width="0.2"/>
<path d="M8.60004 59.3001L97.3 -29.3999" stroke="#DDDDDD" stroke-width="0.2"/>
<path d="M11.7 59.3001L100.5 -29.3999" stroke="#DDDDDD" stroke-width="0.2"/>
<path d="M14.9 59.3001L103.6 -29.3999" stroke="#DDDDDD" stroke-width="0.2"/>
<path d="M2.30005 59.3001L91 -29.3999" stroke="#DDDDDD" stroke-width="0.2"/>
<path d="M21.2 59.3001L109.9 -29.3999" stroke="#DDDDDD" stroke-width="0.2"/>
<path d="M24.4 59.3001L113.1 -29.3999" stroke="#DDDDDD" stroke-width="0.2"/>
<path d="M27.5001 59.3001L116.2 -29.3999" stroke="#DDDDDD" stroke-width="0.2"/>
<path d="M30.7 59.3001L119.4 -29.3999" stroke="#DDDDDD" stroke-width="0.2"/>
<path d="M33.8 59.3001L122.5 -29.3999" stroke="#DDDDDD" stroke-width="0.2"/>
<path d="M52.8 59.3001L141.5 -29.3999" stroke="#DDDDDD" stroke-width="0.2"/>
<path d="M40.1 59.3001L128.9 -29.3999" stroke="#DDDDDD" stroke-width="0.2"/>
<path d="M43.3 59.3001L132 -29.3999" stroke="#DDDDDD" stroke-width="0.2"/>
<path d="M46.4 59.3001L135.2 -29.3999" stroke="#DDDDDD" stroke-width="0.2"/>
<path d="M49.6 59.3001L138.3 -29.3999" stroke="#DDDDDD" stroke-width="0.2"/>
<path d="M37.0001 59.3001L125.7 -29.3999" stroke="#DDDDDD" stroke-width="0.2"/>
<path d="M55.9 59.3001L144.6 -29.3999" stroke="#DDDDDD" stroke-width="0.2"/>
<path d="M59.1 59.3001L147.8 -29.3999" stroke="#DDDDDD" stroke-width="0.2"/>
<path d="M62.2 59.3001L150.9 -29.3999" stroke="#DDDDDD" stroke-width="0.2"/>
<path d="M65.4 59.3001L154.1 -29.3999" stroke="#DDDDDD" stroke-width="0.2"/>
<path d="M68.5001 59.3001L157.3 -29.3999" stroke="#DDDDDD" stroke-width="0.2"/>
<path d="M87.5001 59.3001L176.2 -29.3999" stroke="#DDDDDD" stroke-width="0.2"/>
<path d="M74.9 59.3001L163.6 -29.3999" stroke="#DDDDDD" stroke-width="0.2"/>
<path d="M78.0001 59.3001L166.7 -29.3999" stroke="#DDDDDD" stroke-width="0.2"/>
<path d="M81.2 59.3001L169.9 -29.3999" stroke="#DDDDDD" stroke-width="0.2"/>
<path d="M84.3 59.3001L173 -29.3999" stroke="#DDDDDD" stroke-width="0.2"/>
<path d="M71.7 59.3001L160.4 -29.3999" stroke="#DDDDDD" stroke-width="0.2"/>
<path d="M90.6 59.3001L179.3 -29.3999" stroke="#DDDDDD" stroke-width="0.2"/>
<path d="M93.8 59.3001L182.5 -29.3999" stroke="#DDDDDD" stroke-width="0.2"/>
<path d="M96.9 59.3001L185.7 -29.3999" stroke="#DDDDDD" stroke-width="0.2"/>
<path d="M100.1 59.3001L188.8 -29.3999" stroke="#DDDDDD" stroke-width="0.2"/>
</g>
<path d="M71.9 40.1999C78.1 34.4999 82.8 29.6999 85.9 25.7999C89 21.8999 90.6 18.3999 90.6 15.2999C90.6 12.1999 90.1 11.6999 89.1 10.5999C88.1 9.49991 86.6 8.8999 84.8 8.8999C83 8.8999 82.1 9.29991 80.9 9.99991C79.7 10.7999 78.5 11.7999 77.2 13.1999L71.4 7.3999C73.7 4.9999 76 3.19991 78.2 2.09991C80.5 0.999915 83.2 0.399902 86.2 0.399902C89.2 0.399902 91.6 0.999915 93.9 2.09991C96.1 3.29991 97.8 4.89991 99.1 6.99991C100.3 9.09991 101 11.5999 101 14.3999C101 20.6999 96.5 28.4999 87.5 37.4999C90.5 37.0999 92.9 36.8999 94.9 36.8999H103.1V45.8999H72V39.7999L71.9 40.1999Z" stroke="#BBBABA" stroke-width="0.3" stroke-miterlimit="10"/>
<mask id="mask3_376_1287" style="mask-type:luminance" maskUnits="userSpaceOnUse" x="107" y="1" width="35" height="45">
<path d="M126.6 46.0001V34.8001H107.7V27.4001L123.3 1.1001H136.6V26.7001H141.5V34.8001H136.6V46.0001H126.6ZM126.6 20.1001C126.6 18.4001 126.6 15.8001 126.8 12.4001C126.8 11.3001 126.9 10.5001 126.9 10.0001H126.7C125.5 12.8001 124.3 15.3001 123.1 17.7001L118 26.6001H126.6V20.0001V20.1001Z" fill="white"/>
</mask>
<g mask="url(#mask3_376_1287)">
<path d="M19.9 67.5003L108.6 -21.1997" stroke="#DDDDDD" stroke-width="0.2"/>
<path d="M23.0001 67.5003L111.7 -21.1997" stroke="#DDDDDD" stroke-width="0.2"/>
<path d="M26.2 67.5003L114.9 -21.1997" stroke="#DDDDDD" stroke-width="0.2"/>
<path d="M29.3 67.5003L118 -21.1997" stroke="#DDDDDD" stroke-width="0.2"/>
<path d="M48.3 67.5003L137 -21.1997" stroke="#DDDDDD" stroke-width="0.2"/>
<path d="M35.6 67.5003L124.4 -21.1997" stroke="#DDDDDD" stroke-width="0.2"/>
<path d="M38.8 67.5003L127.5 -21.1997" stroke="#DDDDDD" stroke-width="0.2"/>
<path d="M42.0001 67.5003L130.7 -21.1997" stroke="#DDDDDD" stroke-width="0.2"/>
<path d="M45.1 67.5003L133.8 -21.1997" stroke="#DDDDDD" stroke-width="0.2"/>
<path d="M32.5001 67.5003L121.2 -21.1997" stroke="#DDDDDD" stroke-width="0.2"/>
<path d="M51.4 67.5003L140.1 -21.1997" stroke="#DDDDDD" stroke-width="0.2"/>
<path d="M54.6 67.5003L143.3 -21.1997" stroke="#DDDDDD" stroke-width="0.2"/>
<path d="M57.7 67.5003L146.4 -21.1997" stroke="#DDDDDD" stroke-width="0.2"/>
<path d="M60.9 67.5003L149.6 -21.1997" stroke="#DDDDDD" stroke-width="0.2"/>
<path d="M64.0001 67.5003L152.8 -21.1997" stroke="#DDDDDD" stroke-width="0.2"/>
<path d="M83.0001 67.5003L171.7 -21.1997" stroke="#DDDDDD" stroke-width="0.2"/>
<path d="M70.4 67.5003L159.1 -21.1997" stroke="#DDDDDD" stroke-width="0.2"/>
<path d="M73.5001 67.5003L162.2 -21.1997" stroke="#DDDDDD" stroke-width="0.2"/>
<path d="M76.7 67.5003L165.4 -21.1997" stroke="#DDDDDD" stroke-width="0.2"/>
<path d="M79.8 67.5003L168.5 -21.1997" stroke="#DDDDDD" stroke-width="0.2"/>
<path d="M67.2 67.5003L155.9 -21.1997" stroke="#DDDDDD" stroke-width="0.2"/>
<path d="M86.1 67.5003L174.9 -21.1997" stroke="#DDDDDD" stroke-width="0.2"/>
<path d="M89.3 67.5003L178 -21.1997" stroke="#DDDDDD" stroke-width="0.2"/>
<path d="M92.4 67.5003L181.2 -21.1997" stroke="#DDDDDD" stroke-width="0.2"/>
<path d="M95.6 67.5003L184.3 -21.1997" stroke="#DDDDDD" stroke-width="0.2"/>
<path d="M98.8 67.5003L187.5 -21.1997" stroke="#DDDDDD" stroke-width="0.2"/>
<path d="M117.7 67.5003L206.4 -21.1997" stroke="#DDDDDD" stroke-width="0.2"/>
<path d="M105.1 67.5003L193.8 -21.1997" stroke="#DDDDDD" stroke-width="0.2"/>
<path d="M108.2 67.5003L196.9 -21.1997" stroke="#DDDDDD" stroke-width="0.2"/>
<path d="M111.4 67.5003L200.1 -21.1997" stroke="#DDDDDD" stroke-width="0.2"/>
<path d="M114.5 67.5003L203.3 -21.1997" stroke="#DDDDDD" stroke-width="0.2"/>
<path d="M101.9 67.5003L190.6 -21.1997" stroke="#DDDDDD" stroke-width="0.2"/>
<path d="M120.9 67.5003L209.6 -21.1997" stroke="#DDDDDD" stroke-width="0.2"/>
<path d="M124 67.5003L212.7 -21.1997" stroke="#DDDDDD" stroke-width="0.2"/>
<path d="M127.2 67.5003L215.9 -21.1997" stroke="#DDDDDD" stroke-width="0.2"/>
<path d="M130.3 67.5003L219 -21.1997" stroke="#DDDDDD" stroke-width="0.2"/>
<path d="M133.5 67.5003L222.2 -21.1997" stroke="#DDDDDD" stroke-width="0.2"/>
<path d="M136.6 67.5003L225.3 -21.1997" stroke="#DDDDDD" stroke-width="0.2"/>
<path d="M139.8 67.5003L228.5 -21.1997" stroke="#DDDDDD" stroke-width="0.2"/>
</g>
<path d="M126.6 46.0001V34.8001H107.7V27.4001L123.3 1.1001H136.6V26.7001H141.5V34.8001H136.6V46.0001H126.6ZM126.6 20.1001C126.6 18.4001 126.6 15.8001 126.8 12.4001C126.8 11.3001 126.9 10.5001 126.9 10.0001H126.7C125.5 12.8001 124.3 15.3001 123.1 17.7001L118 26.6001H126.6V20.0001V20.1001Z" stroke="#BBBABA" stroke-width="0.3"/>
</g>
<defs>
<clipPath id="clip0_376_1287">
<rect width="142" height="47" fill="white"/>
</clipPath>
</defs>
</svg>
