<svg width="142" height="47" viewBox="0 0 142 47" fill="none" xmlns="http://www.w3.org/2000/svg">
<g clip-path="url(#clip0_376_1030)">
<mask id="mask0_376_1030" style="mask-type:luminance" maskUnits="userSpaceOnUse" x="0" y="0" width="32" height="46">
<path d="M0.599976 39.8C6.79998 34.1 11.5 29.3 14.6 25.4C17.7 21.5 19.3 18 19.3 14.9C19.3 11.8 18.8 11.3 17.8 10.2C16.8 9.1 15.3 8.5 13.5 8.5C11.7 8.5 10.8 8.90001 9.59998 9.60001C8.39998 10.4 7.19998 11.4 5.89998 12.8L0.0999756 7C2.39998 4.6 4.69998 2.8 6.89998 1.7C9.19998 0.599997 11.9 0 14.9 0C17.9 0 20.3 0.599997 22.6 1.7C24.8 2.9 26.5 4.50001 27.8 6.60001C29 8.70001 29.7 11.2 29.7 14C29.7 20.3 25.2 28.1 16.2 37.1C19.2 36.7 21.6 36.5 23.6 36.5H31.8V45.5H0.699974V39.4L0.599976 39.8Z" fill="white"/>
</mask>
<g mask="url(#mask0_376_1030)">
<path d="M-54.3 54.0999L34.3999 -34.6001" stroke="#DDDDDD" stroke-width="0.2"/>
<path d="M-35.3 54.0999L53.3999 -34.6001" stroke="#DDDDDD" stroke-width="0.2"/>
<path d="M-48.0001 54.0999L40.6999 -34.6001" stroke="#DDDDDD" stroke-width="0.2"/>
<path d="M-44.8 54.0999L43.8999 -34.6001" stroke="#DDDDDD" stroke-width="0.2"/>
<path d="M-41.7001 54.0999L47.0999 -34.6001" stroke="#DDDDDD" stroke-width="0.2"/>
<path d="M-38.5001 54.0999L50.1999 -34.6001" stroke="#DDDDDD" stroke-width="0.2"/>
<path d="M-51.1 54.0999L37.6 -34.6001" stroke="#DDDDDD" stroke-width="0.2"/>
<path d="M-32.2001 54.0999L56.4999 -34.6001" stroke="#DDDDDD" stroke-width="0.2"/>
<path d="M-29.0001 54.0999L59.6999 -34.6001" stroke="#DDDDDD" stroke-width="0.2"/>
<path d="M-25.9 54.0999L62.8 -34.6001" stroke="#DDDDDD" stroke-width="0.2"/>
<path d="M-22.7001 54.0999L65.9999 -34.6001" stroke="#DDDDDD" stroke-width="0.2"/>
<path d="M-19.6 54.0999L69.1 -34.6001" stroke="#DDDDDD" stroke-width="0.2"/>
<path d="M-0.600037 54.0999L88.1 -34.6001" stroke="#DDDDDD" stroke-width="0.2"/>
<path d="M-13.3 54.0999L75.5 -34.6001" stroke="#DDDDDD" stroke-width="0.2"/>
<path d="M-10.1 54.0999L78.6 -34.6001" stroke="#DDDDDD" stroke-width="0.2"/>
<path d="M-6.90002 54.0999L81.8 -34.6001" stroke="#DDDDDD" stroke-width="0.2"/>
<path d="M-3.80005 54.0999L84.8999 -34.6001" stroke="#DDDDDD" stroke-width="0.2"/>
<path d="M-16.4 54.0999L72.3 -34.6001" stroke="#DDDDDD" stroke-width="0.2"/>
<path d="M2.49994 54.0999L91.1999 -34.6001" stroke="#DDDDDD" stroke-width="0.2"/>
<path d="M5.69995 54.0999L94.3999 -34.6001" stroke="#DDDDDD" stroke-width="0.2"/>
<path d="M8.79993 54.0999L97.4999 -34.6001" stroke="#DDDDDD" stroke-width="0.2"/>
<path d="M11.9999 54.0999L100.7 -34.6001" stroke="#DDDDDD" stroke-width="0.2"/>
<path d="M15.1 54.0999L103.9 -34.6001" stroke="#DDDDDD" stroke-width="0.2"/>
<path d="M21.4999 54.0999L110.2 -34.6001" stroke="#DDDDDD" stroke-width="0.2"/>
<path d="M24.6 54.0999L113.3 -34.6001" stroke="#DDDDDD" stroke-width="0.2"/>
<path d="M27.7999 54.0999L116.5 -34.6001" stroke="#DDDDDD" stroke-width="0.2"/>
<path d="M30.9 54.0999L119.6 -34.6001" stroke="#DDDDDD" stroke-width="0.2"/>
<path d="M18.2999 54.0999L107 -34.6001" stroke="#DDDDDD" stroke-width="0.2"/>
</g>
<path d="M0.599976 39.8C6.79998 34.1 11.5 29.3 14.6 25.4C17.7 21.5 19.3 18 19.3 14.9C19.3 11.8 18.8 11.3 17.8 10.2C16.8 9.1 15.3 8.5 13.5 8.5C11.7 8.5 10.8 8.90001 9.59998 9.60001C8.39998 10.4 7.19998 11.4 5.89998 12.8L0.0999756 7C2.39998 4.6 4.69998 2.8 6.89998 1.7C9.19998 0.599997 11.9 0 14.9 0C17.9 0 20.3 0.599997 22.6 1.7C24.8 2.9 26.5 4.50001 27.8 6.60001C29 8.70001 29.7 11.2 29.7 14C29.7 20.3 25.2 28.1 16.2 37.1C19.2 36.7 21.6 36.5 23.6 36.5H31.8V45.5H0.699974V39.4L0.599976 39.8Z" stroke="#BBBABA" stroke-width="0.3" stroke-miterlimit="10"/>
<mask id="mask1_376_1030" style="mask-type:luminance" maskUnits="userSpaceOnUse" x="37" y="0" width="32" height="47">
<path d="M44.8 44.0998C42.4 42.2998 40.6 39.5998 39.2 36.0998C37.9 32.5998 37.2 28.2998 37.2 23.2998C37.2 18.2998 37.9 13.9998 39.2 10.5998C40.5 7.09981 42.4 4.5998 44.7 2.8998C47.1 1.1998 49.9 0.299805 53.1 0.299805C56.3 0.299805 59.1 1.1998 61.5 2.8998C63.9 4.5998 65.7 7.19981 67 10.5998C68.3 13.9998 69 18.2998 69 23.2998C69 28.2998 68.3 32.5998 67 36.0998C65.7 39.5998 63.8 42.2998 61.5 44.0998C59.2 45.8998 56.3 46.7998 53.2 46.7998C50.1 46.7998 47.2 45.8998 44.9 44.0998H44.8ZM57.4 35.1998C58.4 32.9998 58.9 28.9998 58.9 23.2998C58.9 17.5998 58.4 13.6998 57.4 11.5998C56.4 9.49981 55 8.3998 53.2 8.3998C51.4 8.3998 50 9.49981 49 11.5998C48 13.6998 47.5 17.5998 47.5 23.2998C47.5 28.9998 48 32.9998 49 35.1998C50 37.3998 51.4 38.4998 53.2 38.4998C55 38.4998 56.4 37.3998 57.4 35.1998Z" fill="white"/>
</mask>
<g mask="url(#mask1_376_1030)">
<path d="M-49.6 61.5999L39.1 -27.1001" stroke="#DDDDDD" stroke-width="0.2"/>
<path d="M-46.5 61.5999L42.2 -27.1001" stroke="#DDDDDD" stroke-width="0.2"/>
<path d="M-43.3 61.5999L45.4 -27.1001" stroke="#DDDDDD" stroke-width="0.2"/>
<path d="M-24.4 61.5999L64.3 -27.1001" stroke="#DDDDDD" stroke-width="0.2"/>
<path d="M-37 61.5999L51.7 -27.1001" stroke="#DDDDDD" stroke-width="0.2"/>
<path d="M-33.9 61.5999L54.8 -27.1001" stroke="#DDDDDD" stroke-width="0.2"/>
<path d="M-30.7 61.5999L58 -27.1001" stroke="#DDDDDD" stroke-width="0.2"/>
<path d="M-27.6 61.5999L61.2 -27.1001" stroke="#DDDDDD" stroke-width="0.2"/>
<path d="M-40.2 61.5999L48.5 -27.1001" stroke="#DDDDDD" stroke-width="0.2"/>
<path d="M-21.2 61.5999L67.5 -27.1001" stroke="#DDDDDD" stroke-width="0.2"/>
<path d="M-18.1 61.5999L70.6 -27.1001" stroke="#DDDDDD" stroke-width="0.2"/>
<path d="M-14.9 61.5999L73.8 -27.1001" stroke="#DDDDDD" stroke-width="0.2"/>
<path d="M-11.8 61.5999L76.9 -27.1001" stroke="#DDDDDD" stroke-width="0.2"/>
<path d="M-8.59998 61.5999L80.1 -27.1001" stroke="#DDDDDD" stroke-width="0.2"/>
<path d="M10.3 61.5999L99 -27.1001" stroke="#DDDDDD" stroke-width="0.2"/>
<path d="M-2.29999 61.5999L86.4 -27.1001" stroke="#DDDDDD" stroke-width="0.2"/>
<path d="M0.799988 61.5999L89.6 -27.1001" stroke="#DDDDDD" stroke-width="0.2"/>
<path d="M4 61.5999L92.7 -27.1001" stroke="#DDDDDD" stroke-width="0.2"/>
<path d="M7.20001 61.5999L95.9 -27.1001" stroke="#DDDDDD" stroke-width="0.2"/>
<path d="M-5.5 61.5999L83.2 -27.1001" stroke="#DDDDDD" stroke-width="0.2"/>
<path d="M13.5 61.5999L102.2 -27.1001" stroke="#DDDDDD" stroke-width="0.2"/>
<path d="M16.6 61.5999L105.3 -27.1001" stroke="#DDDDDD" stroke-width="0.2"/>
<path d="M19.8 61.5999L108.5 -27.1001" stroke="#DDDDDD" stroke-width="0.2"/>
<path d="M22.9 61.5999L111.6 -27.1001" stroke="#DDDDDD" stroke-width="0.2"/>
<path d="M26.1 61.5999L114.8 -27.1001" stroke="#DDDDDD" stroke-width="0.2"/>
<path d="M45 61.5999L133.7 -27.1001" stroke="#DDDDDD" stroke-width="0.2"/>
<path d="M32.4 61.5999L121.1 -27.1001" stroke="#DDDDDD" stroke-width="0.2"/>
<path d="M35.6 61.5999L124.3 -27.1001" stroke="#DDDDDD" stroke-width="0.2"/>
<path d="M38.7 61.5999L127.4 -27.1001" stroke="#DDDDDD" stroke-width="0.2"/>
<path d="M41.9 61.5999L130.6 -27.1001" stroke="#DDDDDD" stroke-width="0.2"/>
<path d="M29.2 61.5999L118 -27.1001" stroke="#DDDDDD" stroke-width="0.2"/>
<path d="M48.2 61.5999L136.9 -27.1001" stroke="#DDDDDD" stroke-width="0.2"/>
<path d="M51.3 61.5999L140 -27.1001" stroke="#DDDDDD" stroke-width="0.2"/>
<path d="M54.5 61.5999L143.2 -27.1001" stroke="#DDDDDD" stroke-width="0.2"/>
<path d="M57.6 61.5999L146.4 -27.1001" stroke="#DDDDDD" stroke-width="0.2"/>
<path d="M60.8 61.5999L149.5 -27.1001" stroke="#DDDDDD" stroke-width="0.2"/>
<path d="M64 61.5999L152.7 -27.1001" stroke="#DDDDDD" stroke-width="0.2"/>
<path d="M67.1 61.5999L155.8 -27.1001" stroke="#DDDDDD" stroke-width="0.2"/>
</g>
<path d="M44.8 44.0998C42.4 42.2998 40.6 39.5998 39.2 36.0998C37.9 32.5998 37.2 28.2998 37.2 23.2998C37.2 18.2998 37.9 13.9998 39.2 10.5998C40.5 7.09981 42.4 4.5998 44.7 2.8998C47.1 1.1998 49.9 0.299805 53.1 0.299805C56.3 0.299805 59.1 1.1998 61.5 2.8998C63.9 4.5998 65.7 7.19981 67 10.5998C68.3 13.9998 69 18.2998 69 23.2998C69 28.2998 68.3 32.5998 67 36.0998C65.7 39.5998 63.8 42.2998 61.5 44.0998C59.2 45.8998 56.3 46.7998 53.2 46.7998C50.1 46.7998 47.2 45.8998 44.9 44.0998H44.8ZM57.4 35.1998C58.4 32.9998 58.9 28.9998 58.9 23.2998C58.9 17.5998 58.4 13.6998 57.4 11.5998C56.4 9.49981 55 8.3998 53.2 8.3998C51.4 8.3998 50 9.49981 49 11.5998C48 13.6998 47.5 17.5998 47.5 23.2998C47.5 28.9998 48 32.9998 49 35.1998C50 37.3998 51.4 38.4998 53.2 38.4998C55 38.4998 56.4 37.3998 57.4 35.1998Z" stroke="#BBBABA" stroke-width="0.3" stroke-miterlimit="10"/>
<mask id="mask2_376_1030" style="mask-type:luminance" maskUnits="userSpaceOnUse" x="73" y="0" width="32" height="46">
<path d="M73.8 40.1999C80 34.4999 84.7 29.6999 87.8 25.7999C90.9 21.8999 92.5 18.3999 92.5 15.2999C92.5 12.1999 92 11.6999 91 10.5999C90 9.49991 88.5 8.89989 86.7 8.89989C84.9 8.89989 84 9.2999 82.8 9.9999C81.6 10.7999 80.4 11.7999 79.1 13.1999L73.3 7.39989C75.6 4.99989 77.9 3.19991 80.1 2.09991C82.4 0.999907 85.1 0.399902 88.1 0.399902C91.1 0.399902 93.5 0.999907 95.8 2.09991C98 3.29991 99.7 4.8999 101 6.9999C102.2 9.0999 102.9 11.5999 102.9 14.3999C102.9 20.6999 98.4 28.4999 89.4 37.4999C92.4 37.0999 94.8 36.8999 96.8 36.8999H105V45.8999H73.9V39.7999L73.8 40.1999Z" fill="white"/>
</mask>
<g mask="url(#mask2_376_1030)">
<path d="M1.09998 59.3001L89.8 -29.3999" stroke="#DDDDDD" stroke-width="0.2"/>
<path d="M20 59.3001L108.7 -29.3999" stroke="#DDDDDD" stroke-width="0.2"/>
<path d="M7.39996 59.3001L96.1 -29.3999" stroke="#DDDDDD" stroke-width="0.2"/>
<path d="M10.5 59.3001L99.2 -29.3999" stroke="#DDDDDD" stroke-width="0.2"/>
<path d="M13.7 59.3001L102.4 -29.3999" stroke="#DDDDDD" stroke-width="0.2"/>
<path d="M16.8 59.3001L105.5 -29.3999" stroke="#DDDDDD" stroke-width="0.2"/>
<path d="M4.19995 59.3001L92.8999 -29.3999" stroke="#DDDDDD" stroke-width="0.2"/>
<path d="M23.1 59.3001L111.9 -29.3999" stroke="#DDDDDD" stroke-width="0.2"/>
<path d="M26.3 59.3001L115 -29.3999" stroke="#DDDDDD" stroke-width="0.2"/>
<path d="M29.5 59.3001L118.2 -29.3999" stroke="#DDDDDD" stroke-width="0.2"/>
<path d="M32.6 59.3001L121.3 -29.3999" stroke="#DDDDDD" stroke-width="0.2"/>
<path d="M35.8 59.3001L124.5 -29.3999" stroke="#DDDDDD" stroke-width="0.2"/>
<path d="M54.7 59.3001L143.4 -29.3999" stroke="#DDDDDD" stroke-width="0.2"/>
<path d="M42.1 59.3001L130.8 -29.3999" stroke="#DDDDDD" stroke-width="0.2"/>
<path d="M45.2 59.3001L133.9 -29.3999" stroke="#DDDDDD" stroke-width="0.2"/>
<path d="M48.4 59.3001L137.1 -29.3999" stroke="#DDDDDD" stroke-width="0.2"/>
<path d="M51.5 59.3001L140.3 -29.3999" stroke="#DDDDDD" stroke-width="0.2"/>
<path d="M38.9 59.3001L127.6 -29.3999" stroke="#DDDDDD" stroke-width="0.2"/>
<path d="M57.9 59.3001L146.6 -29.3999" stroke="#DDDDDD" stroke-width="0.2"/>
<path d="M61 59.3001L149.7 -29.3999" stroke="#DDDDDD" stroke-width="0.2"/>
<path d="M64.2 59.3001L152.9 -29.3999" stroke="#DDDDDD" stroke-width="0.2"/>
<path d="M67.3 59.3001L156 -29.3999" stroke="#DDDDDD" stroke-width="0.2"/>
<path d="M70.5 59.3001L159.2 -29.3999" stroke="#DDDDDD" stroke-width="0.2"/>
<path d="M89.4 59.3001L178.1 -29.3999" stroke="#DDDDDD" stroke-width="0.2"/>
<path d="M76.8 59.3001L165.5 -29.3999" stroke="#DDDDDD" stroke-width="0.2"/>
<path d="M79.9 59.3001L168.7 -29.3999" stroke="#DDDDDD" stroke-width="0.2"/>
<path d="M83.1 59.3001L171.8 -29.3999" stroke="#DDDDDD" stroke-width="0.2"/>
<path d="M86.3 59.3001L175 -29.3999" stroke="#DDDDDD" stroke-width="0.2"/>
<path d="M73.6 59.3001L162.3 -29.3999" stroke="#DDDDDD" stroke-width="0.2"/>
<path d="M92.6 59.3001L181.3 -29.3999" stroke="#DDDDDD" stroke-width="0.2"/>
<path d="M95.7 59.3001L184.4 -29.3999" stroke="#DDDDDD" stroke-width="0.2"/>
<path d="M98.9 59.3001L187.6 -29.3999" stroke="#DDDDDD" stroke-width="0.2"/>
<path d="M102 59.3001L190.7 -29.3999" stroke="#DDDDDD" stroke-width="0.2"/>
</g>
<path d="M73.8 40.1999C80 34.4999 84.7 29.6999 87.8 25.7999C90.9 21.8999 92.5 18.3999 92.5 15.2999C92.5 12.1999 92 11.6999 91 10.5999C90 9.49991 88.5 8.89989 86.7 8.89989C84.9 8.89989 84 9.2999 82.8 9.9999C81.6 10.7999 80.4 11.7999 79.1 13.1999L73.3 7.39989C75.6 4.99989 77.9 3.19991 80.1 2.09991C82.4 0.999907 85.1 0.399902 88.1 0.399902C91.1 0.399902 93.5 0.999907 95.8 2.09991C98 3.29991 99.7 4.8999 101 6.9999C102.2 9.0999 102.9 11.5999 102.9 14.3999C102.9 20.6999 98.4 28.4999 89.4 37.4999C92.4 37.0999 94.8 36.8999 96.8 36.8999H105V45.8999H73.9V39.7999L73.8 40.1999Z" stroke="#BBBABA" stroke-width="0.3" stroke-miterlimit="10"/>
<mask id="mask3_376_1030" style="mask-type:luminance" maskUnits="userSpaceOnUse" x="109" y="1" width="33" height="46">
<path d="M109.7 40.6L114.6 33.8C117.6 36.7 120.7 38.1 123.8 38.1C126.9 38.1 127.7 37.5 129 36.3C130.2 35.1 130.9 33.4 130.9 31.1C130.9 28.8 130.3 27.2 129.1 26C127.9 24.8 126.3 24.2 124.3 24.2C122.3 24.2 122.1 24.3 121.3 24.6C120.5 24.9 119.4 25.5 118 26.3L113.3 23.2L114.4 1H139.6V10H123.6L122.9 17.6C124.4 17 125.9 16.7 127.5 16.7C130.1 16.7 132.5 17.2 134.6 18.3C136.7 19.3 138.4 20.9 139.6 23C140.8 25.1 141.5 27.7 141.5 30.9C141.5 34.1 140.8 37 139.3 39.4C137.8 41.8 135.9 43.6 133.4 44.9C130.9 46.2 128.2 46.8 125.3 46.8C119.1 46.8 113.8 44.7 109.6 40.6H109.7Z" fill="white"/>
</mask>
<g mask="url(#mask3_376_1030)">
<path d="M25.1 81.4998L113.9 -7.2002" stroke="#DDDDDD" stroke-width="0.2"/>
<path d="M22 81.4998L110.7 -7.2002" stroke="#DDDDDD" stroke-width="0.2"/>
<path d="M28.3 81.4998L117 -7.2002" stroke="#DDDDDD" stroke-width="0.2"/>
<path d="M31.5 81.4998L120.2 -7.2002" stroke="#DDDDDD" stroke-width="0.2"/>
<path d="M34.6 81.4998L123.3 -7.2002" stroke="#DDDDDD" stroke-width="0.2"/>
<path d="M37.8 81.4998L126.5 -7.2002" stroke="#DDDDDD" stroke-width="0.2"/>
<path d="M40.9 81.4998L129.6 -7.2002" stroke="#DDDDDD" stroke-width="0.2"/>
<path d="M59.9 81.4998L148.6 -7.2002" stroke="#DDDDDD" stroke-width="0.2"/>
<path d="M47.2 81.4998L135.9 -7.2002" stroke="#DDDDDD" stroke-width="0.2"/>
<path d="M50.4 81.4998L139.1 -7.2002" stroke="#DDDDDD" stroke-width="0.2"/>
<path d="M53.5 81.4998L142.3 -7.2002" stroke="#DDDDDD" stroke-width="0.2"/>
<path d="M56.7 81.4998L145.4 -7.2002" stroke="#DDDDDD" stroke-width="0.2"/>
<path d="M44.1 81.4998L132.8 -7.2002" stroke="#DDDDDD" stroke-width="0.2"/>
<path d="M63 81.4998L151.7 -7.2002" stroke="#DDDDDD" stroke-width="0.2"/>
<path d="M66.2 81.4998L154.9 -7.2002" stroke="#DDDDDD" stroke-width="0.2"/>
<path d="M69.3 81.4998L158 -7.2002" stroke="#DDDDDD" stroke-width="0.2"/>
<path d="M72.5 81.4998L161.2 -7.2002" stroke="#DDDDDD" stroke-width="0.2"/>
<path d="M75.6 81.4998L164.3 -7.2002" stroke="#DDDDDD" stroke-width="0.2"/>
<path d="M94.6 81.4998L183.3 -7.2002" stroke="#DDDDDD" stroke-width="0.2"/>
<path d="M81.9 81.4998L170.7 -7.2002" stroke="#DDDDDD" stroke-width="0.2"/>
<path d="M85.1 81.4998L173.8 -7.2002" stroke="#DDDDDD" stroke-width="0.2"/>
<path d="M88.3 81.4998L177 -7.2002" stroke="#DDDDDD" stroke-width="0.2"/>
<path d="M91.4 81.4998L180.1 -7.2002" stroke="#DDDDDD" stroke-width="0.2"/>
<path d="M78.8 81.4998L167.5 -7.2002" stroke="#DDDDDD" stroke-width="0.2"/>
<path d="M97.7 81.4998L186.4 -7.2002" stroke="#DDDDDD" stroke-width="0.2"/>
<path d="M100.9 81.4998L189.6 -7.2002" stroke="#DDDDDD" stroke-width="0.2"/>
<path d="M104 81.4998L192.7 -7.2002" stroke="#DDDDDD" stroke-width="0.2"/>
<path d="M107.2 81.4998L195.9 -7.2002" stroke="#DDDDDD" stroke-width="0.2"/>
<path d="M110.3 81.4998L199.1 -7.2002" stroke="#DDDDDD" stroke-width="0.2"/>
<path d="M113.5 81.4998L202.2 -7.2002" stroke="#DDDDDD" stroke-width="0.2"/>
<path d="M116.7 81.4998L205.4 -7.2002" stroke="#DDDDDD" stroke-width="0.2"/>
<path d="M135.6 81.4998L224.3 -7.2002" stroke="#DDDDDD" stroke-width="0.2"/>
<path d="M123 81.4998L211.7 -7.2002" stroke="#DDDDDD" stroke-width="0.2"/>
<path d="M126.1 81.4998L214.8 -7.2002" stroke="#DDDDDD" stroke-width="0.2"/>
<path d="M129.3 81.4998L218 -7.2002" stroke="#DDDDDD" stroke-width="0.2"/>
<path d="M132.4 81.4998L221.2 -7.2002" stroke="#DDDDDD" stroke-width="0.2"/>
<path d="M119.8 81.4998L208.5 -7.2002" stroke="#DDDDDD" stroke-width="0.2"/>
<path d="M138.7 81.4998L227.5 -7.2002" stroke="#DDDDDD" stroke-width="0.2"/>
</g>
<path d="M109.7 40.6L114.6 33.8C117.6 36.7 120.7 38.1 123.8 38.1C126.9 38.1 127.7 37.5 129 36.3C130.2 35.1 130.9 33.4 130.9 31.1C130.9 28.8 130.3 27.2 129.1 26C127.9 24.8 126.3 24.2 124.3 24.2C122.3 24.2 122.1 24.3 121.3 24.6C120.5 24.9 119.4 25.5 118 26.3L113.3 23.2L114.4 1H139.6V10H123.6L122.9 17.6C124.4 17 125.9 16.7 127.5 16.7C130.1 16.7 132.5 17.2 134.6 18.3C136.7 19.3 138.4 20.9 139.6 23C140.8 25.1 141.5 27.7 141.5 30.9C141.5 34.1 140.8 37 139.3 39.4C137.8 41.8 135.9 43.6 133.4 44.9C130.9 46.2 128.2 46.8 125.3 46.8C119.1 46.8 113.8 44.7 109.6 40.6H109.7Z" stroke="#BBBABA" stroke-width="0.3"/>
</g>
<defs>
<clipPath id="clip0_376_1030">
<rect width="142" height="47" fill="white"/>
</clipPath>
</defs>
</svg>
