<svg width="33" height="75" viewBox="0 0 33 75" fill="none" xmlns="http://www.w3.org/2000/svg">
<g clip-path="url(#clip0_495_2)">
<path d="M0.800049 36.5C4.90005 37.8 9.10004 39.8 11.4 43.5C13.7 47.2 14.1 49.1 13 49.8C11.9 50.5 9.70005 48.9 9.30005 48.7C3.80005 46.5 1.40005 42.3 0.800049 36.5Z" fill="#0066FF"/>
<path d="M12.6 32.2C12.2 32.6 10.5 30 10.2 29.6C7.79995 25.5 6.99995 19 7.49995 14.3C7.99995 9.60001 7.49995 13.5 7.89995 13.5C8.29995 13.5 11.3999 17.8 11.8999 18.4C15.3999 22.6 14.1 27.5 12.6 32.3V32.2Z" fill="#0066FF"/>
<path d="M11.1001 39.8001L4.40004 34.6001C2.10004 31.8001 1.00005 28.2001 1.30005 24.6001C4.80005 24.9001 8.90004 29.3001 10.2 32.4001C11.5 35.5001 11.1001 34.8001 11.1001 35.1001V39.8001Z" fill="#0066FF"/>
<path d="M2 50.9001C6.2 49.4001 11.6 49.4001 14.8 52.8001C18 56.2001 17.2 55.9001 14.8 56.3001C9.9 57.2001 4 55.9001 2 50.8001V50.9001Z" fill="#0066FF"/>
<path d="M31.3 0.500071C31.6 5.30007 28.3 8.70007 25.1 11.7001C21.9 14.7001 22.7 13.8001 21.6 14.7001C20.5 15.6001 20.2 15.8001 20 15.7001C20 11.4001 22.4 6.80007 25.6 3.90007C28.8 1.00007 29.1 1.40007 30.4 0.800074C31.7 0.200074 30.9 0.50007 31.3 0.60007V0.500071Z" fill="#0066FF"/>
<path d="M17.9 3.80007C18.5 8.90006 19.3 14.1001 17.1 19.0001C14.9 23.9001 15.7 21.9001 15.2 21.6001C14.8 18.4001 13.2 15.5001 13.5 12.1001C13.8 8.70006 15.9 5.80006 17.1 4.20006C18.3 2.60006 17.3 3.70007 17.8 3.80007H17.9Z" fill="#0066FF"/>
<path d="M19.5 61.2001C19.5 61.3001 17.1 62.5001 16.7 62.6001C14.3 63.5001 11.7 63.6001 9.09996 63.1001C6.49996 62.6001 6.09996 62.1001 5.99996 61.8001C5.89996 61.0001 7.89996 59.7001 8.59996 59.3001C10.7 58.2001 14.4 57.5001 16.6 58.2001C18.8 58.9001 20 60.2001 19.4 61.2001H19.5Z" fill="#0066FF"/>
<path d="M13.1 70.1C13.6 65.4 19.5 62.4 23.6 64.8C27.7 67.2 25.5 66.3 23.8 67.7C21.1 69.9 16.5 70.9 13.1 70.1Z" fill="#0066FF"/>
<path d="M15.9 25.9C15.3 25.3 19 18.6 19.9 17.7C20.8 16.8 25.4 14.3 25.9 14.3C26.4 14.3 26.1 14.8 26.1 15C25.9 19.4 22.2 23.2001 18.5 25.1001C14.8 27.0001 16.8 25.8 16 25.8L15.9 25.9Z" fill="#0066FF"/>
<path d="M18.9001 49.8999C21.4001 52.9999 24.6001 56.9999 25.0001 61.0999C25.4001 65.1999 25.2001 63.4999 24.7001 63.5999C24.2001 63.6999 21.1001 61.2999 20.7001 60.8999C18.1001 58.1999 17.1001 53.2999 18.9001 49.9999V49.8999Z" fill="#0066FF"/>
<path d="M17.7 37.3999C18.3 37.2999 18.7 39.2999 18.7 39.6999C19.2 43.6999 18.1 48.1 16.4 51.8C13.4 48.4 12.7 43.2 15.6 39.5C18.5 35.8 17.5 37.5 17.6 37.5L17.7 37.3999Z" fill="#0066FF"/>
<path d="M12.6 35.9C12.9 33.7 14.8 30 16.4 28.4C18 26.8 20 25.5 20 26.3C19.4 28 19.4 29.9 18.9 31.7C18.1 34.8 15.6 38.4 12.5 39.4C12.5 38.3 12.4 37 12.5 35.9H12.6Z" fill="#0066FF"/>
<path d="M19.3 74.2001C19.3 72.6001 21.2001 71.3001 22.6001 70.6001C25.3001 69.3001 29.6 68.4001 32 70.6001C30.3 72.6001 27.8 74.1001 25.2 74.3001C22.6 74.5001 21.3 74.0001 19.3 74.1001V74.2001Z" fill="#0066FF"/>
<path d="M32.3 68.9C28.1 68.6 26.2 66.3 25.9 62.2C25.6 58.1 26.8 62.2 27.4 62.7C29.5 64.4 32.6 65.6 32.3 68.9Z" fill="#0066FF"/>
</g>
<defs>
<clipPath id="clip0_495_2">
<rect width="33" height="75" fill="white"/>
</clipPath>
</defs>
</svg>
