<svg width="33" height="75" viewBox="0 0 33 75" fill="none" xmlns="http://www.w3.org/2000/svg">
<g clip-path="url(#clip0_495_17)">
<path d="M32.2 36.5C28.1 37.8 23.9 39.8 21.6 43.5C19.3 47.2 18.9 49.1 20 49.8C21.1 50.5 23.3 48.9 23.7 48.7C29.2 46.5 31.6 42.3 32.2 36.5Z" fill="#0066FF"/>
<path d="M20.4 32.2C20.8 32.6 22.5 30 22.8 29.6C25.2 25.5 26 19 25.5 14.3C25 9.60001 25.5001 13.5 25.1001 13.5C24.7001 13.5 21.6001 17.8 21.1001 18.4C17.6001 22.6 18.9 27.5 20.4 32.3V32.2Z" fill="#0066FF"/>
<path d="M21.8999 39.8001L28.6 34.6001C30.9 31.8001 31.9999 28.2001 31.6999 24.6001C28.1999 24.9001 24.1 29.3001 22.8 32.4001C21.5 35.5001 21.8999 34.8001 21.8999 35.1001V39.8001Z" fill="#0066FF"/>
<path d="M31 50.9001C26.8 49.4001 21.4 49.4001 18.2 52.8001C15 56.2001 15.8 55.9001 18.2 56.3001C23.1 57.2001 29 55.9001 31 50.8001V50.9001Z" fill="#0066FF"/>
<path d="M1.7 0.500071C1.4 5.30007 4.69999 8.70007 7.89999 11.7001C11.1 14.7001 10.3 13.8001 11.4 14.7001C12.5 15.6001 12.8 15.8001 13 15.7001C13 11.4001 10.6 6.80007 7.39999 3.90007C4.19999 1.00007 3.90001 1.40007 2.60001 0.800074C1.30001 0.200074 2.1 0.50007 1.7 0.60007V0.500071Z" fill="#0066FF"/>
<path d="M15.1 3.80007C14.5 8.90006 13.7 14.1001 15.9 19.0001C18.1 23.9001 17.3 21.9001 17.8 21.6001C18.2 18.4001 19.8 15.5001 19.5 12.1001C19.2 8.70006 17.1 5.80006 15.9 4.20006C14.7 2.60006 15.7 3.70007 15.2 3.80007H15.1Z" fill="#0066FF"/>
<path d="M13.5 61.2001C13.5 61.3001 15.9 62.5001 16.3 62.6001C18.7 63.5001 21.3 63.6001 23.9 63.1001C26.5 62.6001 26.9 62.1001 27 61.8001C27.1 61.0001 25.1 59.7001 24.4 59.3001C22.3 58.2001 18.6 57.5001 16.4 58.2001C14.2 58.9001 13 60.2001 13.6 61.2001H13.5Z" fill="#0066FF"/>
<path d="M19.9 70.1C19.4 65.4 13.5 62.4 9.40002 64.8C5.30002 67.2 7.50003 66.3 9.20003 67.7C11.9 69.9 16.5 70.9 19.9 70.1Z" fill="#0066FF"/>
<path d="M17.1 25.9C17.7 25.3 14 18.6 13.1 17.7C12.2 16.8 7.59997 14.3 7.09997 14.3C6.59997 14.3 6.89995 14.8 6.89995 15C7.09995 19.4 10.8 23.2001 14.5 25.1001C18.2 27.0001 16.2 25.8 17 25.8L17.1 25.9Z" fill="#0066FF"/>
<path d="M14.0999 49.8999C11.5999 52.9999 8.39994 56.9999 7.99994 61.0999C7.59994 65.1999 7.79995 63.4999 8.29995 63.5999C8.79995 63.6999 11.8999 61.2999 12.2999 60.8999C14.8999 58.1999 15.8999 53.2999 14.0999 49.9999V49.8999Z" fill="#0066FF"/>
<path d="M15.3 37.3999C14.7 37.2999 14.3 39.2999 14.3 39.6999C13.8 43.6999 14.9 48.1 16.6 51.8C19.6 48.4 20.3 43.2 17.4 39.5C14.5 35.8 15.5 37.5 15.4 37.5L15.3 37.3999Z" fill="#0066FF"/>
<path d="M20.4 35.9C20.1 33.7 18.2 30 16.6 28.4C15 26.8 13 25.5 13 26.3C13.6 28 13.6 29.9 14.1 31.7C14.9 34.8 17.4 38.4 20.5 39.4C20.5 38.3 20.6 37 20.5 35.9H20.4Z" fill="#0066FF"/>
<path d="M13.7 74.2001C13.7 72.6001 11.7999 71.3001 10.3999 70.6001C7.69995 69.3001 3.39995 68.4001 0.999954 70.6001C2.69995 72.6001 5.19996 74.1001 7.79996 74.3001C10.4 74.5001 11.7 74.0001 13.7 74.1001V74.2001Z" fill="#0066FF"/>
<path d="M0.699972 68.9C4.89997 68.6 6.79998 66.3 7.09998 62.2C7.39998 58.1 6.19998 62.2 5.59998 62.7C3.49998 64.4 0.399972 65.6 0.699972 68.9Z" fill="#0066FF"/>
</g>
<defs>
<clipPath id="clip0_495_17">
<rect width="33" height="75" fill="white" transform="matrix(-1 0 0 1 33 0)"/>
</clipPath>
</defs>
</svg>
