<svg width="141" height="121" viewBox="0 0 141 121" fill="none" xmlns="http://www.w3.org/2000/svg">
<g clip-path="url(#clip0_515_13)">
<path d="M70.8 18.9998C76.102 18.9998 80.4 14.7017 80.4 9.3998C80.4 4.09787 76.102 -0.200195 70.8 -0.200195C65.4981 -0.200195 61.2 4.09787 61.2 9.3998C61.2 14.7017 65.4981 18.9998 70.8 18.9998Z" fill="#F1F6FC"/>
<path d="M55.7 22.2998C50.8 22.2998 46.9 26.2998 46.9 31.0998V65.9998C46.9 68.5998 48.8 70.9998 51.4 71.1998C54 71.3998 56.9 69.0998 56.9 66.1998V40.6998H59.1V115.8C59.1 118.6 61.4 120.8 64.1 120.8C66.9 120.8 69.1 118.5 69.1 115.8V71.1998H72.2V115.6C72.2 118.2 74.1 120.6 76.7 120.8C79.3 121 82.2 118.7 82.2 115.8V40.6998H84.2V65.9998C84.2 68.5998 86.1 70.9998 88.7 71.1998C91.3 71.3998 94.2 69.0998 94.2 66.1998V31.0998C94.2 26.1998 90.2 22.2998 85.4 22.2998H55.5H55.7Z" fill="#F1F6FC"/>
<path d="M121 33.6C125.584 33.6 129.3 29.884 129.3 25.3C129.3 20.716 125.584 17 121 17C116.416 17 112.7 20.716 112.7 25.3C112.7 29.884 116.416 33.6 121 33.6Z" fill="#F1F6FC"/>
<path d="M108.1 36.3999C103.9 36.3999 100.5 39.7999 100.5 43.9999V73.8999C100.5 76.0999 102.1 78.1999 104.4 78.3999C106.7 78.5999 109.1 76.5999 109.1 74.0999V52.1999H111V116.6C111 119 112.9 120.9 115.3 120.9C117.7 120.9 119.6 119 119.6 116.6V78.3999H122.3V116.4C122.3 118.7 123.9 120.7 126.2 120.9C128.5 121.1 130.9 119.1 130.9 116.6V52.1999H132.6V73.8999C132.6 76.0999 134.2 78.1999 136.5 78.3999C138.8 78.5999 141.2 76.5999 141.2 74.0999V43.9999C141.2 39.7999 137.8 36.3999 133.6 36.3999H108H108.1Z" fill="#F1F6FC"/>
<path d="M20.5 33.6C25.084 33.6 28.8 29.884 28.8 25.3C28.8 20.716 25.084 17 20.5 17C15.9161 17 12.2 20.716 12.2 25.3C12.2 29.884 15.9161 33.6 20.5 33.6Z" fill="#F1F6FC"/>
<path d="M7.6 36.3999C3.4 36.3999 0 39.7999 0 43.9999V73.8999C0 76.0999 1.6 78.1999 3.9 78.3999C6.2 78.5999 8.6 76.5999 8.6 74.0999V52.1999H10.5V116.6C10.5 119 12.4 120.9 14.8 120.9C17.2 120.9 19.1 119 19.1 116.6V78.3999H21.8V116.4C21.8 118.7 23.4 120.7 25.7 120.9C28 121.1 30.4 119.1 30.4 116.6V52.1999H32.1V73.8999C32.1 76.0999 33.7 78.1999 36 78.3999C38.3 78.5999 40.7 76.5999 40.7 74.0999V43.9999C40.7 39.7999 37.3 36.3999 33.1 36.3999H7.5H7.6Z" fill="#F1F6FC"/>
</g>
<defs>
<clipPath id="clip0_515_13">
<rect width="141" height="121" fill="white"/>
</clipPath>
</defs>
</svg>
