<svg width="228" height="136" viewBox="0 0 228 136" fill="none" xmlns="http://www.w3.org/2000/svg">
<g clip-path="url(#clip0_514_6)">
<path d="M73.3 76.7002L51.5 89.5002L29.7 76.7002C12.8 78.4002 -0.400024 92.7002 -0.400024 110.1V135.4H103.4V110.1C103.4 92.7002 90.2 78.4002 73.3 76.7002Z" fill="#F0F5FB"/>
<path d="M208.5 36.2999C208 16.3999 193.9 0.399902 176.6 0.399902C159.3 0.399902 164.2 2.5999 159.1 6.3999C157.2 5.9999 155.3 5.9999 153.4 6.3999C144.8 8.5999 140.1 19.3999 142.9 30.5999C143.3 32.2999 143.9 33.9999 144.7 35.4999C144.7 35.6999 144.7 35.7999 144.7 35.9999C142.2 36.9999 140.3 39.7999 140.3 43.0999C140.3 46.3999 143.2 50.5999 146.7 50.5999C151.3 64.3999 162.9 74.1999 176.4 74.1999C189.9 74.1999 201.5 64.3999 206.1 50.5999C209.5 50.3999 212.3 47.1999 212.3 43.1999C212.3 39.1999 210.6 37.3999 208.2 36.2999H208.5ZM176.6 71.3999C163.3 71.3999 152.4 59.3999 151.5 44.1999C151.5 43.5999 151.5 42.8999 151.5 42.1999C151.5 34.2999 154.3 27.0999 158.7 21.7999C162.1 25.0999 167.5 27.9999 174 29.4999C184.6 32.0999 194.4 30.2999 197.4 25.5999C200.2 30.2999 201.9 35.9999 201.9 42.1999C201.9 58.2999 190.6 71.3999 176.7 71.3999H176.6Z" fill="#F0F5FB"/>
<path d="M93.5 72.2998L85 48.9998C86.5 47.5998 87.5 45.4998 87.5 43.0998C87.5 40.6998 85.8001 37.2998 83.4001 36.1998C82.9001 16.2998 68.8 0.299805 51.5 0.299805C34.2001 0.299805 20.2 16.1998 19.6 35.9998C17.1 36.9998 15.2001 39.7998 15.2001 43.0998C15.2001 46.3998 16.4001 47.9998 18.2001 49.3998L9.80005 72.1998L35.4001 69.1998C40.1001 72.3998 45.6001 74.1998 51.4001 74.1998C57.2001 74.1998 63.1001 72.1998 67.9001 68.8998L67.7 69.2998L93.3 72.2998H93.5ZM51.5 71.3998C37.6 71.3998 26.3 58.2998 26.3 42.1998C26.3 26.0998 26.7001 36.1998 27.4001 33.4998C32.8001 36.5998 42.5 33.5998 49.5 26.4998C50.1 25.8998 50.7001 25.1998 51.3001 24.4998C51.8001 25.1998 52.4 25.7998 53.1 26.4998C60.2 33.6998 70.2 36.6998 75.5 33.2998C76.3 36.0998 76.7 39.0998 76.7 42.1998C76.7 58.2998 65.4 71.3998 51.5 71.3998Z" fill="#F0F5FB"/>
<path d="M198.2 76.8999L183.5 110.9L176.6 91.1999L169.5 111.3L154.6 76.8999C137.7 78.5999 124.5 92.8999 124.5 110.3V135.6H228.3V110.3C228.3 92.8999 215.1 78.5999 198.2 76.8999Z" fill="#F0F5FB"/>
<path d="M181.1 83.4999L176.5 76.8999L171.9 83.4999L176.5 89.9999L181.1 83.4999Z" fill="#F0F5FB"/>
</g>
<defs>
<clipPath id="clip0_514_6">
<rect width="228" height="136" fill="white"/>
</clipPath>
</defs>
</svg>
