<svg width="107" height="125" viewBox="0 0 107 125" fill="none" xmlns="http://www.w3.org/2000/svg">
<g clip-path="url(#clip0_477_2)">
<path d="M64.1 26.7C64.1 27.2 64.2 27.6 64.5 28C64.8 28.4 65.3 28.7 65.9 28.9V24.7C65.2 24.9 64.7 25.2 64.5 25.6C64.2 25.9 64.1 26.3 64.1 26.8V26.7Z" fill="#F1F6FC"/>
<path d="M68.3 35.5V40.7C69.2 40.5 69.9 40.2 70.3 39.7C70.7 39.2 70.9 38.7 70.9 38.1C70.9 37.5 70.7 37.1 70.4 36.7C70 36.3 69.3 35.9 68.3 35.5Z" fill="#F1F6FC"/>
<path d="M67 0.199951C48.6 0.199951 33.7 15.1 33.7 33.5C33.7 51.9 48.6 66.8 67 66.8C85.4 66.8 100.3 51.9 100.3 33.5C100.3 15.1 85.4 0.199951 67 0.199951ZM76.3 40.5C75.8 41.5 75.1 42.3 74.3 43C73.5 43.7 72.6 44.0999 71.7 44.3999C70.8 44.6999 69.6 44.8999 68.3 44.8999V48H65.8999V44.8999C64.2999 44.7999 63 44.5 62 44.1C61 43.7 60.0999 43.2 59.3999 42.5C58.6999 41.8 58.1 41.0999 57.7 40.3999C57.3 39.5999 57 38.7 56.8 37.6L63.3999 36.8C63.5999 37.9 63.9 38.7 64.2 39.1C64.5 39.5 65.1 39.9999 65.8 40.3999V34.6C63.6 34 62.1 33.5 61.1 33C60.2 32.6 59.4 31.8 58.7 30.9C58 29.9 57.7 28.7 57.7 27.3C57.7 25.9 58.4 23.8 59.7 22.5C61 21.2 63.1 20.5 65.7 20.3V18.7H68.1V20.3C70.5 20.5 72.4 21 73.7 22C75 23 75.8 24.4 76.2 26.1L70.1 27.1C69.8 26.3 69.5 25.8 69.3 25.5C69.1 25.2 68.7 24.9 68.1 24.6V29.3C71.4 30.2 73.6 31.1 74.7 32.1C76.2 33.4 76.8999 35.1 76.8999 37.1C76.8999 39.1 76.6 39.3999 76.1 40.3999L76.3 40.5Z" fill="#F1F6FC"/>
<path d="M105.1 80.3C102.4 77 97.5999 76.5 94.3999 79.2L72.5 97H51.7C50.9 96.2 50.1 95 50 93.4C50 91.7 50.9 90.4 51.8 89.7H68.3C72.5 89.7 75.8999 86.3 75.8999 82.1C75.8999 77.9 72.5 74.5 68.3 74.5H28.5L11.7 87.8L25.6 105.3L34.2 116.2H73L103.9 91.1C107.2 88.4 107.7 83.6 105 80.4L105.1 80.3Z" fill="#F1F6FC"/>
<path d="M6.65468 92.6892L-0.457153 98.3665L21.0667 125.329L28.1785 119.652L6.65468 92.6892Z" fill="#F1F6FC"/>
</g>
<defs>
<clipPath id="clip0_477_2">
<rect width="107" height="125" fill="white"/>
</clipPath>
</defs>
</svg>
