<svg width="156" height="177" viewBox="0 0 156 177" fill="none" xmlns="http://www.w3.org/2000/svg">
<g clip-path="url(#clip0_514_2)">
<path d="M128.9 46.2002H65.4C63 46.2002 61 48.2002 61 50.6002C61 53.0002 63 55.0002 65.4 55.0002H128.9C131.3 55.0002 133.3 53.0002 133.3 50.6002C133.3 48.2002 131.3 46.2002 128.9 46.2002Z" fill="#F1F6FC"/>
<path d="M138 -0.399902H28.6C22.7 -0.399902 17.8 4.4001 17.8 10.4001V67.8001H71.2L81.7 83.8001H148.7V10.4001C148.7 4.5001 143.9 -0.399902 137.9 -0.399902H138ZM49.3 55.0001H37.8C35.4 55.0001 33.4 53.0001 33.4 50.6001C33.4 48.2001 35.4 46.2001 37.8 46.2001H49.3C51.7 46.2001 53.7 48.2001 53.7 50.6001C53.7 53.0001 51.7 55.0001 49.3 55.0001ZM49.3 39.1001H37.8C35.4 39.1001 33.4 37.1001 33.4 34.7001C33.4 32.3001 35.4 30.3001 37.8 30.3001H49.3C51.7 30.3001 53.7 32.3001 53.7 34.7001C53.7 37.1001 51.7 39.1001 49.3 39.1001ZM49.3 23.2001H37.8C35.4 23.2001 33.4 21.2001 33.4 18.8001C33.4 16.4001 35.4 14.4001 37.8 14.4001H49.3C51.7 14.4001 53.7 16.4001 53.7 18.8001C53.7 21.2001 51.7 23.2001 49.3 23.2001ZM128.9 39.1001H65.4C63 39.1001 61 37.1001 61 34.7001C61 32.3001 63 30.3001 65.4 30.3001H128.9C131.3 30.3001 133.3 32.3001 133.3 34.7001C133.3 37.1001 131.3 39.1001 128.9 39.1001ZM128.9 23.2001H65.4C63 23.2001 61 21.2001 61 18.8001C61 16.4001 63 14.4001 65.4 14.4001H128.9C131.3 14.4001 133.3 16.4001 133.3 18.8001C133.3 21.2001 131.3 23.2001 128.9 23.2001Z" fill="#F1F6FC"/>
<path d="M150.1 92H76.1L65.6 76H5.49995C2.29995 76 -0.300049 78.6 -0.300049 81.8V170.9C-0.300049 174.1 2.29995 176.7 5.49995 176.7H150.1C153.3 176.7 155.9 174.1 155.9 170.9V97.8C155.9 94.6 153.3 92 150.1 92Z" fill="#F1F6FC"/>
</g>
<defs>
<clipPath id="clip0_514_2">
<rect width="156" height="177" fill="white"/>
</clipPath>
</defs>
</svg>
