<svg width="158" height="122" viewBox="0 0 158 122" fill="none" xmlns="http://www.w3.org/2000/svg">
<g clip-path="url(#clip0_479_10)">
<path d="M62.8 4.9C60.8 4 58.5 4.3 56.3 5.4C54.6 2.1 51.9 0 48.9 0C45.9 0 42.9 2.4 41.2 6.1C38.6 4.4 35.8 3.9 33.5 4.9C28.7 7 27.4 14.8 30.7 22.3C33.4 28.5 38.4 32.6 42.8 32.6H53.6C58 32.6 63 28.6 65.7 22.3C69 14.8 67.7 7 62.9 4.9H62.8Z" fill="#F1F6FC"/>
<path d="M56.2 34.3998C55.5 34.5998 54.9 34.6998 54.2 34.6998H43.4C42.6 34.6998 41.8 34.5998 41 34.2998C18 37.7998 0.400024 57.5998 0.400024 81.5998V111.2C0.400024 117 5.10002 121.7 10.9 121.7H85.5C91.3 121.7 96 117 96 111.2V81.5998C96 57.8998 78.8 38.2998 56.2 34.4998V34.3998ZM56.9 74.6998C58.6 74.6998 59.4 74.6998 60.7 74.3998V79.0998C59.5 78.8998 58.5 78.8998 56.9 78.8998H52.9L51.7 80.8998V81.5998H56.8C58.4 81.5998 59.4 81.5998 60.6 81.2998V85.9998C59.3 85.7998 58.4 85.7998 56.8 85.7998H51.7V87.2998C51.7 89.5998 51.7 90.8998 52 92.4998H44.5C44.7 90.6998 44.8 89.2998 44.8 87.2998V85.7998H39.5C37.9 85.7998 36.8 85.7998 35.7 85.9998V81.2998C36.8 81.4998 37.8 81.5998 39.5 81.5998H44.8V80.8998L43.6 78.8998H39.6C37.9 78.8998 37.2 78.8998 35.8 79.0998V74.3998C36.9 74.5998 37.9 74.6998 39.6 74.6998H41.1L36.7 67.5998C36 66.2998 34.6 64.2998 33.9 63.2998H42.6C42.9 64.3998 43.3 65.1998 44.2 66.9998L48.3 74.7998L52.4 67.0998C53.4 65.1998 53.7 64.3998 54 63.3998H62.6C62 64.2998 60.1 67.0998 59.8 67.6998L55.5 74.7998H56.9V74.6998Z" fill="#F1F6FC"/>
<path d="M135.6 64.7002H107.8V72.9002H135.6V64.7002Z" fill="#F1F6FC"/>
<path d="M130.3 74H102.5V82.2H130.3V74Z" fill="#F1F6FC"/>
<path d="M137 83.7002H109.2V91.9002H137V83.7002Z" fill="#F1F6FC"/>
<path d="M137 93.1001H109.2V101.3H137V93.1001Z" fill="#F1F6FC"/>
<path d="M129.4 102.5H101.6V110.7H129.4V102.5Z" fill="#F1F6FC"/>
<path d="M129.4 111.9H101.6V120.1H129.4V111.9Z" fill="#F1F6FC"/>
<path d="M158.353 116.135L144.453 92.0591L137.351 96.1591L151.251 120.235L158.353 116.135Z" fill="#F1F6FC"/>
</g>
<defs>
<clipPath id="clip0_479_10">
<rect width="158" height="122" fill="white"/>
</clipPath>
</defs>
</svg>
