<svg width="168" height="146" viewBox="0 0 168 146" fill="none" xmlns="http://www.w3.org/2000/svg">
<g clip-path="url(#clip0_509_33)">
<path d="M75.2459 36.8535C74.9241 24.0544 65.8482 13.7637 54.7126 13.7637C43.5769 13.7637 46.731 15.1786 43.4482 17.6227C42.2252 17.3654 41.0022 17.3654 39.7792 17.6227C34.2436 19.0377 31.2183 25.9839 33.0206 33.1875C33.2781 34.2808 33.6643 35.3742 34.1792 36.339C34.1792 36.4676 34.1792 36.532 34.1792 36.6606C32.57 37.3038 31.347 39.1046 31.347 41.2271C31.347 43.3496 33.2137 46.0509 35.4666 46.0509C38.4275 54.9267 45.8942 61.2297 54.5838 61.2297C63.2735 61.2297 70.7401 54.9267 73.7011 46.0509C75.8896 45.9223 77.6919 43.8641 77.6919 41.2914C77.6919 38.7187 76.5976 37.561 75.0528 36.8535H75.2459ZM54.7126 59.4289C46.1516 59.4289 39.1356 51.7108 38.5562 41.9346C38.5562 41.5487 38.5562 41.0985 38.5562 40.6482C38.5562 35.5672 40.3585 30.9364 43.1907 27.5275C45.3792 29.65 48.8551 31.5152 53.039 32.48C59.862 34.1522 66.17 32.9945 68.1011 29.9716C69.9034 32.9945 70.9976 36.6606 70.9976 40.6482C70.9976 51.0033 63.7241 59.4289 54.7769 59.4289H54.7126Z" fill="#F0F5FB"/>
<path d="M68.6161 63.0308L59.154 84.8986L54.7126 72.2281L50.1425 85.1559L40.5517 63.0308C29.6736 64.1242 21.177 73.3215 21.177 84.5127V100.785H87.9908V84.5127C87.9908 73.3215 79.4942 64.1242 68.6161 63.0308Z" fill="#F0F5FB"/>
<path d="M57.5448 67.2114L54.6483 63.0308L51.6874 67.2114L54.6483 71.4563L57.5448 67.2114Z" fill="#F0F5FB"/>
<path d="M159.439 0H8.56099C3.73341 0 -0.128662 3.7304 -0.128662 8.29692V106.638C-0.128662 111.204 3.79777 114.935 8.56099 114.935H159.439C164.267 114.935 168.129 111.204 168.129 106.638V8.29692C168.129 3.7304 164.202 0 159.439 0ZM159.117 98.2767C159.117 102.843 155.191 106.574 150.428 106.574H17.6369C12.8093 106.574 8.9472 102.843 8.9472 98.2767V16.6582C8.9472 12.0916 12.8736 8.36123 17.6369 8.36123H150.428C155.255 8.36123 159.117 12.0916 159.117 16.6582V98.2767Z" fill="#F0F5FB"/>
<path d="M147.467 15.9507H98.9334C97.0137 15.9507 95.4575 17.5057 95.4575 19.4238V19.4881C95.4575 21.4063 97.0137 22.9613 98.9334 22.9613H147.467C149.386 22.9613 150.943 21.4063 150.943 19.4881V19.4238C150.943 17.5057 149.386 15.9507 147.467 15.9507Z" fill="#F0F5FB"/>
<path d="M147.338 29.7788H98.8046C96.8849 29.7788 95.3287 31.3338 95.3287 33.2519V33.3163C95.3287 35.2344 96.8849 36.7894 98.8046 36.7894H147.338C149.258 36.7894 150.814 35.2344 150.814 33.3163V33.2519C150.814 31.3338 149.258 29.7788 147.338 29.7788Z" fill="#F0F5FB"/>
<path d="M147.338 43.6714H98.8046C96.8849 43.6714 95.3287 45.2264 95.3287 47.1445V47.2088C95.3287 49.127 96.8849 50.682 98.8046 50.682H147.338C149.258 50.682 150.814 49.127 150.814 47.2088V47.1445C150.814 45.2264 149.258 43.6714 147.338 43.6714Z" fill="#F0F5FB"/>
<path d="M147.402 57.4995H111.678C109.758 57.4995 108.202 59.0545 108.202 60.9726V61.037C108.202 62.9551 109.758 64.5101 111.678 64.5101H147.402C149.322 64.5101 150.878 62.9551 150.878 61.037V60.9726C150.878 59.0545 149.322 57.4995 147.402 57.4995Z" fill="#F0F5FB"/>
<path d="M147.402 71.3276H111.678C109.758 71.3276 108.202 72.8826 108.202 74.8008V74.8651C108.202 76.7832 109.758 78.3382 111.678 78.3382H147.402C149.322 78.3382 150.878 76.7832 150.878 74.8651V74.8008C150.878 72.8826 149.322 71.3276 147.402 71.3276Z" fill="#F0F5FB"/>
<path d="M96.8736 117.893H65.3977L76.1471 131.786L65.3977 145.742H96.8736L86.0598 131.786L96.8736 117.893Z" fill="#F0F5FB"/>
</g>
<defs>
<clipPath id="clip0_509_33">
<rect width="168" height="146" fill="white"/>
</clipPath>
</defs>
</svg>
